<svg width="100" height="145" viewBox="0 0 100 145" fill="none" xmlns="http://www.w3.org/2000/svg">
<path d="M35.6547 136.143H44.2792L46.0393 139.81L38.1189 142.691L28.7904 139.81L35.6547 136.143Z" fill="#FB923C"/>
<path d="M39.9788 131.232H43.4752V138.014H39.9788V131.232Z" fill="#FB923C"/>
<path fill-rule="evenodd" clip-rule="evenodd" d="M55.2702 136.286C73.6815 136.658 98.0187 123.749 100 110.419C93.9642 114.03 88.7966 107.004 82.7972 98.8459C78.2569 92.6722 67.0099 82.5019 67.0099 82.5019C67.0099 82.5019 61.0256 80.1569 57.5773 80.4855C39.1659 80.1136 22.7635 94.2544 22.4681 108.969C22.1728 123.684 36.8588 135.914 55.2702 136.286ZM62.4723 114.745L49.5357 101.649L59.0925 119.189L84.2665 112.874L62.4723 114.745Z" fill="#EEACFD"/>
<path d="M49.5357 101.649L62.4723 114.745L84.2665 112.874L59.0925 119.189L49.5357 101.649Z" fill="#CD3FB1"/>
<path d="M70.1001 38.2339C70.1007 53.7146 60.7731 57.3281 62.1366 67.3281C63.5 77.3281 51.412 68.1397 43.9491 68.1397C40.6055 68.1397 34.4694 75.1764 34.4694 66.1142C34.4694 57.0521 17.7981 50.9268 17.7981 38.2339C17.7981 21.7174 29.5063 8.32813 43.9491 8.32812C58.3919 8.32812 70.0995 22.7533 70.1001 38.2339Z" fill="#EEACFD"/>
<path d="M62.9096 59.5742C58.8094 63.8204 67.0099 82.5019 67.0099 82.5019C67.0099 82.5019 47.2219 104.117 34.1573 102.718C17.8307 100.97 32.5738 93.4742 34.1575 78.6273C35.7411 63.7804 31.1325 27.7093 45.5844 27.7096C57.0254 27.7099 67.0099 55.3281 62.9096 59.5742Z" fill="#EEACFD"/>
<path fill-rule="evenodd" clip-rule="evenodd" d="M0.146311 47.0914C7.0668 51.6271 22.0761 50.8986 24.4196 50.754C24.627 50.7412 24.8125 50.6562 24.9596 50.5148C27.7682 47.8157 28.7554 45.8887 28.3573 41.3915C20.5099 45.0872 15.7649 46.9994 0.146311 47.0914Z" fill="#FB923C"/>
<path d="M20.1947 33.1505C17.1451 36.908 -1.84761 41.4979 0.146311 47.0914C15.7649 46.9994 20.5099 45.0872 28.3573 41.3915C26.8658 35.9712 23.2443 29.393 20.1947 33.1505Z" fill="#EA7C21"/>
<path d="M36.0395 28.7859C35.8457 30.6028 34.1357 31.9094 32.22 31.7043C30.3043 31.4991 28.9084 29.8599 29.1022 28.043C29.296 26.2261 31.0061 24.9195 32.9218 25.1246C34.8375 25.3298 36.2333 26.969 36.0395 28.7859Z" fill="#3F3F3F"/>
<path d="M21.8754 27.7188C21.7328 29.0549 20.4753 30.0157 19.0665 29.8649C17.6578 29.714 16.6313 28.5086 16.7738 27.1725C16.9163 25.8363 18.1739 24.8755 19.5826 25.0263C20.9914 25.1772 22.0179 26.3826 21.8754 27.7188Z" fill="#3F3F3F"/>
<path d="M50.8049 137.78H59.4293L61.1894 141.447L53.269 144.328L43.9405 141.447L50.8049 137.78Z" fill="#FB923C"/>
<path d="M55.129 132.869H58.6254V139.651H55.129V132.869Z" fill="#FB923C"/>
<path d="M0 45.3281C11.3684 44.9788 17.3413 43.4955 27.5 39.3281L28.5 41.8281V44.3281C19.1132 48.3808 13.5107 49.2908 3 48.8281L0 47.3281V45.3281Z" fill="#F93535" fill-opacity="0.6"/>
<path d="M16.2253 22.0549C16.5392 21.3169 16.7084 21.1808 16.9957 21.7486C16.8911 23.4957 16.958 24.4395 17.9109 25.8751L17.1405 26.1814C16.5981 24.7673 15.9553 24.3349 16.2253 22.0549Z" fill="#3F3F3F"/>
<path d="M17.9968 21.9686C18.3754 21.2872 18.5557 21.1796 18.7893 21.79C18.5268 23.5071 18.5076 24.4548 19.323 26.0349L18.5305 26.2135C18.1205 24.7216 17.5218 24.1877 17.9968 21.9686Z" fill="#3F3F3F"/>
<path d="M20.1415 21.8791C20.6805 21.4314 20.8777 21.42 20.9276 22.1026C20.2125 23.5707 19.9346 24.4427 20.2596 26.3133L19.4735 26.0897C19.5014 24.5004 19.0909 23.7094 20.1415 21.8791Z" fill="#3F3F3F"/>
<path d="M29.5356 21.2313C29.8948 20.3465 30.0884 20.1833 30.4173 20.8641C30.2976 22.9588 30.3742 24.0904 31.4646 25.8115L30.583 26.1788C29.9622 24.4834 29.2266 23.9649 29.5356 21.2313Z" fill="#3F3F3F"/>
<path d="M31.5629 21.1279C31.9962 20.3109 32.2025 20.1819 32.4699 20.9137C32.1695 22.9725 32.1474 24.1087 33.0806 26.0031L32.1737 26.2173C31.7045 24.4285 31.0192 23.7884 31.5629 21.1279Z" fill="#3F3F3F"/>
<path d="M34.0174 21.0201C34.6343 20.4834 34.86 20.4698 34.9171 21.2882C34.0987 23.0483 33.7807 24.0938 34.1526 26.3365L33.253 26.0685C33.2849 24.163 32.8151 23.2146 34.0174 21.0201Z" fill="#3F3F3F"/>
<path fill-rule="evenodd" clip-rule="evenodd" d="M50.1867 36.3818L48.8846 40.3139C48.3491 40.1788 48.0244 39.6352 48.1595 39.0997L48.9052 36.1423C47.8554 35.6387 47.2693 34.4504 47.565 33.2776C47.9026 31.9388 49.2616 31.1272 50.6004 31.4648C51.9892 33.0135 52.1008 34.0145 51.1005 35.3481C50.8596 35.6693 50.5542 36.0097 50.1867 36.3818Z" fill="white"/>
<path d="M48.8846 40.3139C49.4201 40.4489 49.9637 40.1242 50.0988 39.5887L50.9545 36.1951C50.7125 36.2967 50.4536 36.3606 50.1867 36.3818L48.8846 40.3139Z" fill="#E3DADA"/>
<path d="M50.1867 36.3818C50.4536 36.3606 50.7125 36.2967 50.9545 36.1951L51.0768 35.7101C51.1076 35.5882 51.1145 35.4659 51.1005 35.3481C50.8596 35.6693 50.5542 36.0097 50.1867 36.3818Z" fill="#E3DADA"/>
<path d="M52.4132 34.5002C52.7508 33.1614 51.9392 31.8024 50.6004 31.4648C51.9892 33.0135 52.1008 34.0145 51.1005 35.3481C51.1145 35.4659 51.1076 35.5882 51.0768 35.7101L50.9545 36.1951C51.6548 35.9014 52.2132 35.2933 52.4132 34.5002Z" fill="#E3DADA"/>
<path d="M50.665 84.2373L43.165 90.7373L44.3873 93.7373L44.9984 95.2373L52.665 88.7373L70.665 82.0045L66.165 77.7373L50.665 84.2373Z" fill="#060606"/>
<path d="M42.165 90.7373L32.665 85.2373L30.165 89.7373L38.665 95.2373L40.165 93.3087L42.165 90.7373Z" fill="#060606"/>
<path d="M82.165 105.237H95.165L70.665 82.0045L52.665 88.7373L44.9984 95.2373L54.165 117.737L59.665 111.737L67.665 123.737L72.165 106.237L82.165 114.237V105.237Z" fill="#191919"/>
<path d="M38.665 95.2373L30.165 89.7373L21.165 106.737L22.665 106.237L21.665 117.737L23.665 114.237L26.165 110.237V115.237L30.165 107.737L33.665 114.237L38.665 95.2373Z" fill="#191919"/>
<path d="M43.165 90.7373H42.165L40.165 93.3087V95.2373L37.665 109.237L41.165 114.237L45.665 109.237L44.165 95.2373L44.3873 93.7373L43.165 90.7373Z" fill="#383535"/>
<path d="M11.1653 9.23716L50.6653 12.2374L70.1652 5.73737L36.1652 3.5555L11.1653 9.23716Z" fill="#D7894A"/>
<path d="M50.6653 12.2374L50.6653 68.2374L57.6652 61.0771L58.6652 58.2374L61.1652 61.0771L67.1652 58.2374L75.1652 61.0771L70.1652 5.73737L50.6653 12.2374Z" fill="#D7894A"/>
<path fill-rule="evenodd" clip-rule="evenodd" d="M50.6653 12.2374L11.1653 9.23716L10.1064 36.2371L12.6652 35.2371L12.6652 36.2371L15.1652 36.2371L15.1652 38.7371L16.6652 42.2371L15.1652 42.2371L16.6652 45.2371L15.1652 45.2371L16.1652 47.2371L14.1652 47.2371L15.1652 50.2371L11.6652 49.7371L11.1653 51.2371L9.51817 51.2371L9.16523 60.2371L50.6653 68.2374L50.6653 12.2374ZM29.6652 20.2374L29.6652 22.7374L27.6652 25.7374L28.1652 27.2374L27.6652 31.7374L30.1652 31.7374L31.6652 34.2374L36.1652 32.7374L40.1652 32.7374L37.6652 30.2374L40.1652 26.7374L38.6652 20.2374L34.1652 21.2374L29.6652 20.2374ZM19.6652 22.2374L16.6652 21.2374L16.6652 24.2374L15.1652 24.7374L16.6652 30.2374L19.6652 30.2374L20.6652 31.2374L23.6652 28.7374L26.1652 28.2374L23.6652 24.2374L24.1652 22.7374L19.6652 22.2374Z" fill="#FB923C"/>
</svg>
