<svg width="103" height="144" viewBox="0 0 103 144" fill="none" xmlns="http://www.w3.org/2000/svg">
<path d="M36.6547 134.143H45.2792L47.0393 137.81L39.1189 140.691L29.7904 137.81L36.6547 134.143Z" fill="#FB923C"/>
<path d="M40.9788 129.232H44.4752V136.014H40.9788V129.232Z" fill="#FB923C"/>
<path d="M50.5357 99.6494L63.4723 112.745L85.2665 110.874L60.0925 117.189L50.5357 99.6494Z" fill="#776F6F"/>
<path fill-rule="evenodd" clip-rule="evenodd" d="M1.14631 45.0914C8.0668 49.6271 23.0761 48.8986 25.4196 48.754C25.627 48.7412 25.8125 48.6562 25.9596 48.5148C28.7682 45.8157 29.7554 43.8887 29.3573 39.3915C21.5099 43.0872 16.7649 44.9994 1.14631 45.0914Z" fill="#FB923C"/>
<path d="M21.1947 31.1505C18.1451 34.908 -0.847614 39.4979 1.14631 45.0914C16.7649 44.9994 21.5099 43.0872 29.3573 39.3915C27.8658 33.9712 24.2443 27.393 21.1947 31.1505Z" fill="#EA7C21"/>
<path d="M37.0395 26.7859C36.8457 28.6028 35.1357 29.9094 33.22 29.7043C31.3043 29.4991 29.9084 27.8599 30.1022 26.043C30.296 24.2261 32.0061 22.9195 33.9218 23.1246C35.8375 23.3298 37.2333 24.969 37.0395 26.7859Z" fill="#3F3F3F"/>
<path d="M22.8754 25.7188C22.7328 27.0549 21.4753 28.0157 20.0665 27.8649C18.6578 27.714 17.6313 26.5086 17.7738 25.1725C17.9163 23.8363 19.1739 22.8755 20.5826 23.0263C21.9914 23.1772 23.0179 24.3826 22.8754 25.7188Z" fill="#3F3F3F"/>
<path d="M51.8049 135.78H60.4293L62.1894 139.447L54.269 142.328L44.9405 139.447L51.8049 135.78Z" fill="#FB923C"/>
<path d="M56.129 130.869H59.6254V137.651H56.129V130.869Z" fill="#FB923C"/>
<path d="M36.5296 133.643L36.4192 133.702L35.5611 134.161L35.7967 134.602L34.0806 135.518L33.845 135.077L32.1289 135.994L32.3645 136.435L30.6484 137.352L30.4129 136.911L29.5548 137.369L28.4973 137.934L29.6429 138.288L30.8089 138.648L30.9565 138.17L33.2886 138.891L33.141 139.368L35.4731 140.089L35.6207 139.611L37.9528 140.331L37.8053 140.809L38.9713 141.169L39.1319 141.219L39.2898 141.161L40.2798 140.801L40.1089 140.331L42.089 139.611L42.2599 140.081L43.6549 139.573L44.793 139.925L45.959 140.285L46.1066 139.807L48.4387 140.527L48.2912 141.005L50.6233 141.725L50.7708 141.248L53.1029 141.968L52.9554 142.446L54.1214 142.806L54.282 142.855L54.4399 142.798L55.43 142.438L55.259 141.968L57.2391 141.248L57.4101 141.718L59.3902 140.997L59.2192 140.527L61.1993 139.807L61.3703 140.277L62.3603 139.917L62.879 139.728L62.6402 139.231L62.2001 138.314L61.7494 138.53L60.8693 136.697L61.3201 136.481L60.8801 135.564L60.7439 135.28H60.4293H59.6254V135.108H60.1254V134.681C60.487 134.655 60.8499 134.625 61.2139 134.59L61.1665 134.092C61.8129 134.031 62.4632 133.956 63.1163 133.867L63.1835 134.362C63.8339 134.274 64.4869 134.173 65.1415 134.059L65.0559 133.567C65.697 133.455 66.3397 133.332 66.9832 133.197L67.086 133.686C67.729 133.551 68.3725 133.404 69.0156 133.246L68.8965 132.761C69.5297 132.606 70.1626 132.439 70.7942 132.263L70.9288 132.744C71.5624 132.567 72.1947 132.38 72.8248 132.182L72.6753 131.705C73.2987 131.51 73.9201 131.304 74.5383 131.09L74.7024 131.562C75.325 131.346 75.9446 131.12 76.5602 130.885L76.382 130.418C76.9939 130.185 77.6017 129.942 78.2047 129.691L78.3969 130.153C79.0068 129.899 79.6117 129.636 80.2108 129.365L80.0047 128.91C80.6028 128.639 81.1949 128.361 81.7801 128.074L82.0001 128.523C82.595 128.231 83.1828 127.932 83.7627 127.624L83.5285 127.182C84.11 126.874 84.6832 126.558 85.2473 126.235L85.4959 126.669C86.0726 126.338 86.6398 126 87.1967 125.655L86.9331 125.23C87.4939 124.882 88.0439 124.527 88.5819 124.165L88.8609 124.58C89.4146 124.208 89.956 123.828 90.4838 123.442L90.1885 123.038C90.7225 122.647 91.2422 122.25 91.7466 121.846L92.0591 122.236C92.5822 121.818 93.0892 121.392 93.5787 120.96L93.2479 120.585C93.7452 120.146 94.224 119.701 94.6827 119.25L95.0332 119.607C95.5156 119.133 95.9766 118.652 96.4146 118.166L96.0429 117.831C96.4891 117.335 96.9105 116.834 97.3051 116.328L97.6994 116.635C98.1171 116.099 98.5062 115.557 98.8642 115.009L98.4458 114.736C98.8119 114.176 99.1443 113.611 99.4406 113.043L99.8839 113.274C100.201 112.666 100.479 112.052 100.714 111.433L100.247 111.255C100.484 110.633 100.675 110.008 100.818 109.381L101.306 109.493C101.382 109.16 101.445 108.827 101.495 108.493L101.65 107.448L100.743 107.99C100.476 108.15 100.213 108.286 99.9532 108.401L100.155 108.858C99.5406 109.13 98.9344 109.293 98.3346 109.358L98.2806 108.861C97.7032 108.924 97.1305 108.887 96.5581 108.76L96.4496 109.248C95.8539 109.116 95.2628 108.894 94.6744 108.594L94.9016 108.148C94.3938 107.889 93.8829 107.566 93.3676 107.183L93.0697 107.585C92.5843 107.225 92.0995 106.817 91.6144 106.369L91.9537 106.002C91.516 105.597 91.0762 105.157 90.6335 104.685L90.269 105.027C89.8497 104.581 89.4293 104.108 89.0071 103.613L89.3875 103.288C88.9911 102.824 88.5924 102.338 88.1908 101.836L87.8002 102.148C87.413 101.663 87.0237 101.163 86.6319 100.651L87.029 100.347C86.6521 99.8549 86.2725 99.3506 85.8896 98.8369L85.4887 99.1358C85.1152 98.6347 84.739 98.1254 84.3596 97.6102L84.7622 97.3137C84.702 97.232 84.6417 97.1502 84.5814 97.0682C84.4547 96.896 84.3275 96.7231 84.2 96.5497C84.0169 96.3007 83.8234 96.0459 83.6209 95.7861L83.2266 96.0935C82.8573 95.62 82.4559 95.128 82.0294 94.6232L82.4114 94.3006C82.0129 93.8289 81.5932 93.3467 81.1579 92.8584L80.7847 93.1911C80.372 92.7281 79.9449 92.2592 79.5081 91.788L79.8748 91.4481C79.4472 90.9868 79.0105 90.5235 78.5693 90.062L78.2079 90.4075C77.7713 89.9508 77.3301 89.4955 76.8888 89.0452L77.2459 88.6952C76.7983 88.2385 76.3507 87.7871 75.9076 87.3444L75.5542 87.6981C75.0988 87.2431 74.6481 86.7974 74.207 86.3647L74.5571 86.0078C74.0897 85.5493 73.6332 85.1056 73.1934 84.6813L72.8462 85.0412C72.3667 84.5785 71.907 84.139 71.475 83.7285L71.8194 83.366C71.317 82.8888 70.8519 82.4509 70.436 82.0618L70.0944 82.4269C69.5305 81.8993 69.0574 81.4616 68.7052 81.1376L69.0437 80.7696C68.8214 80.5651 68.647 80.4056 68.5281 80.2972L68.4256 80.204C68.4101 80.168 68.3904 80.1223 68.3669 80.0672C68.3011 79.9134 68.2051 79.6868 68.0849 79.3971L67.6231 79.5888C67.4285 79.1198 67.1712 78.4873 66.8764 77.732L67.3422 77.5502C67.1239 76.991 66.885 76.3641 66.6357 75.6862L66.1664 75.8588C65.9483 75.2659 65.7224 74.6341 65.4953 73.9745L65.9681 73.8117C65.7584 73.2028 65.548 72.5702 65.342 71.9228L64.8656 72.0743C64.6661 71.4473 64.4708 70.8061 64.2846 70.1587L64.7651 70.0205C64.5822 69.3847 64.4083 68.7436 64.248 68.1045L63.763 68.2262C63.5987 67.5716 63.4485 66.9185 63.3171 66.275L63.4622 66.2453L63.7276 66.2304C63.7268 66.2175 63.7261 66.2046 63.7253 66.1916L63.8069 66.1749C63.7435 65.864 63.6845 65.5557 63.6307 65.2509C63.5885 64.9406 63.5571 64.637 63.5357 64.3396L63.4842 64.3433C63.4789 64.3066 63.4736 64.27 63.4685 64.2335L63.0314 64.2951C62.9893 63.6602 62.9911 63.0507 63.0309 62.461L63.5298 62.4947C63.5722 61.8662 63.6597 61.2607 63.7848 60.671L63.3056 60.5694C63.3084 60.5398 63.3112 60.5103 63.3142 60.4811C63.4452 59.882 63.6132 59.2992 63.8107 58.7258L64.2835 58.8887C64.4844 58.3055 64.7177 57.7299 64.9758 57.1533L64.8266 57.0866C64.8493 57.0374 64.8712 56.9874 64.8922 56.9367L64.5827 56.8086C64.8223 56.2812 65.0805 55.7552 65.3511 55.225L65.7965 55.4523C66.0793 54.8981 66.3761 54.3385 66.6814 53.7637L66.2398 53.5291C66.2503 53.5094 66.2607 53.4897 66.2712 53.47C66.5543 52.937 66.8426 52.3941 67.1304 51.836L67.5748 52.0651C67.8626 51.5071 68.1507 50.9322 68.433 50.3358L67.9811 50.1219C68.2475 49.5589 68.5083 48.9776 68.7584 48.3732L69.2204 48.5644C69.4615 47.9818 69.6932 47.3774 69.9109 46.7476L69.4384 46.5842C69.6412 45.9976 69.8315 45.3889 70.0058 44.7548L70.488 44.8873C70.6548 44.2804 70.8072 43.6507 70.9421 42.9955L70.4524 42.8947C70.5768 42.2899 70.6862 41.663 70.7778 41.0115L71.2729 41.0812C71.3606 40.458 71.4324 39.8132 71.4861 39.1447L70.9877 39.1047C71.0371 38.4903 71.071 37.8553 71.0879 37.1983L71.5877 37.2111C71.5959 36.8905 71.6001 36.5648 71.6001 36.2339C71.6001 35.8954 71.5946 35.5574 71.5836 35.22L71.0839 35.2362C71.0623 34.5702 71.0192 33.9067 70.9555 33.2468L71.4531 33.1987C71.388 32.5247 71.3016 31.8545 71.1947 31.1892L70.701 31.2686C70.5953 30.6109 70.4692 29.9579 70.3235 29.3108L70.8113 29.201C70.6626 28.5409 70.4939 27.8869 70.3058 27.2401L69.8257 27.3797C69.6396 26.7399 69.4344 26.1072 69.2106 25.4827L69.6813 25.3141C69.4532 24.6773 69.2061 24.0489 68.941 23.4301L68.4814 23.6271C68.2188 23.0143 67.9381 22.4111 67.6402 21.8185L68.0869 21.5939C67.7829 20.9893 67.4612 20.3956 67.1225 19.8141L66.6905 20.0657C66.3548 19.4892 66.0022 18.925 65.6336 18.3741L66.0492 18.096C65.6724 17.5329 65.2791 16.9835 64.87 16.4489L64.4729 16.7528C64.0674 16.2229 63.6462 15.708 63.2102 15.2093L63.5866 14.8802C63.14 14.3695 62.6781 13.8754 62.2015 13.3992L61.8481 13.7529C61.3761 13.2812 60.8896 12.8276 60.3897 12.3933L60.7176 12.0158C60.2047 11.5704 59.6778 11.1448 59.1375 10.7405L58.838 11.1408C58.3039 10.7412 57.757 10.3628 57.1979 10.0072L57.4663 9.58531C56.8928 9.2205 56.3067 8.87896 55.7087 8.56218L55.4747 9.004C54.8862 8.69221 54.2864 8.40502 53.6761 8.14385L53.8728 7.68418C53.2484 7.41693 52.6131 7.17626 51.9678 6.96367L51.8113 7.43856C51.1808 7.23081 50.5407 7.05055 49.8922 6.89919L50.0058 6.41227C49.346 6.25828 48.6774 6.13351 48.0011 6.03943L47.9322 6.53467C47.2776 6.44362 46.6157 6.38199 45.9474 6.35114L45.9705 5.85167C45.6316 5.83603 45.2911 5.82812 44.9491 5.82812C44.6061 5.82812 44.2646 5.83552 43.9246 5.85018L43.9462 6.34972C43.2743 6.37869 42.6089 6.43665 41.9509 6.52254L41.8862 6.02674C41.2062 6.1155 40.534 6.23345 39.8705 6.37946L39.978 6.86778C39.3237 7.01176 38.6782 7.18362 38.0423 7.38224L37.8932 6.90498C37.2413 7.10862 36.5994 7.33975 35.9686 7.59719L36.1575 8.06012C35.5393 8.31242 34.9319 8.59057 34.3362 8.89344L34.1096 8.44773C33.5029 8.75616 32.9084 9.08963 32.3269 9.44694L32.5887 9.87294C32.0212 10.2217 31.4663 10.5936 30.9249 10.9877L30.6306 10.5835C30.0819 10.9829 29.5471 11.4046 29.027 11.8472L29.351 12.228C28.8446 12.659 28.3523 13.1105 27.8751 13.5813L27.5239 13.2254C27.0419 13.701 26.575 14.196 26.1242 14.7091L26.4999 15.0391C26.0614 15.5383 25.6383 16.0551 25.2315 16.5886L24.8339 16.2854C24.424 16.8231 24.0304 17.3772 23.654 17.9469L24.0712 18.2225C23.7051 18.7766 23.3554 19.3458 23.0231 19.929L22.5887 19.6815C22.2545 20.2681 21.9375 20.8686 21.6386 21.4821L22.0881 21.7011C21.9147 22.0571 21.7474 22.4177 21.5865 22.7825C21.2924 22.6525 20.9728 22.5653 20.6359 22.5292C20.2369 22.4865 19.8465 22.5191 19.481 22.616L19.6092 23.0993C18.9575 23.2721 18.4048 23.6869 18.0779 24.2468L17.6461 23.9947C17.4497 24.331 17.3202 24.7111 17.2766 25.1194C17.2331 25.5278 17.2795 25.9268 17.4005 26.297L17.8758 26.1417C18.0773 26.7581 18.5299 27.2805 19.1303 27.5874L18.9028 28.0326C19.0122 28.0886 19.1256 28.1384 19.2426 28.1817C19.1643 28.5076 19.0907 28.8358 19.0218 29.166L19.5113 29.2681C19.3758 29.9177 19.2588 30.5755 19.161 31.2407L18.6663 31.168C18.5904 31.685 18.5258 32.2063 18.473 32.7318L18.3953 32.5926C17.8333 32.9061 17.2063 33.2267 16.5311 33.5547L16.7496 34.0045C16.1379 34.3017 15.4902 34.6033 14.8199 34.9094L14.6122 34.4546C13.9923 34.7377 13.3527 35.0249 12.7027 35.3167L12.6762 35.3286L12.881 35.7847C12.2394 36.0728 11.5894 36.3646 10.9414 36.6604L10.7338 36.2055C10.0836 36.5022 9.43407 36.8034 8.79605 37.1088L9.01198 37.5598C8.36004 37.872 7.72099 38.1882 7.10601 38.5087L6.87494 38.0653C6.21694 38.4082 5.58364 38.7572 4.98925 39.1123L5.24566 39.5415C4.59943 39.9276 4.0025 40.3194 3.47285 40.7172L3.17257 40.3174C2.52764 40.8018 1.96466 41.3055 1.52441 41.8302L1.90742 42.1516C1.38972 42.7685 1.07058 43.3989 1.0104 44.0431L0.512566 43.9966C0.493974 44.1956 0.495903 44.3953 0.519078 44.5951L-0.513814 44.6012L0.731741 45.4176L0.79447 45.5935L1.00012 45.5923C1.25589 45.7555 1.52103 45.9114 1.79451 46.0605L2.03387 45.6215C2.62025 45.9413 3.25034 46.2307 3.9144 46.4925L3.73101 46.9576C4.37295 47.2107 5.04381 47.4378 5.73488 47.6416L5.87631 47.1621C6.52734 47.3541 7.19868 47.5256 7.8831 47.6787L7.77396 48.1666C8.45139 48.3181 9.14054 48.4516 9.83452 48.5691L9.91797 48.0761C10.5983 48.1913 11.2843 48.291 11.9694 48.3772L11.907 48.8733C12.6034 48.9609 13.2985 49.0346 13.9855 49.0962L14.0302 48.5982C14.7301 48.661 15.422 48.7113 16.0987 48.7511L16.0693 49.2502C16.7846 49.2923 17.4827 49.3227 18.1554 49.3438L18.1711 48.844C18.8944 48.8667 19.5883 48.8787 20.2422 48.8828L20.239 49.3828C20.9917 49.3876 21.6916 49.3821 22.323 49.3708L22.314 48.8709C23.1333 48.8563 23.8364 48.8319 24.3881 48.8077L24.41 49.3072C24.6269 49.2977 24.8207 49.2882 24.9893 49.2793C25.1798 49.4887 25.3719 49.6967 25.5652 49.9033L25.2001 50.2449C25.6801 50.7579 26.1665 51.262 26.6522 51.7585L27.0096 51.4089C27.4012 51.8091 27.7932 52.2053 28.182 52.5983L28.182 52.5983C28.2799 52.6973 28.3776 52.796 28.475 52.8945L28.1195 53.2461C28.6147 53.747 29.1017 54.2414 29.5744 54.7326L29.9347 54.3859C30.4263 54.8967 30.9032 55.4047 31.3574 55.9122L30.9848 56.2456C31.4551 56.771 31.8985 57.2934 32.3067 57.8156L32.7006 57.5077C33.1421 58.0724 33.5452 58.6395 33.8989 59.2119L33.4736 59.4747C33.8389 60.0659 34.1463 60.6575 34.3856 61.2536L34.8496 61.0673C34.9349 61.2796 35.0121 61.493 35.0809 61.7077C35.0808 61.7133 35.0808 61.7189 35.0808 61.7245L35.0862 61.7245C35.2274 62.1684 35.3323 62.6178 35.3963 63.0741L34.9012 63.1435C34.9461 63.4638 34.9694 63.7871 34.9694 64.1142C34.9694 64.5339 34.9822 64.9224 35.0074 65.2815L35.0684 65.2772C35.0677 65.4198 35.067 65.562 35.0662 65.7036L35.5472 65.7064C35.5529 65.7585 35.5589 65.8098 35.5653 65.8604C35.5617 66.4493 35.5572 67.0303 35.5512 67.6022L35.4885 67.6286C35.4981 67.6513 35.5078 67.6737 35.5177 67.6959L35.0502 67.6909C35.0429 68.3663 35.0334 69.0285 35.0207 69.6754L35.5206 69.6852C35.5074 70.3646 35.4907 71.0275 35.4695 71.6715L34.9698 71.6551C34.9474 72.3355 34.92 72.994 34.8863 73.6278L35.3856 73.6543C35.3486 74.3495 35.3042 75.0158 35.2505 75.6497L34.7523 75.6075C34.7242 75.9394 34.6936 76.2618 34.6603 76.5743C34.6263 76.8928 34.5861 77.2079 34.5402 77.5197L35.0349 77.5925C34.9393 78.2418 34.8193 78.8764 34.679 79.4965L34.1913 79.3861C34.0491 80.0146 33.8853 80.6285 33.7043 81.2279L34.183 81.3724C33.9933 82.0004 33.7852 82.6121 33.5633 83.2079L33.0948 83.0334C32.8686 83.6407 32.6278 84.2317 32.3772 84.8068L32.8356 85.0065C32.5721 85.6115 32.2984 86.1981 32.0204 86.7665L31.5712 86.5469C31.2833 87.1359 30.9903 87.706 30.6988 88.2579L31.1409 88.4915C30.8285 89.0828 30.5186 89.6519 30.2191 90.1991L29.7805 89.959C29.7283 90.0545 29.6763 90.1495 29.6246 90.2439C29.3558 90.7346 29.0954 91.2102 28.8511 91.6676L28.9398 91.715C28.767 91.9308 28.5974 92.1484 28.4311 92.3675L28.8294 92.6698C28.6136 92.9541 28.4035 93.2411 28.1992 93.5306L27.9652 93.4221C27.8228 93.7292 27.6923 94.0298 27.577 94.3236L27.2158 94.0864C26.8281 94.677 26.4639 95.2772 26.1243 95.8858L26.561 96.1294C26.2223 96.7367 25.9088 97.3522 25.6218 97.9747L25.1678 97.7654C24.8714 98.4083 24.6026 99.0589 24.3629 99.716L24.8326 99.8874C24.5946 100.539 24.386 101.198 24.208 101.86L23.7251 101.731C23.5414 102.415 23.3896 103.104 23.2711 103.797L23.764 103.881C23.6475 104.563 23.5641 105.248 23.5153 105.935L23.0166 105.9C22.9915 106.252 22.9753 106.606 22.9682 106.959C22.9615 107.297 22.9624 107.633 22.9709 107.968L23.4708 107.955C23.4875 108.616 23.5344 109.27 23.6104 109.919L23.1138 109.977C23.1923 110.647 23.3012 111.31 23.4392 111.965L23.9285 111.862C24.0639 112.505 24.2282 113.141 24.4202 113.768L23.9421 113.915C24.1383 114.556 24.3628 115.188 24.6144 115.811L25.078 115.624C25.3233 116.231 25.595 116.829 25.8921 117.417L25.4458 117.643C25.7467 118.238 26.0728 118.823 26.4232 119.397L26.8499 119.137C27.1904 119.694 27.5544 120.241 27.9408 120.777L27.5354 121.07C27.9243 121.609 28.3354 122.136 28.7675 122.651L29.1506 122.33C29.5698 122.829 30.0095 123.317 30.4687 123.793L30.109 124.14C30.57 124.618 31.05 125.082 31.5482 125.534L31.8839 125.163C32.3667 125.601 32.867 126.026 33.3839 126.438L33.0724 126.829C33.5905 127.241 34.125 127.641 34.6748 128.027L34.9619 127.617C35.4957 127.991 36.0444 128.353 36.6073 128.7L36.3447 129.125C36.9074 129.473 37.4838 129.806 38.0732 130.125L38.3112 129.685C38.8847 129.996 39.4708 130.292 40.0688 130.575L39.8554 131.027C40.2255 131.201 40.6 131.371 40.9788 131.535V131.776H40.4788V133.471H40.9788V133.643H39.8889V134.143H37.7328V133.643H36.6547H36.5296ZM44.2077 139.272L44.0691 138.891L46.0492 138.17L46.2201 138.64L46.9436 138.377L45.7986 138.989L45.563 138.548L44.7049 139.006L44.2077 139.272ZM47.05 136.677L46.5992 136.893L45.7192 135.06L46.17 134.844L45.7299 133.927L45.5938 133.643H45.2792H44.4752V133.471H44.9752V133.003C45.1323 133.051 45.29 133.099 45.4482 133.145L45.5887 132.665C46.2147 132.848 46.8495 133.017 47.4924 133.171L47.376 133.657C48.0187 133.811 48.6692 133.95 49.3271 134.074L49.4196 133.582C50.0605 133.703 50.7086 133.809 51.3632 133.9L51.2946 134.395C51.9481 134.485 52.608 134.561 53.2738 134.621L53.3189 134.123C53.9682 134.182 54.6232 134.226 55.2834 134.255L55.2617 134.754C55.3839 134.76 55.5064 134.764 55.629 134.769V135.108H56.129V135.28H55.039V135.78H52.8829V135.28H51.8049H51.6797L51.5693 135.339L50.7112 135.798L50.9468 136.239L49.2307 137.155L48.9952 136.714L47.4612 137.534L47.05 136.677Z" stroke="black" stroke-dasharray="2 2"/>
<path d="M49.665 84.2373L42.165 90.7373L43.3873 93.7373L43.9984 95.2373L51.665 88.7373L69.665 82.0045L65.165 77.7373L49.665 84.2373Z" fill="#060606"/>
<path d="M41.165 90.7373L31.665 85.2373L29.165 89.7373L37.665 95.2373L39.165 93.3087L41.165 90.7373Z" fill="#060606"/>
<path d="M81.165 105.237H94.165L69.665 82.0045L51.665 88.7373L43.9984 95.2373L53.165 117.737L58.665 111.737L66.665 123.737L71.165 106.237L81.165 114.237V105.237Z" fill="#191919"/>
<path d="M37.665 95.2373L29.165 89.7373L20.165 106.737L21.665 106.237L20.665 117.737L22.665 114.237L25.165 110.237V115.237L29.165 107.737L32.665 114.237L37.665 95.2373Z" fill="#191919"/>
<path d="M42.165 90.7373H41.165L39.165 93.3087V95.2373L36.665 109.237L40.165 114.237L44.665 109.237L43.165 95.2373L43.3873 93.7373L42.165 90.7373Z" fill="#383535"/>
<path d="M10.1653 9.23716L49.6653 12.2374L69.1652 5.73737L35.1652 3.5555L10.1653 9.23716Z" fill="#D7894A"/>
<path d="M49.6653 12.2374L49.6653 68.2374L56.6652 61.0771L57.6652 58.2374L60.1652 61.0771L66.1652 58.2374L74.1652 61.0771L69.1652 5.73737L49.6653 12.2374Z" fill="#D7894A"/>
<path fill-rule="evenodd" clip-rule="evenodd" d="M49.6653 12.2374L10.1653 9.23716L9.10642 36.2371L11.6652 35.2371L11.6652 36.2371L14.1652 36.2371L14.1652 38.7371L15.6652 42.2371L14.1652 42.2371L15.6652 45.2371L14.1652 45.2371L15.1652 47.2371L13.1652 47.2371L14.1652 50.2371L10.6652 49.7371L10.1653 51.2371L8.51817 51.2371L8.16523 60.2371L49.6653 68.2374L49.6653 12.2374ZM28.6652 20.2374L28.6652 22.7374L26.6652 25.7374L27.1652 27.2374L26.6652 31.7374L29.1652 31.7374L30.6652 34.2374L35.1652 32.7374L39.1652 32.7374L36.6652 30.2374L39.1652 26.7374L37.6652 20.2374L33.1652 21.2374L28.6652 20.2374ZM18.6652 22.2374L15.6652 21.2374L15.6652 24.2374L14.1652 24.7374L15.6652 30.2374L18.6652 30.2374L19.6652 31.2374L22.6652 28.7374L25.1652 28.2374L22.6652 24.2374L23.1652 22.7374L18.6652 22.2374Z" fill="#FB923C"/>
</svg>
