<svg width="100" height="144" viewBox="0 0 100 144" fill="none" xmlns="http://www.w3.org/2000/svg">
<path d="M35.6547 135.143H44.2792L46.0393 138.81L38.1189 141.691L28.7904 138.81L35.6547 135.143Z" fill="#FB923C"/>
<path d="M39.9788 130.232H43.4752V137.014H39.9788V130.232Z" fill="#FB923C"/>
<path fill-rule="evenodd" clip-rule="evenodd" d="M55.2702 135.286C73.6815 135.658 98.0187 122.749 100 109.419C93.9642 113.03 88.7966 106.004 82.7972 97.8459C78.2569 91.6722 67.0099 81.5019 67.0099 81.5019C67.0099 81.5019 61.0256 79.1569 57.5773 79.4855C39.1659 79.1136 22.7635 93.2544 22.4681 107.969C22.1728 122.684 36.8588 134.914 55.2702 135.286ZM62.4723 113.745L49.5357 100.649L59.0925 118.189L84.2665 111.874L62.4723 113.745Z" fill="#FE8181"/>
<path d="M49.5357 100.649L62.4723 113.745L84.2665 111.874L59.0925 118.189L49.5357 100.649Z" fill="#C84646"/>
<path d="M70.1001 37.2339C70.1007 52.7146 60.7731 56.3281 62.1366 66.3281C63.5 76.3281 51.412 67.1397 43.9491 67.1397C40.6055 67.1397 34.4694 74.1764 34.4694 65.1142C34.4694 56.0521 17.7981 49.9268 17.7981 37.2339C17.7981 20.7174 29.5063 7.32813 43.9491 7.32812C58.3919 7.32812 70.0995 21.7533 70.1001 37.2339Z" fill="#FE8181"/>
<path d="M62.9096 58.5742C58.8094 62.8204 67.0099 81.5019 67.0099 81.5019C67.0099 81.5019 47.2219 103.117 34.1573 101.718C17.8307 99.9697 32.5738 92.4742 34.1575 77.6273C35.7411 62.7804 31.1325 26.7093 45.5844 26.7096C57.0254 26.7099 67.0099 54.3281 62.9096 58.5742Z" fill="#FE8181"/>
<path fill-rule="evenodd" clip-rule="evenodd" d="M0.146311 46.0914C7.0668 50.6271 22.0761 49.8986 24.4196 49.754C24.627 49.7412 24.8125 49.6562 24.9596 49.5148C27.7682 46.8157 28.7554 44.8887 28.3573 40.3915C20.5099 44.0872 15.7649 45.9994 0.146311 46.0914Z" fill="#FB923C"/>
<path d="M20.1947 32.1505C17.1451 35.908 -1.84761 40.4979 0.146311 46.0914C15.7649 45.9994 20.5099 44.0872 28.3573 40.3915C26.8658 34.9712 23.2443 28.393 20.1947 32.1505Z" fill="#EA7C21"/>
<path d="M36.0395 27.7859C35.8457 29.6028 34.1357 30.9094 32.22 30.7043C30.3043 30.4991 28.9084 28.8599 29.1022 27.043C29.296 25.2261 31.0061 23.9195 32.9218 24.1246C34.8375 24.3298 36.2333 25.969 36.0395 27.7859Z" fill="#3F3F3F"/>
<path d="M21.8754 26.7188C21.7328 28.0549 20.4753 29.0157 19.0665 28.8649C17.6578 28.714 16.6313 27.5086 16.7738 26.1725C16.9163 24.8363 18.1739 23.8755 19.5826 24.0263C20.9914 24.1772 22.0179 25.3826 21.8754 26.7188Z" fill="#3F3F3F"/>
<path d="M50.8049 136.78H59.4293L61.1894 140.447L53.269 143.328L43.9405 140.447L50.8049 136.78Z" fill="#FB923C"/>
<path d="M55.129 131.869H58.6254V138.651H55.129V131.869Z" fill="#FB923C"/>
<rect x="26.2256" y="30.458" width="8.40436" height="2" transform="rotate(50.5877 26.2256 30.458)" fill="#D9D9D9"/>
<rect x="14" y="32.8706" width="6.54889" height="2" transform="rotate(-32.7461 14 32.8706)" fill="#D9D9D9"/>
<path d="M23 55.8281L20.5 49.8281C24.9563 49.538 26.5842 48.539 28 45.3281L32.5 51.3281H29.5L31.5 56.3281H30L28.5 62.8281L26.5 56.3281L24.5 59.8281L23.5 52.8281L23 55.8281Z" fill="#D9D9D9"/>
<path d="M56.5 10.3281L53 8.82812L49.5 7.82812L55 10.8281H53.5L57.5 12.8281L56 13.3281L56.5 15.3281L51.5 11.3281L52 13.3281L48 11.8281L47.5 13.3281L44.5 12.3281L45 13.8281H41L42 14.8281L40 15.8281L46.5 17.8281L45.5 15.3281L50.5 18.8281L51 15.3281L55 19.8281V16.8281C56.1667 17.6615 58.7 19.5281 59.5 20.3281C60.3 21.1281 59.8333 19.6615 59.5 18.8281L64 21.8281V19.8281L68 21.8281L64.5 17.8281H66.5L61 14.3281L62.5 13.8281L58.5 11.8281L56.5 11.3281V10.3281Z" fill="#D9D9D9"/>
<path d="M49.665 84.2373L42.165 90.7373L43.3873 93.7373L43.9984 95.2373L51.665 88.7373L69.665 82.0045L65.165 77.7373L49.665 84.2373Z" fill="#060606"/>
<path d="M41.165 90.7373L31.665 85.2373L29.165 89.7373L37.665 95.2373L39.165 93.3087L41.165 90.7373Z" fill="#060606"/>
<path d="M81.165 105.237H94.165L69.665 82.0045L51.665 88.7373L43.9984 95.2373L53.165 117.737L58.665 111.737L66.665 123.737L71.165 106.237L81.165 114.237V105.237Z" fill="#191919"/>
<path d="M37.665 95.2373L29.165 89.7373L20.165 106.737L21.665 106.237L20.665 117.737L22.665 114.237L25.165 110.237V115.237L29.165 107.737L32.665 114.237L37.665 95.2373Z" fill="#191919"/>
<path d="M42.165 90.7373H41.165L39.165 93.3087V95.2373L36.665 109.237L40.165 114.237L44.665 109.237L43.165 95.2373L43.3873 93.7373L42.165 90.7373Z" fill="#383535"/>
<path d="M10.1653 9.23716L49.6653 12.2374L69.1652 5.73737L35.1652 3.5555L10.1653 9.23716Z" fill="#D7894A"/>
<path d="M49.6653 12.2374L49.6653 68.2374L56.6652 61.0771L57.6652 58.2374L60.1652 61.0771L66.1652 58.2374L74.1652 61.0771L69.1652 5.73737L49.6653 12.2374Z" fill="#D7894A"/>
<path fill-rule="evenodd" clip-rule="evenodd" d="M49.6653 12.2374L10.1653 9.23716L9.10642 36.2371L11.6652 35.2371L11.6652 36.2371L14.1652 36.2371L14.1652 38.7371L15.6652 42.2371L14.1652 42.2371L15.6652 45.2371L14.1652 45.2371L15.1652 47.2371L13.1652 47.2371L14.1652 50.2371L10.6652 49.7371L10.1653 51.2371L8.51817 51.2371L8.16523 60.2371L49.6653 68.2374L49.6653 12.2374ZM28.6652 20.2374L28.6652 22.7374L26.6652 25.7374L27.1652 27.2374L26.6652 31.7374L29.1652 31.7374L30.6652 34.2374L35.1652 32.7374L39.1652 32.7374L36.6652 30.2374L39.1652 26.7374L37.6652 20.2374L33.1652 21.2374L28.6652 20.2374ZM18.6652 22.2374L15.6652 21.2374L15.6652 24.2374L14.1652 24.7374L15.6652 30.2374L18.6652 30.2374L19.6652 31.2374L22.6652 28.7374L25.1652 28.2374L22.6652 24.2374L23.1652 22.7374L18.6652 22.2374Z" fill="#FB923C"/>
</svg>
