<svg width="100" height="144" viewBox="0 0 100 144" fill="none" xmlns="http://www.w3.org/2000/svg">
<path d="M35.6547 135.143H44.2792L46.0393 138.81L38.1189 141.691L28.7904 138.81L35.6547 135.143Z" fill="#FB923C"/>
<path d="M39.9788 130.232H43.4752V137.014H39.9788V130.232Z" fill="#FB923C"/>
<path fill-rule="evenodd" clip-rule="evenodd" d="M55.2702 135.286C73.6815 135.658 98.0187 122.749 100 109.419C93.9642 113.03 88.7966 106.004 82.7972 97.8459C78.2569 91.6722 67.0099 81.5019 67.0099 81.5019C67.0099 81.5019 61.0256 79.1569 57.5773 79.4855C39.1659 79.1136 22.7635 93.2544 22.4681 107.969C22.1728 122.684 36.8588 134.914 55.2702 135.286ZM62.4723 113.745L49.5357 100.649L59.0925 118.189L84.2665 111.874L62.4723 113.745Z" fill="#A1A1A1"/>
<path d="M49.5357 100.649L62.4723 113.745L84.2665 111.874L59.0925 118.189L49.5357 100.649Z" fill="#776F6F"/>
<path d="M70.1001 37.2339C70.1007 52.7146 60.7731 56.3281 62.1366 66.3281C63.5 76.3281 51.412 67.1397 43.9491 67.1397C40.6055 67.1397 34.4694 74.1764 34.4694 65.1142C34.4694 56.0521 17.7981 49.9268 17.7981 37.2339C17.7981 20.7174 29.5063 7.32813 43.9491 7.32812C58.3919 7.32812 70.0995 21.7533 70.1001 37.2339Z" fill="#A1A1A1"/>
<path d="M62.9096 58.5742C58.8094 62.8204 67.0099 81.5019 67.0099 81.5019C67.0099 81.5019 47.2219 103.117 34.1573 101.718C17.8307 99.9697 32.5738 92.4742 34.1575 77.6273C35.7411 62.7804 31.1325 26.7093 45.5844 26.7096C57.0254 26.7099 67.0099 54.3281 62.9096 58.5742Z" fill="#A1A1A1"/>
<path fill-rule="evenodd" clip-rule="evenodd" d="M0.146311 46.0914C7.0668 50.6271 22.0761 49.8986 24.4196 49.754C24.627 49.7412 24.8125 49.6562 24.9596 49.5148C27.7682 46.8157 28.7554 44.8887 28.3573 40.3915C20.5099 44.0872 15.7649 45.9994 0.146311 46.0914Z" fill="#FB923C"/>
<path d="M20.1947 32.1505C17.1451 35.908 -1.84761 40.4979 0.146311 46.0914C15.7649 45.9994 20.5099 44.0872 28.3573 40.3915C26.8658 34.9712 23.2443 28.393 20.1947 32.1505Z" fill="#EA7C21"/>
<path d="M36.0395 27.7859C35.8457 29.6028 34.1357 30.9094 32.22 30.7043C30.3043 30.4991 28.9084 28.8599 29.1022 27.043C29.296 25.2261 31.0061 23.9195 32.9218 24.1246C34.8375 24.3298 36.2333 25.969 36.0395 27.7859Z" fill="#3F3F3F"/>
<path d="M21.8754 26.7188C21.7328 28.0549 20.4753 29.0157 19.0665 28.8649C17.6578 28.714 16.6313 27.5086 16.7738 26.1725C16.9163 24.8363 18.1739 23.8755 19.5826 24.0263C20.9914 24.1772 22.0179 25.3826 21.8754 26.7188Z" fill="#3F3F3F"/>
<path d="M50.8049 136.78H59.4293L61.1894 140.447L53.269 143.328L43.9405 140.447L50.8049 136.78Z" fill="#FB923C"/>
<path d="M55.129 131.869H58.6254V138.651H55.129V131.869Z" fill="#FB923C"/>
<path d="M24.5674 13.4308C27.6522 8.24432 30.059 11.2281 35.7834 11.3281L36.1981 12.8288C30.0233 12.4161 28.4014 10.286 25.3618 15.0217L24.5674 13.4308Z" fill="#181515"/>
<path d="M25.977 8.25773C30.4967 4.25925 31.8788 7.83491 37.2999 9.67616L37.2371 11.2318C31.4824 8.95537 30.5875 6.43211 26.2483 10.0151L25.977 8.25773Z" fill="#181515"/>
<path d="M30.8969 4.88469C36.7008 3.23236 36.4017 7.05413 40.4946 11.0575L39.7656 12.4332C35.56 7.89322 35.8435 5.23103 30.382 6.58671L30.8969 4.88469Z" fill="#181515"/>
<path d="M25.2234 13.901C27.6164 9.87773 29.4834 12.1923 33.924 12.2699L34.2456 13.434C29.4556 13.1139 28.1975 11.4615 25.8396 15.1351L25.2234 13.901Z" fill="#181515"/>
<path d="M26.3173 9.88782C29.8234 6.78608 30.8955 9.55983 35.1009 10.9881L35.0521 12.1949C30.588 10.429 29.8938 8.47164 26.5278 11.2511L26.3173 9.88782Z" fill="#181515"/>
<path d="M30.1337 7.27122C34.6359 5.98946 34.4039 8.95412 37.5789 12.0597L37.0134 13.1268C33.751 9.60503 33.9709 7.53988 29.7343 8.59152L30.1337 7.27122Z" fill="#181515"/>
<path d="M29.1842 6.17609C34.5229 3.3629 35.018 7.16424 39.8482 10.238L39.4184 11.7344C34.3673 8.15882 34.096 5.49534 29.0312 7.94769L29.1842 6.17609Z" fill="#181515"/>
<path d="M33.0871 2.49995C39.0295 1.44911 38.3415 5.22033 42.0041 9.62089L41.1384 10.9149C37.4185 5.96906 37.9725 3.34975 32.4011 4.14047L33.0871 2.49995Z" fill="#181515"/>
<path d="M38.2606 1.17306C44.0735 2.79371 41.8232 5.8972 43.2241 11.4485L41.8842 12.2412C40.6672 6.17345 42.2989 4.05085 36.9329 2.35594L38.2606 1.17306Z" fill="#181515"/>
<path d="M29.4982 6.91963C33.6396 4.73735 34.0237 7.68617 37.7706 10.0706L37.4372 11.2314C33.5189 8.4577 33.3085 6.39156 29.3796 8.29392L29.4982 6.91963Z" fill="#181515"/>
<path d="M32.5261 4.06771C37.1358 3.25254 36.6021 6.178 39.4433 9.59164L38.7717 10.5954C35.8861 6.75881 36.3159 4.72693 31.9939 5.34031L32.5261 4.06771Z" fill="#181515"/>
<path d="M37.1471 3.82829C41.6563 5.08548 39.9107 7.49295 40.9975 11.7992L39.9581 12.4142C39.014 7.70725 40.2797 6.06068 36.1172 4.74589L37.1471 3.82829Z" fill="#181515"/>
<path d="M27.4742 15.115C30.0525 10.7802 32.0641 13.274 36.8485 13.3577L37.195 14.6119C32.0342 14.2669 30.6786 12.4866 28.1382 16.4447L27.4742 15.115Z" fill="#181515"/>
<path d="M28.6527 10.7917C32.4302 7.44982 33.5853 10.4383 38.1163 11.9772L38.0638 13.2774C33.254 11.3748 32.5061 9.26588 28.8795 12.2605L28.6527 10.7917Z" fill="#181515"/>
<path d="M32.7644 7.97241C37.6153 6.59141 37.3653 9.7856 40.7861 13.1316L40.1768 14.2814C36.6618 10.4869 36.8988 8.26187 32.3341 9.39494L32.7644 7.97241Z" fill="#181515"/>
<path d="M28.0227 15.5084C30.0227 12.1457 31.5831 14.0802 35.2946 14.1451L35.5634 15.118C31.56 14.8505 30.5084 13.4694 28.5377 16.5398L28.0227 15.5084Z" fill="#181515"/>
<path d="M28.9367 12.1539C31.867 9.56154 32.7631 11.8798 36.2779 13.0736L36.2371 14.0822C32.5061 12.6063 31.9259 10.9703 29.1126 13.2933L28.9367 12.1539Z" fill="#181515"/>
<path d="M32.1263 9.96718C35.8893 8.8959 35.6953 11.3737 38.349 13.9693L37.8763 14.8612C35.1496 11.9178 35.3335 10.1917 31.7925 11.0707L32.1263 9.96718Z" fill="#181515"/>
<path d="M31.333 9.05191C35.795 6.70067 36.2088 9.8778 40.2459 12.4468L39.8867 13.6975C35.665 10.7091 35.4382 8.48295 31.2051 10.5326L31.333 9.05191Z" fill="#181515"/>
<path d="M34.5948 5.9794C39.5614 5.10112 38.9864 8.25307 42.0476 11.931L41.324 13.0125C38.215 8.87885 38.678 6.68966 34.0214 7.35053L34.5948 5.9794Z" fill="#181515"/>
<path d="M38.9188 4.87025C43.7771 6.22477 41.8964 8.81864 43.0672 13.4583L41.9473 14.1209C40.9302 9.04953 42.2939 7.27548 37.8091 5.8589L38.9188 4.87025Z" fill="#181515"/>
<path d="M31.5952 9.67311C35.0565 7.84918 35.3775 10.3138 38.5092 12.3067L38.2305 13.2768C34.9556 10.9586 34.7797 9.23175 31.496 10.8217L31.5952 9.67311Z" fill="#181515"/>
<path d="M34.1261 7.28941C37.9788 6.6081 37.5328 9.05317 39.9074 11.9063L39.3462 12.7452C36.9344 9.53861 37.2936 7.84038 33.6813 8.35304L34.1261 7.28941Z" fill="#181515"/>
<path d="M37.9882 7.08931C41.7569 8.14006 40.298 10.1522 41.2062 13.7514L40.3375 14.2653C39.5485 10.3313 40.6064 8.95513 37.1274 7.85624L37.9882 7.08931Z" fill="#181515"/>
<path d="M56.8588 14.2791C54.2805 9.94429 52.2689 12.4381 47.4845 12.5217L47.138 13.7759C52.2988 13.431 53.6544 11.6507 56.1948 15.6088L56.8588 14.2791Z" fill="#181515"/>
<path d="M55.6803 9.95577C51.9028 6.61388 50.7477 9.60238 46.2167 11.1413L46.2692 12.4414C51.079 10.5389 51.8269 8.42994 55.4536 11.4246L55.6803 9.95577Z" fill="#181515"/>
<path d="M51.5686 7.13647C46.7177 5.75547 46.9677 8.94967 43.5469 12.2957L44.1562 13.4454C47.6712 9.65098 47.4342 7.42593 51.9989 8.559L51.5686 7.13647Z" fill="#181515"/>
<path d="M56.3103 14.6724C54.3103 11.3098 52.7499 13.2443 49.0384 13.3092L48.7696 14.2821C52.7731 14.0145 53.8246 12.6335 55.7953 15.7039L56.3103 14.6724Z" fill="#181515"/>
<path d="M55.3963 11.318C52.466 8.72561 51.5699 11.0439 48.0551 12.2376L48.0959 13.2462C51.8269 11.7703 52.4071 10.1344 55.2204 12.4574L55.3963 11.318Z" fill="#181515"/>
<path d="M52.2067 9.13124C48.4437 8.05996 48.6377 10.5378 45.984 13.1334L46.4567 14.0253C49.1834 11.0818 48.9996 9.35579 52.5405 10.2347L52.2067 9.13124Z" fill="#181515"/>
<path d="M53 8.21597C48.538 5.86473 48.1242 9.04186 44.0871 11.6109L44.4463 12.8616C48.668 9.87312 48.8948 7.64701 53.1279 9.69666L53 8.21597Z" fill="#181515"/>
<path d="M49.7382 5.14346C44.7716 4.26518 45.3466 7.41713 42.2854 11.0951L43.009 12.1766C46.118 8.04291 45.655 5.85372 50.3116 6.5146L49.7382 5.14346Z" fill="#181515"/>
<path d="M45.4142 4.03431C40.5559 5.38884 42.4366 7.9827 41.2658 12.6224L42.3857 13.285C43.4028 8.2136 42.0391 6.43955 46.5239 5.02296L45.4142 4.03431Z" fill="#181515"/>
<path d="M52.7378 8.83717C49.2765 7.01324 48.9555 9.47784 45.8239 11.4707L46.1025 12.4409C49.3774 10.1227 49.5533 8.39581 52.837 9.98579L52.7378 8.83717Z" fill="#181515"/>
<path d="M50.2069 6.45347C46.3542 5.77217 46.8002 8.21723 44.4256 11.0703L44.9868 11.9093C47.3986 8.70267 47.0394 7.00444 50.6517 7.5171L50.2069 6.45347Z" fill="#181515"/>
<path d="M46.3448 6.25338C42.5761 7.30412 44.0351 9.31626 43.1268 12.9154L43.9955 13.4294C44.7845 9.49538 43.7266 8.11919 47.2056 7.0203L46.3448 6.25338Z" fill="#181515"/>
<path d="M49.665 85.2373L42.165 91.7373L43.3873 94.7373L43.9984 96.2373L51.665 89.7373L69.665 83.0045L65.165 78.7373L49.665 85.2373Z" fill="#060606"/>
<path d="M41.165 91.7373L31.665 86.2373L29.165 90.7373L37.665 96.2373L39.165 94.3087L41.165 91.7373Z" fill="#060606"/>
<path d="M81.165 106.237H94.165L69.665 83.0045L51.665 89.7373L43.9984 96.2373L53.165 118.737L58.665 112.737L66.665 124.737L71.165 107.237L81.165 115.237V106.237Z" fill="#191919"/>
<path d="M37.665 96.2373L29.165 90.7373L20.165 107.737L21.665 107.237L20.665 118.737L22.665 115.237L25.165 111.237V116.237L29.165 108.737L32.665 115.237L37.665 96.2373Z" fill="#191919"/>
<path d="M42.165 91.7373H41.165L39.165 94.3087V96.2373L36.665 110.237L40.165 115.237L44.665 110.237L43.165 96.2373L43.3873 94.7373L42.165 91.7373Z" fill="#383535"/>
<path d="M10.1653 10.2372L49.6653 13.2374L69.1652 6.73737L35.1652 4.5555L10.1653 10.2372Z" fill="#D7894A"/>
<path d="M49.6653 13.2374L49.6653 69.2374L56.6652 62.0771L57.6652 59.2374L60.1652 62.0771L66.1652 59.2374L74.1652 62.0771L69.1652 6.73737L49.6653 13.2374Z" fill="#D7894A"/>
<path fill-rule="evenodd" clip-rule="evenodd" d="M49.6653 13.2374L10.1653 10.2372L9.10642 37.2371L11.6652 36.2371L11.6652 37.2371L14.1652 37.2371L14.1652 39.7371L15.6652 43.2371L14.1652 43.2371L15.6652 46.2371L14.1652 46.2371L15.1652 48.2371L13.1652 48.2371L14.1652 51.2371L10.6652 50.7371L10.1653 52.2371L8.51817 52.2371L8.16523 61.2371L49.6653 69.2374L49.6653 13.2374ZM28.6652 21.2374L28.6652 23.7374L26.6652 26.7374L27.1652 28.2374L26.6652 32.7374L29.1652 32.7374L30.6652 35.2374L35.1652 33.7374L39.1652 33.7374L36.6652 31.2374L39.1652 27.7374L37.6652 21.2374L33.1652 22.2374L28.6652 21.2374ZM18.6652 23.2374L15.6652 22.2374L15.6652 25.2374L14.1652 25.7374L15.6652 31.2374L18.6652 31.2374L19.6652 32.2374L22.6652 29.7374L25.1652 29.2374L22.6652 25.2374L23.1652 23.7374L18.6652 23.2374Z" fill="#FB923C"/>
</svg>
