<svg width="100" height="143" viewBox="0 0 100 143" fill="none" xmlns="http://www.w3.org/2000/svg">
<path d="M35.6547 134.143H44.2792L46.0393 137.81L38.1189 140.691L28.7904 137.81L35.6547 134.143Z" fill="#FB923C"/>
<path d="M39.9788 129.232H43.4752V136.014H39.9788V129.232Z" fill="#FB923C"/>
<path fill-rule="evenodd" clip-rule="evenodd" d="M55.2702 134.286C73.6815 134.658 98.0187 121.749 100 108.419C93.9642 112.03 88.7966 105.004 82.7972 96.8459C78.2569 90.6722 67.0099 80.5019 67.0099 80.5019C67.0099 80.5019 61.0256 78.1569 57.5773 78.4855C39.1659 78.1136 22.7635 92.2544 22.4681 106.969C22.1728 121.684 36.8588 133.914 55.2702 134.286ZM62.4723 112.745L49.5357 99.6494L59.0925 117.189L84.2665 110.874L62.4723 112.745Z" fill="url(#paint0_angular_434_2749)"/>
<path d="M49.5357 99.6494L62.4723 112.745L84.2665 110.874L59.0925 117.189L49.5357 99.6494Z" fill="#776F6F"/>
<path d="M70.1001 36.2339C70.1007 51.7146 60.7731 55.3281 62.1366 65.3281C63.5 75.3281 51.412 66.1397 43.9491 66.1397C40.6055 66.1397 34.4694 73.1764 34.4694 64.1142C34.4694 55.0521 17.7981 48.9268 17.7981 36.2339C17.7981 19.7174 29.5063 6.32813 43.9491 6.32812C58.3919 6.32812 70.0995 20.7533 70.1001 36.2339Z" fill="url(#paint1_angular_434_2749)"/>
<path d="M62.9096 57.5742C58.8094 61.8204 67.0099 80.5019 67.0099 80.5019C67.0099 80.5019 47.2219 102.117 34.1573 100.718C17.8307 98.9697 32.5738 91.4742 34.1575 76.6273C35.7411 61.7804 31.1325 25.7093 45.5844 25.7096C57.0254 25.7099 67.0099 53.3281 62.9096 57.5742Z" fill="url(#paint2_angular_434_2749)"/>
<path fill-rule="evenodd" clip-rule="evenodd" d="M0.146311 45.0914C7.0668 49.6271 22.0761 48.8986 24.4196 48.754C24.627 48.7412 24.8125 48.6562 24.9596 48.5148C27.7682 45.8157 28.7554 43.8887 28.3573 39.3915C20.5099 43.0872 15.7649 44.9994 0.146311 45.0914Z" fill="#FB923C"/>
<path d="M20.1947 31.1505C17.1451 34.908 -1.84761 39.4979 0.146311 45.0914C15.7649 44.9994 20.5099 43.0872 28.3573 39.3915C26.8658 33.9712 23.2443 27.393 20.1947 31.1505Z" fill="#EA7C21"/>
<path d="M36.0395 26.7859C35.8457 28.6028 34.1357 29.9094 32.22 29.7043C30.3043 29.4991 28.9084 27.8599 29.1022 26.043C29.296 24.2261 31.0061 22.9195 32.9218 23.1246C34.8375 23.3298 36.2333 24.969 36.0395 26.7859Z" fill="#3F3F3F"/>
<path d="M21.8754 25.7188C21.7328 27.0549 20.4753 28.0157 19.0665 27.8649C17.6578 27.714 16.6313 26.5086 16.7738 25.1725C16.9163 23.8363 18.1739 22.8755 19.5826 23.0263C20.9914 23.1772 22.0179 24.3826 21.8754 25.7188Z" fill="#3F3F3F"/>
<path d="M50.8049 135.78H59.4293L61.1894 139.447L53.269 142.328L43.9405 139.447L50.8049 135.78Z" fill="#FB923C"/>
<path d="M55.129 130.869H58.6254V137.651H55.129V130.869Z" fill="#FB923C"/>
<path d="M49.665 84.2373L42.165 90.7373L43.3873 93.7373L43.9984 95.2373L51.665 88.7373L69.665 82.0045L65.165 77.7373L49.665 84.2373Z" fill="#060606"/>
<path d="M41.165 90.7373L31.665 85.2373L29.165 89.7373L37.665 95.2373L39.165 93.3087L41.165 90.7373Z" fill="#060606"/>
<path d="M81.165 105.237H94.165L69.665 82.0045L51.665 88.7373L43.9984 95.2373L53.165 117.737L58.665 111.737L66.665 123.737L71.165 106.237L81.165 114.237V105.237Z" fill="#191919"/>
<path d="M37.665 95.2373L29.165 89.7373L20.165 106.737L21.665 106.237L20.665 117.737L22.665 114.237L25.165 110.237V115.237L29.165 107.737L32.665 114.237L37.665 95.2373Z" fill="#191919"/>
<path d="M42.165 90.7373H41.165L39.165 93.3087V95.2373L36.665 109.237L40.165 114.237L44.665 109.237L43.165 95.2373L43.3873 93.7373L42.165 90.7373Z" fill="#383535"/>
<path d="M10.1653 9.23716L49.6653 12.2374L69.1652 5.73737L35.1652 3.5555L10.1653 9.23716Z" fill="#D7894A"/>
<path d="M49.6653 12.2374L49.6653 68.2374L56.6652 61.0771L57.6652 58.2374L60.1652 61.0771L66.1652 58.2374L74.1652 61.0771L69.1652 5.73737L49.6653 12.2374Z" fill="#D7894A"/>
<path fill-rule="evenodd" clip-rule="evenodd" d="M49.6653 12.2374L10.1653 9.23716L9.10642 36.2371L11.6652 35.2371L11.6652 36.2371L14.1652 36.2371L14.1652 38.7371L15.6652 42.2371L14.1652 42.2371L15.6652 45.2371L14.1652 45.2371L15.1652 47.2371L13.1652 47.2371L14.1652 50.2371L10.6652 49.7371L10.1653 51.2371L8.51817 51.2371L8.16523 60.2371L49.6653 68.2374L49.6653 12.2374ZM28.6652 20.2374L28.6652 22.7374L26.6652 25.7374L27.1652 27.2374L26.6652 31.7374L29.1652 31.7374L30.6652 34.2374L35.1652 32.7374L39.1652 32.7374L36.6652 30.2374L39.1652 26.7374L37.6652 20.2374L33.1652 21.2374L28.6652 20.2374ZM18.6652 22.2374L15.6652 21.2374L15.6652 24.2374L14.1652 24.7374L15.6652 30.2374L18.6652 30.2374L19.6652 31.2374L22.6652 28.7374L25.1652 28.2374L22.6652 24.2374L23.1652 22.7374L18.6652 22.2374Z" fill="#FB923C"/>
<defs>
<radialGradient id="paint0_angular_434_2749" cx="0" cy="0" r="1" gradientUnits="userSpaceOnUse" gradientTransform="translate(50 74.3281) rotate(90) scale(68 50)">
<stop offset="0.23" stop-color="#5500FF"/>
<stop offset="0.505" stop-color="#FF0000"/>
<stop offset="0.795" stop-color="#00FF22"/>
</radialGradient>
<radialGradient id="paint1_angular_434_2749" cx="0" cy="0" r="1" gradientUnits="userSpaceOnUse" gradientTransform="translate(50 74.3281) rotate(90) scale(68 50)">
<stop offset="0.23" stop-color="#5500FF"/>
<stop offset="0.505" stop-color="#FF0000"/>
<stop offset="0.795" stop-color="#00FF22"/>
</radialGradient>
<radialGradient id="paint2_angular_434_2749" cx="0" cy="0" r="1" gradientUnits="userSpaceOnUse" gradientTransform="translate(50 74.3281) rotate(90) scale(68 50)">
<stop offset="0.23" stop-color="#5500FF"/>
<stop offset="0.505" stop-color="#FF0000"/>
<stop offset="0.795" stop-color="#00FF22"/>
</radialGradient>
</defs>
</svg>
