<svg width="100" height="146" viewBox="0 0 100 146" fill="none" xmlns="http://www.w3.org/2000/svg">
<path d="M35.6547 137.143H44.2792L46.0393 140.81L38.1189 143.691L28.7904 140.81L35.6547 137.143Z" fill="#FB923C"/>
<path d="M39.9788 132.232H43.4752V139.014H39.9788V132.232Z" fill="#FB923C"/>
<path fill-rule="evenodd" clip-rule="evenodd" d="M55.2702 137.286C73.6815 137.658 98.0187 124.749 100 111.419C93.9642 115.03 88.7966 108.004 82.7972 99.8459C78.2569 93.6722 67.0099 83.5019 67.0099 83.5019C67.0099 83.5019 61.0256 81.1569 57.5773 81.4855C39.1659 81.1136 22.7635 95.2544 22.4681 109.969C22.1728 124.684 36.8588 136.914 55.2702 137.286ZM62.4723 115.745L49.5357 102.649L59.0925 120.189L84.2665 113.874L62.4723 115.745Z" fill="#72F6D7"/>
<path d="M49.5357 102.649L62.4723 115.745L84.2665 113.874L59.0925 120.189L49.5357 102.649Z" fill="#266E6B"/>
<path d="M70.1001 39.2339C70.1007 54.7146 60.7731 58.3281 62.1366 68.3281C63.5 78.3281 51.412 69.1397 43.9491 69.1397C40.6055 69.1397 34.4694 76.1764 34.4694 67.1142C34.4694 58.0521 17.7981 51.9268 17.7981 39.2339C17.7981 22.7174 29.5063 9.32813 43.9491 9.32812C58.3919 9.32812 70.0995 23.7533 70.1001 39.2339Z" fill="#72F6D7"/>
<path d="M62.9096 60.5742C58.8094 64.8204 67.0099 83.5019 67.0099 83.5019C67.0099 83.5019 47.2219 105.117 34.1573 103.718C17.8307 101.97 32.5738 94.4742 34.1575 79.6273C35.7411 64.7804 31.1325 28.7093 45.5844 28.7096C57.0254 28.7099 67.0099 56.3281 62.9096 60.5742Z" fill="#72F6D7"/>
<path fill-rule="evenodd" clip-rule="evenodd" d="M0.146311 48.0914C7.0668 52.6271 22.0761 51.8986 24.4196 51.754C24.627 51.7412 24.8125 51.6562 24.9596 51.5148C27.7682 48.8157 28.7554 46.8887 28.3573 42.3915C20.5099 46.0872 15.7649 47.9994 0.146311 48.0914Z" fill="#FB923C"/>
<path d="M20.1947 34.1505C17.1451 37.908 -1.84761 42.4979 0.146311 48.0914C15.7649 47.9994 20.5099 46.0872 28.3573 42.3915C26.8658 36.9712 23.2443 30.393 20.1947 34.1505Z" fill="#EA7C21"/>
<path d="M36.0395 29.7859C35.8457 31.6028 34.1357 32.9094 32.22 32.7043C30.3043 32.4991 28.9084 30.8599 29.1022 29.043C29.296 27.2261 31.0061 25.9195 32.9218 26.1246C34.8375 26.3298 36.2333 27.969 36.0395 29.7859Z" fill="#3F3F3F"/>
<path d="M21.8754 28.7188C21.7328 30.0549 20.4753 31.0157 19.0665 30.8649C17.6578 30.714 16.6313 29.5086 16.7738 28.1725C16.9163 26.8363 18.1739 25.8755 19.5826 26.0263C20.9914 26.1772 22.0179 27.3826 21.8754 28.7188Z" fill="#3F3F3F"/>
<path d="M50.8049 138.78H59.4293L61.1894 142.447L53.269 145.328L43.9405 142.447L50.8049 138.78Z" fill="#FB923C"/>
<path d="M55.129 133.869H58.6254V140.651H55.129V133.869Z" fill="#FB923C"/>
<path d="M39 5.82812L44 9.32812V0.328125L49.5 8.32812L56 3.82812L53 9.32812L59 10.3281L65.5 22.3281L61 18.3281L57 21.3281L50 17.8281L42.5 21.3281L39 16.8281L29 21.3281V16.3281L17 20.3281L39 5.82812Z" fill="#FB923C"/>
<path d="M49.665 86.2373L42.165 92.7373L43.3873 95.7373L43.9984 97.2373L51.665 90.7373L69.665 84.0045L65.165 79.7373L49.665 86.2373Z" fill="#060606"/>
<path d="M41.165 92.7373L31.665 87.2373L29.165 91.7373L37.665 97.2373L39.165 95.3087L41.165 92.7373Z" fill="#060606"/>
<path d="M81.165 107.237H94.165L69.665 84.0045L51.665 90.7373L43.9984 97.2373L53.165 119.737L58.665 113.737L66.665 125.737L71.165 108.237L81.165 116.237V107.237Z" fill="#191919"/>
<path d="M37.665 97.2373L29.165 91.7373L20.165 108.737L21.665 108.237L20.665 119.737L22.665 116.237L25.165 112.237V117.237L29.165 109.737L32.665 116.237L37.665 97.2373Z" fill="#191919"/>
<path d="M42.165 92.7373H41.165L39.165 95.3087V97.2373L36.665 111.237L40.165 116.237L44.665 111.237L43.165 97.2373L43.3873 95.7373L42.165 92.7373Z" fill="#383535"/>
<path d="M10.1653 11.2372L49.6653 14.2374L69.1652 7.73737L35.1652 5.5555L10.1653 11.2372Z" fill="#D7894A"/>
<path d="M49.6653 14.2374L49.6653 70.2374L56.6652 63.0771L57.6652 60.2374L60.1652 63.0771L66.1652 60.2374L74.1652 63.0771L69.1652 7.73737L49.6653 14.2374Z" fill="#D7894A"/>
<path fill-rule="evenodd" clip-rule="evenodd" d="M49.6653 14.2374L10.1653 11.2372L9.10642 38.2371L11.6652 37.2371L11.6652 38.2371L14.1652 38.2371L14.1652 40.7371L15.6652 44.2371L14.1652 44.2371L15.6652 47.2371L14.1652 47.2371L15.1652 49.2371L13.1652 49.2371L14.1652 52.2371L10.6652 51.7371L10.1653 53.2371L8.51817 53.2371L8.16523 62.2371L49.6653 70.2374L49.6653 14.2374ZM28.6652 22.2374L28.6652 24.7374L26.6652 27.7374L27.1652 29.2374L26.6652 33.7374L29.1652 33.7374L30.6652 36.2374L35.1652 34.7374L39.1652 34.7374L36.6652 32.2374L39.1652 28.7374L37.6652 22.2374L33.1652 23.2374L28.6652 22.2374ZM18.6652 24.2374L15.6652 23.2374L15.6652 26.2374L14.1652 26.7374L15.6652 32.2374L18.6652 32.2374L19.6652 33.2374L22.6652 30.7374L25.1652 30.2374L22.6652 26.2374L23.1652 24.7374L18.6652 24.2374Z" fill="#FB923C"/>
</svg>
