<svg width="100" height="145" viewBox="0 0 100 145" fill="none" xmlns="http://www.w3.org/2000/svg">
<path d="M35.6547 136.143H44.2792L46.0393 139.81L38.1189 142.691L28.7904 139.81L35.6547 136.143Z" fill="#FB923C"/>
<path d="M39.9788 131.232H43.4752V138.014H39.9788V131.232Z" fill="#FB923C"/>
<path fill-rule="evenodd" clip-rule="evenodd" d="M55.2702 136.286C73.6815 136.658 98.0187 123.749 100 110.419C93.9642 114.03 88.7966 107.004 82.7972 98.8459C78.2569 92.6722 67.0099 82.5019 67.0099 82.5019C67.0099 82.5019 61.0256 80.1569 57.5773 80.4855C39.1659 80.1136 22.7635 94.2544 22.4681 108.969C22.1728 123.684 36.8588 135.914 55.2702 136.286ZM62.4723 114.745L49.5357 101.649L59.0925 119.189L84.2665 112.874L62.4723 114.745Z" fill="#72F6A5"/>
<path d="M49.5357 101.649L62.4723 114.745L84.2665 112.874L59.0925 119.189L49.5357 101.649Z" fill="#409269"/>
<path d="M70.1001 38.2339C70.1007 53.7146 60.7731 57.3281 62.1366 67.3281C63.5 77.3281 51.412 68.1397 43.9491 68.1397C40.6055 68.1397 34.4694 75.1764 34.4694 66.1142C34.4694 57.0521 17.7981 50.9268 17.7981 38.2339C17.7981 21.7174 29.5063 8.32813 43.9491 8.32812C58.3919 8.32812 70.0995 22.7533 70.1001 38.2339Z" fill="#72F6A5"/>
<path d="M62.9096 59.5742C58.8094 63.8204 67.0099 82.5019 67.0099 82.5019C67.0099 82.5019 47.2219 104.117 34.1573 102.718C17.8307 100.97 32.5738 93.4742 34.1575 78.6273C35.7411 63.7804 31.1325 27.7093 45.5844 27.7096C57.0254 27.7099 67.0099 55.3281 62.9096 59.5742Z" fill="#72F6A5"/>
<path fill-rule="evenodd" clip-rule="evenodd" d="M0.146311 47.0914C7.0668 51.6271 22.0761 50.8986 24.4196 50.754C24.627 50.7412 24.8125 50.6562 24.9596 50.5148C27.7682 47.8157 28.7554 45.8887 28.3573 41.3915C20.5099 45.0872 15.7649 46.9994 0.146311 47.0914Z" fill="#FB923C"/>
<path d="M20.1947 33.1505C17.1451 36.908 -1.84761 41.4979 0.146311 47.0914C15.7649 46.9994 20.5099 45.0872 28.3573 41.3915C26.8658 35.9712 23.2443 29.393 20.1947 33.1505Z" fill="#EA7C21"/>
<path d="M36.0395 28.7859C35.8457 30.6028 34.1357 31.9094 32.22 31.7043C30.3043 31.4991 28.9084 29.8599 29.1022 28.043C29.296 26.2261 31.0061 24.9195 32.9218 25.1246C34.8375 25.3298 36.2333 26.969 36.0395 28.7859Z" fill="#3F3F3F"/>
<path d="M21.8754 27.7188C21.7328 29.0549 20.4753 30.0157 19.0665 29.8649C17.6578 29.714 16.6313 28.5086 16.7738 27.1725C16.9163 25.8363 18.1739 24.8755 19.5826 25.0263C20.9914 25.1772 22.0179 26.3826 21.8754 27.7188Z" fill="#3F3F3F"/>
<path d="M50.8049 137.78H59.4293L61.1894 141.447L53.269 144.328L43.9405 141.447L50.8049 137.78Z" fill="#FB923C"/>
<path d="M55.129 132.869H58.6254V139.651H55.129V132.869Z" fill="#FB923C"/>
<path d="M49.665 84.2373L42.165 90.7373L43.3873 93.7373L43.9984 95.2373L51.665 88.7373L69.665 82.0045L65.165 77.7373L49.665 84.2373Z" fill="#060606"/>
<path d="M41.165 90.7373L31.665 85.2373L29.165 89.7373L37.665 95.2373L39.165 93.3087L41.165 90.7373Z" fill="#060606"/>
<path d="M81.165 105.237H94.165L69.665 82.0045L51.665 88.7373L43.9984 95.2373L53.165 117.737L58.665 111.737L66.665 123.737L71.165 106.237L81.165 114.237V105.237Z" fill="#191919"/>
<path d="M37.665 95.2373L29.165 89.7373L20.165 106.737L21.665 106.237L20.665 117.737L22.665 114.237L25.165 110.237V115.237L29.165 107.737L32.665 114.237L37.665 95.2373Z" fill="#191919"/>
<path d="M42.165 90.7373H41.165L39.165 93.3087V95.2373L36.665 109.237L40.165 114.237L44.665 109.237L43.165 95.2373L43.3873 93.7373L42.165 90.7373Z" fill="#383535"/>
<path d="M10.1653 9.23716L49.6653 12.2374L69.1652 5.73737L35.1652 3.5555L10.1653 9.23716Z" fill="#D7894A"/>
<path d="M49.6653 12.2374L49.6653 68.2374L56.6652 61.0771L57.6652 58.2374L60.1652 61.0771L66.1652 58.2374L74.1652 61.0771L69.1652 5.73737L49.6653 12.2374Z" fill="#D7894A"/>
<path fill-rule="evenodd" clip-rule="evenodd" d="M49.6653 12.2374L10.1653 9.23716L9.10642 36.2371L11.6652 35.2371L11.6652 36.2371L14.1652 36.2371L14.1652 38.7371L15.6652 42.2371L14.1652 42.2371L15.6652 45.2371L14.1652 45.2371L15.1652 47.2371L13.1652 47.2371L14.1652 50.2371L10.6652 49.7371L10.1653 51.2371L8.51817 51.2371L8.16523 60.2371L49.6653 68.2374L49.6653 12.2374ZM28.6652 20.2374L28.6652 22.7374L26.6652 25.7374L27.1652 27.2374L26.6652 31.7374L29.1652 31.7374L30.6652 34.2374L35.1652 32.7374L39.1652 32.7374L36.6652 30.2374L39.1652 26.7374L37.6652 20.2374L33.1652 21.2374L28.6652 20.2374ZM18.6652 22.2374L15.6652 21.2374L15.6652 24.2374L14.1652 24.7374L15.6652 30.2374L18.6652 30.2374L19.6652 31.2374L22.6652 28.7374L25.1652 28.2374L22.6652 24.2374L23.1652 22.7374L18.6652 22.2374Z" fill="#FB923C"/>
</svg>
