<svg width="93" height="93" viewBox="0 0 93 93" fill="none" xmlns="http://www.w3.org/2000/svg">
<mask id="mask0_651_3590" style="mask-type:alpha" maskUnits="userSpaceOnUse" x="0" y="0" width="93" height="93">
<circle cx="46.5" cy="46.5" r="46.5" fill="#D9D9D9"/>
</mask>
<g mask="url(#mask0_651_3590)">
<path d="M85.7839 231.626L100.899 227.728L105.642 233.359L93.0623 241.989L75.4105 241.156L85.7839 231.626Z" fill="#FB923C"/>
<path d="M91.1427 221.065L97.2707 219.484L100.336 231.371L94.2081 232.951L91.1427 221.065Z" fill="#FB923C"/>
<path fill-rule="evenodd" clip-rule="evenodd" d="M120.227 223.01C152.664 215.34 189.484 181.714 186.931 157.456C177.985 166.514 165.752 156.534 151.55 144.949C140.801 136.18 116.492 123.439 116.492 123.439C116.492 123.439 104.944 122.034 99.0489 124.169C66.6121 131.839 44.256 164.037 50.3895 189.96C56.5231 215.883 87.7906 230.681 120.227 223.01ZM123.114 182.002L94.521 164.896L119.198 191.317L160.466 168.872L123.114 182.002Z" fill="#A1A1A1"/>
<path d="M94.521 164.896L123.114 182.002L160.466 168.872L119.198 191.317L94.521 164.896Z" fill="#776F6F"/>
<path d="M101.899 44.4559C108.898 71.5878 94.1829 82.1372 101.093 99.0475C108.002 115.958 82.6629 105.317 69.5831 108.691C63.723 110.202 56.1491 125.308 52.0529 109.426C47.9568 93.5429 15.9692 90.3427 10.232 68.0966C2.76648 39.1489 17.2349 10.3899 42.5481 3.86175C67.8613 -2.66645 94.9008 17.324 101.899 44.4559Z" fill="#A1A1A1"/>
<path d="M98.9427 85.1082C93.6756 94.4035 116.492 123.439 116.492 123.439C116.492 123.439 91.581 170.267 68.051 173.72C38.6459 178.036 61.0975 158.235 57.1622 131.498C53.2268 104.76 28.8454 43.6234 54.1747 37.0916C74.2268 31.9207 104.21 75.8129 98.9427 85.1082Z" fill="#A1A1A1"/>
<path fill-rule="evenodd" clip-rule="evenodd" d="M-16.7019 91.5994C-2.52253 96.4208 23.4542 88.3597 27.4963 87.047C27.854 86.9309 28.1406 86.698 28.3346 86.3836C32.0371 80.3836 32.8963 76.56 30.1657 68.858C18.0826 78.8823 10.6304 84.3784 -16.7019 91.5994Z" fill="#FB923C"/>
<path d="M12.1346 58.1038C8.48817 66.0678 -22.7249 82.6971 -16.7019 91.5994C10.6304 84.3784 18.0826 78.8823 30.1657 68.858C25.1017 60.0322 15.7811 50.1398 12.1346 58.1038Z" fill="#EA7C21"/>
<path d="M37.9323 43.2923C38.4139 46.5643 36.0073 49.6273 32.5571 50.1337C29.1068 50.64 25.9194 48.398 25.4378 45.126C24.9563 41.8539 27.3628 38.7909 30.8131 38.2846C34.2633 37.7782 37.4507 40.0202 37.9323 43.2923Z" fill="#3F3F3F"/>
<path d="M12.6251 47.8242C12.9792 50.2304 11.2095 52.4829 8.67224 52.8553C6.135 53.2276 3.79106 51.5789 3.43691 49.1727C3.08275 46.7665 4.85249 44.514 7.38974 44.1417C9.92698 43.7693 12.2709 45.418 12.6251 47.8242Z" fill="#3F3F3F"/>
<path d="M113.077 227.647L128.192 223.749L132.935 229.38L120.355 238.01L102.703 237.177L113.077 227.647Z" fill="#FB923C"/>
<path d="M118.436 217.086L124.564 215.505L127.629 227.391L121.501 228.972L118.436 217.086Z" fill="#FB923C"/>
<path d="M11.3372 23.3182C14.3995 12.8337 19.9664 16.9754 30.0446 14.5632L31.4496 17.0059C20.4408 19.0736 16.6354 16.0734 13.4486 25.7474L11.3372 23.3182Z" fill="#181515"/>
<path d="M11.4695 13.6143C17.5837 4.56344 21.6222 10.2056 31.9558 10.9823L32.5488 13.7372C21.4339 12.3486 18.7249 8.33069 12.7394 16.5717L11.4695 13.6143Z" fill="#181515"/>
<path d="M18.5671 5.4789C27.9925 -0.0404506 29.1957 6.79297 38.1787 11.9596L37.5228 14.7001C28.0997 8.64407 27.3934 3.85 18.434 8.69467L18.5671 5.4789Z" fill="#181515"/>
<path d="M12.6992 23.8458C15.0747 15.7127 19.3931 18.9255 27.2111 17.0543L28.301 18.9492C19.7611 20.5532 16.8091 18.2258 14.3371 25.7302L12.6992 23.8458Z" fill="#181515"/>
<path d="M12.8023 16.3177C17.5452 9.29663 20.6779 13.6735 28.6941 14.276L29.1541 16.413C20.5319 15.3358 18.4305 12.219 13.7873 18.6118L12.8023 16.3177Z" fill="#181515"/>
<path d="M18.3081 10.0067C25.6197 5.72519 26.553 11.0261 33.5214 15.034L33.0127 17.1599C25.7029 12.462 25.1549 8.74313 18.2049 12.5013L18.3081 10.0067Z" fill="#181515"/>
<path d="M16.149 8.51643C24.2343 1.17276 26.8203 7.61142 36.6753 10.8154L36.5985 13.6323C26.1294 9.64868 24.45 5.10316 16.6817 11.6906L16.149 8.51643Z" fill="#181515"/>
<path d="M21.328 0.309227C31.2679 -4.21848 31.7668 2.7021 40.1751 8.75925L39.2427 11.4185C30.4875 4.43157 30.2746 -0.40958 20.8672 3.49459L21.328 0.309227Z" fill="#181515"/>
<path d="M29.7959 -4.35487C40.7164 -4.14186 38.1752 2.31461 43.1397 11.4108L41.1496 13.4059C36.2741 3.32129 38.1744 -1.1364 28.0036 -1.68156L29.7959 -4.35487Z" fill="#181515"/>
<path d="M17.0354 9.67762C23.3074 3.98092 25.3134 8.97558 32.9583 11.461L32.8986 13.6462C24.7775 10.5559 23.4747 7.02984 17.4486 12.1399L17.0354 9.67762Z" fill="#181515"/>
<path d="M21.0532 3.31054C28.7639 -0.201738 29.1509 5.16677 35.6735 9.86548L34.9502 11.9283C28.1585 6.50837 27.9933 2.75294 20.6957 5.78153L21.0532 3.31054Z" fill="#181515"/>
<path d="M29.044 0.802329C37.5153 0.967564 35.5441 5.97604 39.3952 13.0323L37.8514 14.5799C34.0693 6.75696 35.5434 3.29899 27.6537 2.8761L29.044 0.802329Z" fill="#181515"/>
<path d="M17.1931 24.9562C19.7526 16.1934 24.4053 19.6549 32.8286 17.6389L34.0028 19.6805C24.8017 21.4087 21.6212 18.9011 18.9578 26.9865L17.1931 24.9562Z" fill="#181515"/>
<path d="M17.304 16.8463C22.4142 9.28164 25.7895 13.9973 34.4262 14.6465L34.9219 16.9489C25.6321 15.7884 23.368 12.4303 18.3653 19.3181L17.304 16.8463Z" fill="#181515"/>
<path d="M23.236 10.0465C31.1136 5.43351 32.1193 11.1448 39.6272 15.463L39.079 17.7535C31.2033 12.692 30.6129 8.68511 23.1248 12.7342L23.236 10.0465Z" fill="#181515"/>
<path d="M18.3323 25.3977C20.3177 18.6001 23.927 21.2853 30.4612 19.7215L31.3721 21.3052C24.2345 22.6458 21.7673 20.7006 19.7012 26.9727L18.3323 25.3977Z" fill="#181515"/>
<path d="M18.4182 19.1053C22.3823 13.2372 25.0006 16.8953 31.7004 17.3989L32.0849 19.185C24.8785 18.2847 23.1222 15.6797 19.2415 21.0228L18.4182 19.1053Z" fill="#181515"/>
<path d="M23.0194 13.8309C29.1304 10.2525 29.9105 14.6829 35.7346 18.0327L35.3094 19.8095C29.1999 15.8831 28.7419 12.7748 22.9331 15.9159L23.0194 13.8309Z" fill="#181515"/>
<path d="M21.2155 12.5855C27.9731 6.44776 30.1344 11.8291 38.3712 14.507L38.3069 16.8613C29.557 13.5319 28.1533 9.73275 21.6606 15.2384L21.2155 12.5855Z" fill="#181515"/>
<path d="M25.5442 5.72589C33.8519 1.94167 34.2689 7.72583 41.2964 12.7883L40.5172 15.0109C33.1996 9.1713 33.0216 5.12511 25.159 8.38818L25.5442 5.72589Z" fill="#181515"/>
<path d="M32.6214 1.82754C41.7486 2.00557 39.6247 7.40183 43.774 15.0044L42.1107 16.6718C38.0358 8.2432 39.624 4.5175 31.1234 4.06187L32.6214 1.82754Z" fill="#181515"/>
<path d="M21.9566 13.5556C27.1987 8.79431 28.8753 12.9688 35.2648 15.0461L35.215 16.8724C28.4274 14.2897 27.3386 11.3426 22.302 15.6135L21.9566 13.5556Z" fill="#181515"/>
<path d="M25.3139 8.23385C31.7584 5.29832 32.0819 9.78526 37.5334 13.7124L36.9289 15.4365C31.2525 10.9066 31.1144 7.76781 25.0151 10.2991L25.3139 8.23385Z" fill="#181515"/>
<path d="M31.9932 6.1377C39.0735 6.2758 37.4259 10.4618 40.6446 16.3594L39.3544 17.6529C36.1933 11.1145 37.4254 8.22439 30.8312 7.87094L31.9932 6.1377Z" fill="#181515"/>
<path d="M68.3159 10.2093C61.8377 3.77725 59.4394 9.05724 51.0917 11.3664L51.0513 13.7212C59.9405 10.7839 61.5116 7.05098 67.7532 12.8398L68.3159 10.2093Z" fill="#181515"/>
<path d="M64.2968 3.16458C56.1655 -0.98513 55.4919 4.77478 48.2463 9.51995L48.926 11.7749C56.4958 6.26635 56.8535 2.23207 64.5633 5.84136L64.2968 3.16458Z" fill="#181515"/>
<path d="M55.8164 0.0817698C46.6903 -0.146033 48.5722 5.33929 44.0891 12.7499L45.6767 14.4896C50.1222 6.25045 48.7011 2.45785 57.2136 2.38047L55.8164 0.0817698Z" fill="#181515"/>
<path d="M67.533 11.1465C62.5077 6.15701 60.6472 10.2529 54.1717 12.0441L54.1403 13.8709C61.036 11.5923 62.2547 8.69654 67.0965 13.1871L67.533 11.1465Z" fill="#181515"/>
<path d="M64.4143 5.6806C58.1066 2.46154 57.584 6.92968 51.9634 10.6106L52.4906 12.3599C58.3628 8.08673 58.6402 4.95722 64.621 7.75706L64.4143 5.6806Z" fill="#181515"/>
<path d="M57.8357 3.28946C50.7563 3.11274 52.2162 7.36787 48.7385 13.1165L49.97 14.4661C53.4186 8.07469 52.3162 5.13265 58.9196 5.07263L57.8357 3.28946Z" fill="#181515"/>
<path d="M58.8129 1.32681C49.9298 -0.777241 50.6406 4.9782 44.7263 11.3056L45.9211 13.3352C51.9695 6.18929 51.3607 2.18521 59.7063 3.86415L58.8129 1.32681Z" fill="#181515"/>
<path d="M51.7064 -2.58394C42.6048 -1.87835 45.0372 3.38604 41.3345 11.2158L43.0915 12.7843C46.6721 4.13412 44.8711 0.506508 53.3311 -0.439984L51.7064 -2.58394Z" fill="#181515"/>
<path d="M43.6264 -2.57321C35.7237 1.99678 40.1924 5.69283 40.2375 14.3539L42.4997 15.0089C41.9901 5.6608 38.7981 3.16791 46.0181 -1.34203L43.6264 -2.57321Z" fill="#181515"/>
<path d="M58.6337 2.53411C51.7428 0.901936 52.2942 5.36661 47.7062 10.275L48.6331 11.8494C53.325 6.30609 52.8528 3.2 59.3267 4.5024L58.6337 2.53411Z" fill="#181515"/>
<path d="M53.12 -0.499777C46.0596 0.0475678 47.9464 4.13132 45.0742 10.2051L46.4371 11.4218C49.2147 4.71162 47.8176 1.89758 54.3803 1.16335L53.12 -0.499777Z" fill="#181515"/>
<path d="M46.2608 0.895333C40.1304 4.44041 43.597 7.30755 43.6319 14.0262L45.3868 14.5343C44.9915 7.28271 42.5154 5.34889 48.1161 1.8504L46.2608 0.895333Z" fill="#181515"/>
</g>
</svg>
