<svg width="93" height="93" viewBox="0 0 93 93" fill="none" xmlns="http://www.w3.org/2000/svg">
<mask id="mask0_651_3537" style="mask-type:alpha" maskUnits="userSpaceOnUse" x="0" y="0" width="93" height="93">
<circle cx="46.5" cy="46.5" r="46.5" fill="#D9D9D9"/>
</mask>
<g mask="url(#mask0_651_3537)">
<path d="M84.4274 226.369L99.5431 222.47L104.285 228.101L91.7059 236.731L74.054 235.898L84.4274 226.369Z" fill="#FB923C"/>
<path d="M89.7863 215.807L95.9143 214.226L98.9797 226.113L92.8517 227.693L89.7863 215.807Z" fill="#FB923C"/>
<path fill-rule="evenodd" clip-rule="evenodd" d="M118.871 217.753C151.308 210.082 188.127 176.456 185.575 152.198C176.628 161.256 164.395 151.276 150.193 139.691C139.445 130.923 115.136 118.181 115.136 118.181C115.136 118.181 103.588 116.776 97.6925 118.911C65.2556 126.581 42.8995 158.779 49.0331 184.702C55.1666 210.626 86.4341 225.423 118.871 217.753ZM121.757 176.744L93.1645 159.639L117.842 186.059L159.109 163.614L121.757 176.744Z" fill="#FE8181"/>
<path d="M93.1645 159.639L121.757 176.744L159.109 163.614L117.842 186.059L93.1645 159.639Z" fill="#C84646"/>
<path d="M100.543 39.1979C107.541 66.3298 92.8264 76.8793 99.7361 93.7895C106.646 110.7 81.3064 100.06 68.2267 103.433C62.3666 104.944 54.7926 120.05 50.6965 104.168C46.6004 88.285 14.6128 85.0848 8.87556 62.8386C1.41003 33.8909 15.8784 5.13201 41.1916 -1.39619C66.5048 -7.92438 93.5443 12.066 100.543 39.1979Z" fill="#FE8181"/>
<path d="M97.5863 79.8503C92.3192 89.1456 115.136 118.181 115.136 118.181C115.136 118.181 90.2246 165.009 66.6945 168.462C37.2895 172.778 59.7411 152.977 55.8057 126.24C51.8704 99.5025 27.4889 38.3654 52.8182 31.8337C72.8704 26.6628 102.853 70.5549 97.5863 79.8503Z" fill="#FE8181"/>
<path fill-rule="evenodd" clip-rule="evenodd" d="M-18.0583 86.3415C-3.87897 91.1629 22.0978 83.1018 26.1398 81.7891C26.4975 81.6729 26.7842 81.4401 26.9782 81.1257C30.6807 75.1256 31.5399 71.302 28.8093 63.6001C16.7261 73.6244 9.27396 79.1205 -18.0583 86.3415Z" fill="#FB923C"/>
<path d="M10.7782 52.8458C7.13172 60.8099 -24.0813 77.4392 -18.0583 86.3415C9.27396 79.1205 16.7261 73.6244 28.8093 63.6001C23.7453 54.7743 14.4247 44.8818 10.7782 52.8458Z" fill="#EA7C21"/>
<path d="M36.5758 38.0343C37.0574 41.3064 34.6508 44.3694 31.2006 44.8757C27.7504 45.3821 24.563 43.1401 24.0814 39.868C23.5998 36.596 26.0064 33.533 29.4566 33.0266C32.9069 32.5203 36.0942 34.7623 36.5758 38.0343Z" fill="#3F3F3F"/>
<path d="M11.2686 42.5663C11.6228 44.9725 9.85304 47.225 7.3158 47.5973C4.77856 47.9697 2.43462 46.321 2.08046 43.9148C1.72631 41.5086 3.49605 39.2561 6.03329 38.8837C8.57053 38.5114 10.9145 40.1601 11.2686 42.5663Z" fill="#3F3F3F"/>
<path d="M111.72 222.389L126.836 218.491L131.578 224.122L118.999 232.752L101.347 231.919L111.72 222.389Z" fill="#FB923C"/>
<path d="M117.079 211.828L123.207 210.247L126.272 222.134L120.145 223.714L117.079 211.828Z" fill="#FB923C"/>
<rect x="20.584" y="47.1534" width="15.2119" height="3.62" transform="rotate(36.1264 20.584 47.1534)" fill="#D9D9D9"/>
<rect x="0.246094" y="56.9081" width="11.8535" height="3.62" transform="rotate(-47.2073 0.246094 56.9081)" fill="#D9D9D9"/>
<path d="M26.3972 93.0766L19.3035 83.6906C26.9827 81.1678 29.3843 78.6812 30.4144 72.4137L41.0134 80.8956L35.7554 82.2516L41.5208 90.1109L38.8918 90.7889L39.2008 102.859L32.7575 92.3709L30.8342 99.4092L25.9175 87.5926L26.3972 93.0766Z" fill="#D9D9D9"/>
<path d="M64.5449 -1.8113L57.7326 -2.85826L51.1463 -3.0289L62.1419 -0.256964L59.5129 0.421042L67.4275 2.11833L65.0246 3.67266L66.8049 6.95197L56.2336 2.20138L58.014 5.48068L50.3253 4.65972L50.127 7.5147L44.4171 7.11806L45.9714 9.52104L38.9608 11.3291L41.1654 12.6297L38.1121 15.2864L50.4084 15.8536L47.5257 11.924L57.871 15.7983L57.1653 9.43799L66.2099 15.5169L64.8539 10.259C67.2754 11.1922 72.5592 13.3187 74.3229 14.3592C76.0866 15.3997 74.6058 13.0401 73.6449 11.7302L82.8878 14.9542L81.9838 11.4489L89.8984 13.1462L81.9561 7.71757L85.4614 6.81356L74.2398 3.1653L76.6428 1.61096L68.7282 -0.0863254L64.9969 -0.0586443L64.5449 -1.8113Z" fill="#D9D9D9"/>
</g>
</svg>
