<svg width="93" height="93" viewBox="0 0 93 93" fill="none" xmlns="http://www.w3.org/2000/svg">
<mask id="mask0_651_3763" style="mask-type:alpha" maskUnits="userSpaceOnUse" x="0" y="0" width="93" height="93">
<circle cx="46.5" cy="46.5" r="46.5" fill="#D9D9D9"/>
</mask>
<g mask="url(#mask0_651_3763)">
<path d="M85.7839 231.626L100.899 227.728L105.642 233.359L93.0623 241.989L75.4105 241.156L85.7839 231.626Z" fill="#FB923C"/>
<path d="M91.1427 221.065L97.2707 219.484L100.336 231.371L94.2081 232.951L91.1427 221.065Z" fill="#FB923C"/>
<path fill-rule="evenodd" clip-rule="evenodd" d="M120.227 223.01C152.664 215.34 189.484 181.714 186.931 157.456C177.985 166.514 165.752 156.534 151.55 144.949C140.801 136.18 116.492 123.439 116.492 123.439C116.492 123.439 104.944 122.034 99.0489 124.169C66.6121 131.839 44.256 164.037 50.3895 189.96C56.5231 215.883 87.7906 230.681 120.227 223.01ZM123.114 182.002L94.521 164.896L119.198 191.317L160.466 168.872L123.114 182.002Z" fill="#FFD683"/>
<path d="M94.521 164.896L123.114 182.002L160.466 168.872L119.198 191.317L94.521 164.896Z" fill="#FB923C"/>
<path d="M101.899 44.4559C108.898 71.5878 94.1829 82.1372 101.093 99.0475C108.002 115.958 82.6629 105.317 69.5831 108.691C63.723 110.202 56.1491 125.308 52.0529 109.426C47.9568 93.5429 15.9692 90.3427 10.232 68.0966C2.76648 39.1489 17.2349 10.3899 42.5481 3.86175C67.8613 -2.66645 94.9008 17.324 101.899 44.4559Z" fill="#FFD683"/>
<path d="M98.9427 85.1082C93.6756 94.4035 116.492 123.439 116.492 123.439C116.492 123.439 91.581 170.267 68.051 173.72C38.6459 178.036 61.0975 158.235 57.1622 131.498C53.2268 104.76 28.8454 43.6234 54.1747 37.0916C74.2268 31.9207 104.21 75.8129 98.9427 85.1082Z" fill="#FFD683"/>
<path fill-rule="evenodd" clip-rule="evenodd" d="M-16.7019 91.5994C-2.52253 96.4208 23.4542 88.3597 27.4963 87.047C27.854 86.9309 28.1406 86.698 28.3346 86.3836C32.0371 80.3836 32.8963 76.56 30.1657 68.858C18.0826 78.8823 10.6304 84.3784 -16.7019 91.5994Z" fill="#FB923C"/>
<path d="M12.1346 58.1038C8.48817 66.0678 -22.7249 82.6971 -16.7019 91.5994C10.6304 84.3784 18.0826 78.8823 30.1657 68.858C25.1017 60.0322 15.7811 50.1398 12.1346 58.1038Z" fill="#EA7C21"/>
<path d="M37.9323 43.2923C38.4139 46.5643 36.0073 49.6273 32.5571 50.1337C29.1068 50.64 25.9194 48.398 25.4378 45.126C24.9563 41.8539 27.3628 38.7909 30.8131 38.2846C34.2633 37.7782 37.4507 40.0202 37.9323 43.2923Z" fill="#3F3F3F"/>
<path d="M12.6251 47.8242C12.9792 50.2304 11.2095 52.4829 8.67224 52.8553C6.135 53.2276 3.79106 51.5789 3.43691 49.1727C3.08275 46.7665 4.85249 44.514 7.38974 44.1417C9.92698 43.7693 12.2709 45.418 12.6251 47.8242Z" fill="#3F3F3F"/>
<path d="M113.077 227.647L128.192 223.749L132.935 229.38L120.355 238.01L102.703 237.177L113.077 227.647Z" fill="#FB923C"/>
<path d="M118.436 217.086L124.564 215.505L127.629 227.391L121.501 228.972L118.436 217.086Z" fill="#FB923C"/>
<path d="M8.49489 54.7194C11.1734 53.0408 12.5604 52.1471 16.0063 52.7823L16.6797 55.3937C13.3846 54.3391 10.4932 55.1595 7.9167 57.6546L8.49489 54.7194Z" fill="#332E2E"/>
<ellipse cx="3.08293" cy="57.0319" rx="6.335" ry="7.24" transform="rotate(-14.4613 3.08293 57.0319)" fill="#E74242"/>
<ellipse cx="21.0614" cy="54.2645" rx="6.335" ry="7.24" transform="rotate(-14.4613 21.0614 54.2645)" fill="#E74242"/>
<path d="M18.2388 54.1913L20.3705 52.5735L21.2359 53.9525L21.0548 57.2035L22.5147 54.9578L23.6644 55.4624L24.2716 55.8399L23.1345 59.3375L22.1785 59.5841L22.8376 56.2097L20.7445 59.9539L19.5302 59.1989L19.931 54.823L18.6262 55.6936L18.2388 54.1913Z" fill="#D9D9D9" fill-opacity="0.25"/>
<path d="M28.957 -5.71777L38.4813 5.84511C43.6744 4.72238 46.496 4.28174 50.5516 5.53606L53.2958 -9.19085L45.8886 -1.67287L41.4516 -8.00547L41.507 -0.542859L28.957 -5.71777Z" fill="black"/>
</g>
</svg>
