<svg width="93" height="93" viewBox="0 0 93 93" fill="none" xmlns="http://www.w3.org/2000/svg">
<mask id="mask0_651_3787" style="mask-type:alpha" maskUnits="userSpaceOnUse" x="0" y="0" width="93" height="93">
<circle cx="46.5" cy="46.5" r="46.5" fill="#D9D9D9"/>
</mask>
<g mask="url(#mask0_651_3787)">
<path d="M86.236 233.379L101.352 229.481L106.094 235.112L93.5145 243.742L75.8626 242.909L86.236 233.379Z" fill="#FB923C"/>
<path d="M91.5949 222.817L97.7229 221.237L100.788 233.123L94.6603 234.704L91.5949 222.817Z" fill="#FB923C"/>
<path fill-rule="evenodd" clip-rule="evenodd" d="M120.68 224.763C153.116 217.093 189.936 183.467 187.383 159.209C178.437 168.266 166.204 158.287 152.002 146.701C141.254 137.933 116.945 125.192 116.945 125.192C116.945 125.192 105.396 123.787 99.5011 125.921C67.0642 133.591 44.7081 165.789 50.8417 191.713C56.9752 217.636 88.2427 232.433 120.68 224.763ZM123.566 183.754L94.9731 166.649L119.651 193.07L160.918 170.624L123.566 183.754Z" fill="#72F6D7"/>
<path d="M94.9731 166.649L123.566 183.754L160.918 170.624L119.651 193.07L94.9731 166.649Z" fill="#266E6B"/>
<path d="M102.351 46.2086C109.35 73.3405 94.635 83.8899 101.545 100.8C108.454 117.71 83.115 107.07 70.0353 110.443C64.1751 111.955 56.6012 127.061 52.5051 111.178C48.409 95.2956 16.4214 92.0954 10.6842 69.8493C3.21863 40.9015 17.687 12.1426 43.0002 5.61443C68.3134 -0.913762 95.3529 19.0766 102.351 46.2086Z" fill="#72F6D7"/>
<path d="M99.3948 86.8609C94.1278 96.1562 116.945 125.192 116.945 125.192C116.945 125.192 92.0332 172.02 68.5031 175.473C39.0981 179.789 61.5497 159.988 57.6143 133.25C53.679 106.513 29.2975 45.376 54.6268 38.8443C74.679 33.6734 104.662 77.5656 99.3948 86.8609Z" fill="#72F6D7"/>
<path fill-rule="evenodd" clip-rule="evenodd" d="M-16.2497 93.3521C-2.07038 98.1735 23.9064 90.1124 27.9484 88.7997C28.3061 88.6836 28.5928 88.4507 28.7868 88.1363C32.4893 82.1362 33.3485 78.3127 30.6179 70.6107C18.5347 80.635 11.0826 86.1311 -16.2497 93.3521Z" fill="#FB923C"/>
<path d="M12.5868 59.8565C8.94032 67.8205 -22.2727 84.4498 -16.2497 93.3521C11.0826 86.1311 18.5347 80.635 30.6179 70.6107C25.5539 61.7849 16.2333 51.8925 12.5868 59.8565Z" fill="#EA7C21"/>
<path d="M38.3844 45.0449C38.866 48.317 36.4594 51.38 33.0092 51.8863C29.559 52.3927 26.3716 50.1507 25.89 46.8787C25.4084 43.6066 27.815 40.5436 31.2652 40.0373C34.7154 39.5309 37.9028 41.7729 38.3844 45.0449Z" fill="#3F3F3F"/>
<path d="M13.0772 49.5769C13.4314 51.9831 11.6616 54.2356 9.12439 54.6079C6.58715 54.9803 4.24321 53.3316 3.88906 50.9254C3.5349 48.5192 5.30464 46.2667 7.84188 45.8943C10.3791 45.522 12.7231 47.1707 13.0772 49.5769Z" fill="#3F3F3F"/>
<path d="M113.529 229.4L128.644 225.502L133.387 231.133L120.807 239.763L103.155 238.93L113.529 229.4Z" fill="#FB923C"/>
<path d="M118.888 218.838L125.016 217.258L128.081 229.144L121.953 230.725L118.888 218.838Z" fill="#FB923C"/>
<path d="M32.7436 1.71711L43.0889 5.59137L39.0209 -10.1825L52.2765 1.3527L61.6347 -9.47227L58.8628 1.52334L69.8307 0.563965L86.647 18.6578L76.952 13.6812L71.2974 20.7472L57.4468 17.7769L45.884 27.3012L37.7156 20.9963L22.2231 33.4033L19.9631 24.64L0.739298 37.0747L32.7436 1.71711Z" fill="#FB923C"/>
</g>
</svg>
