<svg width="93" height="93" viewBox="0 0 93 93" fill="none" xmlns="http://www.w3.org/2000/svg">
<mask id="mask0_651_3127" style="mask-type:alpha" maskUnits="userSpaceOnUse" x="0" y="0" width="93" height="93">
<circle cx="46.5" cy="46.5" r="46.5" fill="#D9D9D9"/>
</mask>
<g mask="url(#mask0_651_3127)">
<path d="M84.4274 226.369L99.5431 222.47L104.285 228.101L91.7059 236.731L74.054 235.898L84.4274 226.369Z" fill="#FB923C"/>
<path d="M89.7863 215.807L95.9143 214.226L98.9797 226.113L92.8517 227.693L89.7863 215.807Z" fill="#FB923C"/>
<path fill-rule="evenodd" clip-rule="evenodd" d="M118.871 217.753C151.308 210.082 188.127 176.456 185.575 152.198C176.628 161.256 164.395 151.276 150.193 139.691C139.445 130.923 115.136 118.181 115.136 118.181C115.136 118.181 103.588 116.776 97.6925 118.911C65.2556 126.581 42.8995 158.779 49.0331 184.702C55.1666 210.626 86.4341 225.423 118.871 217.753ZM121.757 176.744L93.1645 159.639L117.842 186.059L159.109 163.614L121.757 176.744Z" fill="#EEACFD"/>
<path d="M93.1645 159.639L121.757 176.744L159.109 163.614L117.842 186.059L93.1645 159.639Z" fill="#CD3FB1"/>
<path d="M100.543 39.1979C107.541 66.3298 92.8264 76.8793 99.7361 93.7895C106.646 110.7 81.3064 100.06 68.2267 103.433C62.3666 104.944 54.7926 120.05 50.6965 104.168C46.6004 88.285 14.6128 85.0848 8.87556 62.8386C1.41003 33.8909 15.8784 5.13201 41.1916 -1.39619C66.5048 -7.92438 93.5443 12.066 100.543 39.1979Z" fill="#EEACFD"/>
<path d="M97.5863 79.8503C92.3192 89.1456 115.136 118.181 115.136 118.181C115.136 118.181 90.2246 165.009 66.6945 168.462C37.2895 172.778 59.7411 152.977 55.8057 126.24C51.8704 99.5025 27.4889 38.3654 52.8182 31.8337C72.8704 26.6628 102.853 70.5549 97.5863 79.8503Z" fill="#EEACFD"/>
<path fill-rule="evenodd" clip-rule="evenodd" d="M-18.0583 86.3415C-3.87897 91.1629 22.0978 83.1018 26.1398 81.7891C26.4975 81.6729 26.7842 81.4401 26.9782 81.1257C30.6807 75.1256 31.5399 71.302 28.8093 63.6001C16.7261 73.6244 9.27396 79.1205 -18.0583 86.3415Z" fill="#FB923C"/>
<path d="M10.7782 52.8458C7.13172 60.8099 -24.0813 77.4392 -18.0583 86.3415C9.27396 79.1205 16.7261 73.6244 28.8093 63.6001C23.7453 54.7743 14.4247 44.8818 10.7782 52.8458Z" fill="#EA7C21"/>
<path d="M36.5758 38.0343C37.0574 41.3064 34.6508 44.3694 31.2006 44.8757C27.7504 45.3821 24.563 43.1401 24.0814 39.868C23.5998 36.596 26.0064 33.533 29.4566 33.0266C32.9069 32.5203 36.0942 34.7623 36.5758 38.0343Z" fill="#3F3F3F"/>
<path d="M11.2686 42.5663C11.6228 44.9725 9.85304 47.225 7.3158 47.5973C4.77856 47.9697 2.43462 46.321 2.08046 43.9148C1.72631 41.5086 3.49605 39.2561 6.03329 38.8837C8.57053 38.5114 10.9145 40.1601 11.2686 42.5663Z" fill="#3F3F3F"/>
<path d="M111.72 222.389L126.836 218.491L131.578 224.122L118.999 232.752L101.347 231.919L111.72 222.389Z" fill="#FB923C"/>
<path d="M117.079 211.828L123.207 210.247L126.272 222.134L120.145 223.714L117.079 211.828Z" fill="#FB923C"/>
<path d="M-19.1122 83.3172C0.654779 77.5665 10.4528 72.267 26.3737 60.3712L29.2564 64.3008L30.3864 68.6824C15.7664 80.0282 6.35845 84.1555 -12.2722 88.0955L-18.2082 86.8225L-19.1122 83.3172Z" fill="#F93535" fill-opacity="0.6"/>
<path d="M-1.19348 35.1933C-0.976962 33.758 -0.741987 33.443 0.0183204 34.3082C0.624642 37.4176 1.16856 39.0415 3.48748 41.1269L2.27567 42.0119C0.685811 39.7787 -0.63624 39.3113 -1.19348 35.1933Z" fill="#3F3F3F"/>
<path d="M1.87202 34.2413C2.22749 32.8758 2.49483 32.6059 3.18027 33.57C3.49634 36.6982 3.89094 38.3679 6.03428 40.7686L4.72604 41.4398C3.33312 39.0103 2.04241 38.3453 1.87202 34.2413Z" fill="#3F3F3F"/>
<path d="M5.59019 33.115C6.33256 32.0867 6.67299 31.9776 7.06903 33.1515C6.47917 36.0477 6.3863 37.7016 7.8015 40.8332L6.32266 40.7967C5.65318 37.9986 4.57626 36.7978 5.59019 33.115Z" fill="#3F3F3F"/>
<path d="M21.7616 27.7335C21.9912 26.0203 22.2567 25.6468 23.1408 26.6913C23.8778 30.4167 24.5235 32.3653 27.2128 34.8891L25.8335 35.9313C23.9791 33.2404 22.4555 32.6641 21.7616 27.7335Z" fill="#3F3F3F"/>
<path d="M25.2683 26.6359C25.6583 25.0081 25.9616 24.6889 26.7611 25.8506C27.1652 29.5946 27.6401 31.5961 30.132 34.4945L28.6392 35.2798C27.0083 32.3569 25.518 31.5447 25.2683 26.6359Z" fill="#3F3F3F"/>
<path d="M29.5215 25.3376C30.3601 24.118 30.7494 23.9921 31.2195 25.4007C30.5806 28.8555 30.4958 30.8316 32.1615 34.5943L30.4635 34.5311C29.6582 31.1771 28.4062 29.7272 29.5215 25.3376Z" fill="#3F3F3F"/>
<path fill-rule="evenodd" clip-rule="evenodd" d="M64.8036 44.9528L64.2989 52.4329C63.2992 52.4383 62.4845 51.6323 62.4791 50.6327L62.4494 45.1122C60.3818 44.7041 58.8174 42.8864 58.8056 40.6973C58.7922 38.1982 60.8071 36.1615 63.3062 36.148C66.4403 38.2347 67.0884 39.9385 65.938 42.7281C65.661 43.3998 65.2796 44.1346 64.8036 44.9528Z" fill="white"/>
<path d="M64.2989 52.4329C65.2985 52.4275 66.1045 51.6128 66.0991 50.6132L66.065 44.2786C65.6868 44.5659 65.2619 44.7951 64.8036 44.9528L64.2989 52.4329Z" fill="#E3DADA"/>
<path d="M64.8036 44.9528C65.2619 44.7951 65.6868 44.5659 66.065 44.2786L66.0601 43.3733C66.0589 43.1457 66.0157 42.9282 65.938 42.7281C65.661 43.3998 65.2796 44.1346 64.8036 44.9528Z" fill="#E3DADA"/>
<path d="M67.8555 40.6486C67.842 38.1495 65.8052 36.1346 63.3062 36.148C66.4403 38.2347 67.0884 39.9385 65.938 42.7281C66.0157 42.9282 66.0589 43.1457 66.0601 43.3733L66.065 44.2786C67.1596 43.4472 67.8634 42.129 67.8555 40.6486Z" fill="#E3DADA"/>
</g>
</svg>
