<svg width="93" height="93" viewBox="0 0 93 93" fill="none" xmlns="http://www.w3.org/2000/svg">
<mask id="mask0_651_3775" style="mask-type:alpha" maskUnits="userSpaceOnUse" x="0" y="0" width="93" height="93">
<circle cx="46.5" cy="46.5" r="46.5" fill="#D9D9D9"/>
</mask>
<g mask="url(#mask0_651_3775)">
<path d="M86.8356 235.707L101.951 231.809L106.694 237.44L94.1141 246.069L76.4622 245.236L86.8356 235.707Z" fill="#FB923C"/>
<path d="M92.1945 225.145L98.3225 223.565L101.388 235.451L95.2599 237.031L92.1945 225.145Z" fill="#FB923C"/>
<path fill-rule="evenodd" clip-rule="evenodd" d="M121.279 227.091C153.716 219.421 190.536 185.795 187.983 161.537C179.037 170.594 166.804 160.615 152.601 149.029C141.853 140.261 117.544 127.519 117.544 127.519C117.544 127.519 105.996 126.115 100.101 128.249C67.6638 135.919 45.3077 168.117 51.4413 194.041C57.5748 219.964 88.8423 234.761 121.279 227.091ZM124.166 186.082L95.5727 168.977L120.25 195.397L161.518 172.952L124.166 186.082Z" fill="#72F6A5"/>
<path d="M95.5727 168.977L124.166 186.082L161.518 172.952L120.25 195.397L95.5727 168.977Z" fill="#409269"/>
<path d="M102.951 48.5363C109.949 75.6682 95.2346 86.2177 102.144 103.128C109.054 120.038 83.7146 109.398 70.6349 112.771C64.7748 114.282 57.2008 129.389 53.1047 113.506C49.0086 97.6233 17.021 94.4232 11.2838 72.177C3.81824 43.2293 18.2866 14.4704 43.5998 7.94219C68.913 1.414 95.9525 21.4044 102.951 48.5363Z" fill="#72F6A5"/>
<path d="M99.9945 89.1886C94.7274 98.484 117.544 127.519 117.544 127.519C117.544 127.519 92.6328 174.347 69.1027 177.801C39.6977 182.116 62.1493 162.315 58.2139 135.578C54.2786 108.841 29.8971 47.7038 55.2264 41.1721C75.2786 36.0011 105.262 79.8933 99.9945 89.1886Z" fill="#72F6A5"/>
<path fill-rule="evenodd" clip-rule="evenodd" d="M-15.6501 95.6799C-1.47077 100.501 24.506 92.4401 28.548 91.1275C28.9058 91.0113 29.1924 90.7784 29.3864 90.4641C33.0889 84.464 33.9481 80.6404 31.2175 72.9385C19.1343 82.9628 11.6822 88.4588 -15.6501 95.6799Z" fill="#FB923C"/>
<path d="M13.1864 62.1842C9.53993 70.1482 -21.6731 86.7776 -15.6501 95.6799C11.6822 88.4588 19.1343 82.9628 31.2175 72.9385C26.1535 64.1126 16.8329 54.2202 13.1864 62.1842Z" fill="#EA7C21"/>
<path d="M38.984 47.3727C39.4656 50.6447 37.0591 53.7077 33.6088 54.2141C30.1586 54.7205 26.9712 52.4785 26.4896 49.2064C26.008 45.9344 28.4146 42.8714 31.8648 42.365C35.3151 41.8587 38.5024 44.1007 38.984 47.3727Z" fill="#3F3F3F"/>
<path d="M13.6768 51.9047C14.031 54.3109 12.2612 56.5633 9.724 56.9357C7.18676 57.3081 4.84282 55.6593 4.48867 53.2531C4.13451 50.847 5.90425 48.5945 8.44149 48.2221C10.9787 47.8497 13.3227 49.4985 13.6768 51.9047Z" fill="#3F3F3F"/>
<path d="M114.128 231.728L129.244 227.83L133.986 233.461L121.407 242.09L103.755 241.257L114.128 231.728Z" fill="#FB923C"/>
<path d="M119.487 221.166L125.615 219.586L128.681 231.472L122.553 233.052L119.487 221.166Z" fill="#FB923C"/>
<ellipse cx="52.7344" cy="13.9979" rx="36.2" ry="11.765" transform="rotate(1.65662 52.7344 13.9979)" fill="#E28335"/>
<path d="M74.4022 -9.75337C74.3214 -6.95777 65.3636 -4.94866 54.3945 -5.2659C43.4253 -5.58315 34.5986 -8.10661 34.6795 -10.9022C34.7603 -13.6978 43.7181 -15.7069 54.6873 -15.3897C65.6564 -15.0724 74.4831 -12.549 74.4022 -9.75337Z" fill="#E28335"/>
<path d="M52.4669 16.8299C65.4333 17.2049 76.0101 15.2426 76.091 12.447L74.4022 -9.75337C74.3214 -6.95777 65.3636 -4.94866 54.3945 -5.2659C43.4253 -5.58315 34.5986 -8.10661 34.6795 -10.9022L29.2582 10.6023L29.1355 11.089C29.0547 13.8846 39.5005 16.4549 52.4669 16.8299Z" fill="#FB923C"/>
</g>
</svg>
