<svg width="371" height="349" viewBox="0 0 371 349" fill="none" xmlns="http://www.w3.org/2000/svg">
<path d="M262.292 334.348C269.298 339.382 274.149 349.449 274.072 348.984H285.774C285.902 349.01 286.082 348.922 285.774 348.365C284.234 344.276 289.803 335.613 292.78 331.793C289.762 332.165 284.409 336.181 282.109 338.143C281.558 335.747 282.316 332.509 283.08 330.477C280.801 332.955 279.307 337.085 278.845 338.84C279.328 331.859 270.192 325.796 265.284 323.49C268.083 325.055 273.007 334.912 275.283 340.014C275.321 340.087 275.353 340.16 275.38 340.234C275.348 340.162 275.316 340.088 275.283 340.014C273.948 337.44 266.135 335.177 262.292 334.348Z" fill="#07AD49"/>
<path d="M293.088 334.298C286.011 339.343 281.112 349.435 281.19 348.969H269.369C269.239 348.995 269.058 348.907 269.369 348.348C270.924 344.249 265.299 335.565 262.292 331.736C265.341 332.109 270.748 336.135 273.071 338.101C273.628 335.7 272.862 332.453 272.091 330.416C274.393 332.9 275.902 337.04 276.368 338.8C275.88 331.802 285.109 325.724 290.066 323.413C287.239 324.982 282.265 334.862 279.966 339.977C279.928 340.05 279.895 340.123 279.868 340.197C279.9 340.125 279.933 340.051 279.966 339.977C281.314 337.397 289.206 335.128 293.088 334.298Z" fill="#0D893F"/>
<path d="M261.291 338.066C268.368 342.503 268.417 349.38 268.339 348.971H280.16C280.29 348.994 280.471 348.916 280.16 348.425C278.605 344.82 287.541 343.292 290.548 339.924C287.499 340.252 278.781 337.683 276.458 339.412C275.902 337.3 275.687 336.837 276.458 335.045C274.156 337.23 274.615 338.531 274.149 340.079C274.636 333.925 267.022 328.541 265.526 326.295C268.353 327.675 267.264 336.564 269.563 341.062C269.601 341.126 269.634 341.191 269.661 341.256C269.629 341.192 269.596 341.128 269.563 341.062C268.215 338.793 265.173 338.796 261.291 338.066Z" fill="#07AD49"/>
<path d="M32.7386 56.87C39.5215 61.8311 44.2174 71.7532 44.1429 71.2953H55.4726C55.5968 71.3207 55.7707 71.2342 55.4726 70.6847C53.9818 66.6548 59.3734 58.1167 62.2555 54.3513C59.3336 54.7177 54.1508 58.6764 51.9246 60.6099C51.3909 58.2486 52.1248 55.0568 52.8638 53.0538C50.6574 55.4962 49.2114 59.5668 48.7642 61.2968C49.2316 54.4167 40.3866 48.4403 35.6356 46.1677C38.3449 47.7106 43.1122 57.4252 45.3154 62.4539C45.352 62.5259 45.3837 62.5982 45.41 62.6707C45.379 62.5994 45.3475 62.5272 45.3154 62.4539C44.0234 59.9173 36.4593 57.6864 32.7386 56.87Z" fill="#07AD49"/>
<path d="M62.5536 56.8199C55.7022 61.7929 50.9589 71.739 51.0342 71.2799H39.59C39.4646 71.3054 39.2889 71.2187 39.59 70.6678C41.0958 66.6282 35.6498 58.0695 32.7386 54.2951C35.69 54.6623 40.9252 58.6306 43.1739 60.5688C43.7129 58.2018 42.9716 55.0023 42.2252 52.9945C44.4538 55.4427 45.9144 59.5232 46.3662 61.2573C45.894 54.3606 54.8284 48.3698 59.6274 46.0917C56.8907 47.6384 52.0753 57.3764 49.8498 62.4172C49.8128 62.4894 49.7809 62.5618 49.7543 62.6345C49.7856 62.5631 49.8174 62.4907 49.8498 62.4172C51.1549 59.8745 58.7954 57.6382 62.5536 56.8199Z" fill="#0D893F"/>
<path d="M31.7696 60.5336C38.621 64.9075 38.6685 71.6855 38.5932 71.2818H50.0374C50.1629 71.3042 50.3385 71.228 50.0374 70.7435C48.5316 67.1905 57.1827 65.685 60.0939 62.3654C57.1425 62.6884 48.7022 60.1564 46.4535 61.8611C45.9145 59.7793 45.7071 59.3229 46.4535 57.557C44.2249 59.7103 44.6692 60.9928 44.2174 62.518C44.6896 56.4522 37.3181 51.1457 35.8692 48.9323C38.6059 50.2927 37.5521 59.0533 39.7776 63.4869C39.8146 63.5504 39.8466 63.6141 39.8732 63.678C39.8419 63.6152 39.81 63.5515 39.7776 63.4869C38.4725 61.2505 35.5278 61.2534 31.7696 60.5336Z" fill="#07AD49"/>
<path d="M61.263 211.728C69.8658 217.929 75.8215 230.332 75.727 229.759H90.0964C90.2539 229.791 90.4745 229.683 90.0964 228.996C88.2057 223.959 95.0437 213.286 98.6991 208.579C94.9933 209.037 88.4199 213.986 85.5965 216.403C84.9196 213.451 85.8504 209.461 86.7876 206.958C83.9894 210.011 82.1554 215.099 81.5882 217.261C82.181 208.661 70.963 201.191 64.9372 198.35C68.3735 200.279 74.4198 212.422 77.2141 218.708C77.2606 218.798 77.3007 218.888 77.3341 218.979C77.2948 218.89 77.2548 218.799 77.2141 218.708C75.5754 215.537 65.9819 212.748 61.263 211.728Z" fill="#07AD49"/>
<path d="M99.0772 211.665C90.3876 217.881 84.3717 230.314 84.4672 229.74H69.9527C69.7935 229.772 69.5707 229.664 69.9527 228.975C71.8625 223.926 64.9553 213.227 61.263 208.509C65.0063 208.968 71.646 213.929 74.498 216.351C75.1817 213.393 74.2415 209.393 73.2948 206.883C76.1213 209.944 77.9739 215.044 78.5468 217.212C77.948 208.591 89.2793 201.103 95.3659 198.255C91.895 200.188 85.7876 212.361 82.9651 218.662C82.9181 218.752 82.8776 218.843 82.8439 218.933C82.8836 218.844 82.924 218.754 82.9651 218.662C84.6203 215.483 94.3107 212.688 99.0772 211.665Z" fill="#0D893F"/>
<path d="M60.0341 216.307C68.7237 221.775 68.7839 230.247 68.6884 229.743H83.203C83.3621 229.771 83.5849 229.675 83.203 229.07C81.2931 224.629 92.2653 222.747 95.9576 218.597C92.2144 219.001 81.5096 215.836 78.6576 217.967C77.9739 215.364 77.7109 214.794 78.6576 212.587C75.8311 215.278 76.3945 216.881 75.8216 218.788C76.4204 211.206 67.0712 204.572 65.2335 201.806C68.7045 203.506 67.368 214.457 70.1905 219.999C70.2375 220.078 70.278 220.158 70.3118 220.238C70.2721 220.159 70.2316 220.08 70.1905 219.999C68.5354 217.203 64.8006 217.207 60.0341 216.307Z" fill="#07AD49"/>
<path d="M205.243 127.971C214.507 134.637 220.921 147.97 220.819 147.355H236.294C236.464 147.389 236.701 147.273 236.294 146.534C234.258 141.119 241.622 129.646 245.558 124.586C241.568 125.079 234.489 130.398 231.448 132.996C230.719 129.823 231.721 125.534 232.731 122.843C229.717 126.125 227.742 131.595 227.131 133.919C227.77 124.674 215.689 116.643 209.199 113.589C212.9 115.663 219.411 128.717 222.421 135.474C222.471 135.571 222.514 135.668 222.55 135.765C222.508 135.67 222.465 135.573 222.421 135.474C220.656 132.066 210.325 129.068 205.243 127.971Z" fill="#07AD49"/>
<path d="M245.966 127.903C236.608 134.586 230.129 147.951 230.232 147.334H214.601C214.429 147.368 214.189 147.252 214.601 146.512C216.657 141.083 209.219 129.583 205.243 124.511C209.274 125.004 216.424 130.336 219.496 132.941C220.232 129.76 219.219 125.461 218.2 122.763C221.244 126.053 223.239 131.536 223.856 133.866C223.211 124.599 235.414 116.548 241.969 113.487C238.231 115.566 231.654 128.651 228.614 135.425C228.564 135.522 228.52 135.619 228.484 135.717C228.526 135.621 228.57 135.523 228.614 135.425C230.397 132.008 240.832 129.003 245.966 127.903Z" fill="#0D893F"/>
<path d="M203.919 132.894C213.277 138.771 213.342 147.879 213.239 147.337H228.87C229.042 147.367 229.282 147.264 228.87 146.613C226.814 141.839 238.63 139.816 242.606 135.355C238.575 135.789 227.047 132.387 223.975 134.678C223.239 131.88 222.956 131.267 223.975 128.894C220.931 131.787 221.538 133.511 220.921 135.56C221.566 127.409 211.498 120.279 209.519 117.304C213.257 119.132 211.817 130.905 214.857 136.862C214.907 136.947 214.951 137.033 214.987 137.119C214.945 137.035 214.901 136.949 214.857 136.862C213.074 133.857 209.052 133.861 203.919 132.894Z" fill="#07AD49"/>
<path d="M218.215 152.558C213.914 153.985 208.927 148.78 206.971 145.999C206.585 146.033 206.211 146.096 205.851 146.185C205.17 157.081 213.81 154.974 218.215 152.558Z" fill="#B8B8B8"/>
<path fill-rule="evenodd" clip-rule="evenodd" d="M220.115 146.983C220.081 146.873 220.044 146.764 220.005 146.656C219.173 144.342 217.299 142.479 213.464 142.63C211.361 143.087 208.645 144.157 207.366 145.974C207.233 145.979 207.101 145.987 206.971 145.999C208.927 148.78 213.914 153.985 218.215 152.558C213.81 154.974 205.17 157.081 205.851 146.185C203.334 146.807 201.502 148.708 201.502 150.957C201.502 153.684 204.197 155.9 207.542 155.943C207.574 155.943 207.607 155.943 207.64 155.943C207.665 155.943 207.691 155.944 207.717 155.944C208.53 155.938 210.478 155.799 213.063 155.257C216.558 154.525 218.574 153.885 219.066 152.695C219.522 151.595 220.457 148.462 220.115 146.983ZM208.578 155.994C209.283 156.051 209.961 156.106 210.554 155.852C211.18 156.106 211.827 156.053 212.515 155.995C212.822 155.97 213.138 155.943 213.464 155.943C213.581 155.943 213.7 155.944 213.82 155.944" fill="#BEBEBE"/>
<path d="M219.066 152.695C218.574 153.885 216.558 154.525 213.063 155.257C210.478 155.799 208.53 155.938 207.717 155.944C208.006 155.948 208.294 155.971 208.578 155.994C209.283 156.051 209.961 156.106 210.554 155.852C211.18 156.106 211.827 156.053 212.515 155.995C212.822 155.97 213.138 155.943 213.464 155.943C213.581 155.943 213.7 155.944 213.82 155.944L213.904 155.944C217.829 155.952 222.748 155.962 220.59 150.407C220.59 149.291 220.464 148.095 220.115 146.983C220.457 148.462 219.522 151.595 219.066 152.695Z" fill="#A4A4A4"/>
<path d="M263.617 168.19C260.914 168.904 257.778 166.301 256.549 164.911C256.307 164.928 256.071 164.959 255.845 165.004C255.417 170.452 260.848 169.398 263.617 168.19Z" fill="#B8B8B8"/>
<path fill-rule="evenodd" clip-rule="evenodd" d="M264.811 165.403C264.79 165.348 264.767 165.293 264.742 165.239C264.219 164.082 263.041 163.151 260.63 163.226C259.309 163.455 257.601 163.99 256.798 164.899C256.714 164.901 256.631 164.905 256.549 164.911C257.778 166.301 260.914 168.904 263.617 168.19C260.848 169.398 255.417 170.452 255.845 165.004C254.263 165.315 253.112 166.265 253.112 167.39C253.112 168.753 254.806 169.862 256.908 169.883C256.928 169.883 256.949 169.883 256.969 169.883C256.986 169.883 257.002 169.883 257.018 169.883C257.529 169.881 258.753 169.811 260.379 169.54C262.575 169.174 263.842 168.854 264.152 168.259C264.438 167.709 265.026 166.142 264.811 165.403ZM257.559 169.908C258.002 169.937 258.429 169.964 258.802 169.837C259.195 169.965 259.601 169.938 260.034 169.909C260.227 169.896 260.425 169.883 260.63 169.883C260.704 169.883 260.779 169.883 260.855 169.883" fill="#BEBEBE"/>
<path d="M264.152 168.259C263.842 168.854 262.575 169.174 260.379 169.54C258.753 169.811 257.529 169.881 257.018 169.883C257.2 169.885 257.381 169.897 257.559 169.908C258.002 169.937 258.429 169.964 258.802 169.837C259.195 169.965 259.601 169.938 260.034 169.909C260.227 169.896 260.425 169.883 260.63 169.883C260.704 169.883 260.779 169.883 260.855 169.883L260.907 169.883C263.374 169.887 266.466 169.893 265.109 167.115C265.109 166.557 265.03 165.959 264.811 165.403C265.026 166.142 264.438 167.709 264.152 168.259Z" fill="#A4A4A4"/>
<path d="M356.104 95.4022C359.299 96.4728 363.004 92.5688 364.457 90.483C364.743 90.5085 365.021 90.5556 365.289 90.6224C365.795 98.7947 359.376 97.2141 356.104 95.4022Z" fill="#B8B8B8"/>
<path fill-rule="evenodd" clip-rule="evenodd" d="M354.692 91.221C354.718 91.1386 354.745 91.0568 354.774 90.9757C355.393 89.2402 356.784 87.8432 359.633 87.9561C361.195 88.2993 363.213 89.1014 364.163 90.4647C364.262 90.4682 364.36 90.4744 364.457 90.483C363.004 92.5688 359.299 96.4728 356.104 95.4022C359.376 97.2141 365.795 98.7947 365.289 90.6224C367.159 91.0891 368.519 92.5148 368.519 94.2012C368.519 96.2469 366.517 97.909 364.033 97.9409C364.008 97.9413 363.984 97.9414 363.96 97.9414C363.941 97.9414 363.921 97.9415 363.902 97.9418C363.299 97.9375 361.851 97.8329 359.931 97.4267C357.335 96.8777 355.837 96.3973 355.471 95.5051C355.133 94.6803 354.439 92.3303 354.692 91.221ZM363.263 97.9793C362.739 98.0222 362.235 98.0634 361.795 97.8728C361.33 98.0637 360.85 98.0233 360.338 97.9803C360.11 97.9611 359.875 97.9414 359.633 97.9414C359.546 97.9414 359.457 97.9416 359.368 97.9417" fill="#BEBEBE"/>
<path d="M355.471 95.5051C355.837 96.3973 357.335 96.8777 359.931 97.4267C361.851 97.8329 363.299 97.9375 363.902 97.9418C363.688 97.9446 363.474 97.9621 363.263 97.9793C362.739 98.0222 362.235 98.0634 361.795 97.8728C361.33 98.0637 360.85 98.0233 360.338 97.9803C360.11 97.9611 359.875 97.9414 359.633 97.9414C359.546 97.9414 359.457 97.9416 359.368 97.9417L359.306 97.9419C356.391 97.9479 352.736 97.9556 354.34 93.7895C354.34 92.9524 354.433 92.055 354.692 91.221C354.439 92.3303 355.133 94.6803 355.471 95.5051Z" fill="#A4A4A4"/>
<path d="M86.0738 239.501C84.1077 240.215 81.8276 237.612 80.9333 236.221C80.7572 236.238 80.5861 236.27 80.4213 236.314C80.11 241.763 84.0599 240.709 86.0738 239.501Z" fill="#B8B8B8"/>
<path fill-rule="evenodd" clip-rule="evenodd" d="M86.9424 236.713C86.9266 236.659 86.9099 236.604 86.8921 236.55C86.5114 235.393 85.6548 234.462 83.9016 234.537C82.9403 234.766 81.6988 235.3 81.1143 236.209C81.0534 236.212 80.9931 236.216 80.9333 236.221C81.8276 237.612 84.1077 240.215 86.0738 239.501C84.0599 240.709 80.11 241.763 80.4213 236.314C79.2707 236.626 78.4335 237.576 78.4335 238.7C78.4335 240.064 79.6655 241.172 81.1944 241.193C81.2093 241.194 81.2243 241.194 81.2392 241.194C81.251 241.194 81.2628 241.194 81.2746 241.194C81.6461 241.191 82.5367 241.121 83.7186 240.851C85.316 240.485 86.2376 240.164 86.4629 239.57C86.6712 239.02 87.0984 237.453 86.9424 236.713ZM81.6682 241.219C81.9905 241.248 82.3004 241.275 82.5717 241.148C82.8577 241.275 83.1532 241.248 83.4681 241.22C83.6085 241.207 83.7527 241.194 83.9016 241.194C83.9555 241.194 84.0099 241.194 84.0647 241.194" fill="#BEBEBE"/>
<path d="M86.4629 239.57C86.2376 240.164 85.316 240.485 83.7186 240.851C82.5367 241.121 81.6461 241.191 81.2746 241.194C81.4066 241.196 81.5384 241.208 81.6682 241.219C81.9905 241.248 82.3004 241.275 82.5717 241.148C82.8577 241.275 83.1532 241.248 83.4681 241.22C83.6085 241.207 83.7527 241.194 83.9016 241.194C83.9555 241.194 84.0099 241.194 84.0647 241.194L84.1029 241.194C85.8972 241.198 88.1459 241.203 87.1592 238.426C87.1592 237.868 87.1017 237.269 86.9424 236.713C87.0984 237.453 86.6712 239.02 86.4629 239.57Z" fill="#A4A4A4"/>
<path d="M304.522 32.4859C306.779 34.4266 310.122 35.6553 313.852 35.6553C317.582 35.6553 320.925 34.4266 323.181 32.4859C320.925 30.5453 317.582 29.3166 313.852 29.3166C310.122 29.3166 306.779 30.5453 304.522 32.4859Z" fill="#866E4A"/>
<path d="M313.852 17.4315C307.055 17.4315 301.545 21.511 301.545 26.5434C301.545 28.8139 302.667 30.8905 304.522 32.4859C306.779 30.5453 310.122 29.3166 313.852 29.3166C317.582 29.3166 320.925 30.5453 323.181 32.4859C325.037 30.8905 326.159 28.8139 326.159 26.5434C326.159 21.511 320.649 17.4315 313.852 17.4315Z" fill="#784C25"/>
<path d="M326.159 38.4285V26.5434C326.159 28.8139 325.037 30.8905 323.181 32.4859C325.037 34.0814 326.159 36.1579 326.159 38.4285Z" fill="#784C25"/>
<path d="M301.545 26.5434V38.4285C301.545 36.1579 302.667 34.0814 304.522 32.4859C302.667 30.8905 301.545 28.8139 301.545 26.5434Z" fill="#784C25"/>
<path fill-rule="evenodd" clip-rule="evenodd" d="M306.914 45.9557C320.421 44.4502 323.075 41.0446 323.181 32.4859C320.925 34.4266 317.582 35.6553 313.852 35.6553C310.122 35.6553 306.779 34.4266 304.522 32.4859C302.667 34.0814 301.545 36.1579 301.545 38.4285C301.545 41.5555 303.672 44.3147 306.914 45.9557Z" fill="#C7B599"/>
<path d="M313.852 47.5404C320.649 47.5404 326.159 43.4609 326.159 38.4285C326.159 36.1579 325.037 34.0814 323.181 32.4859C323.075 41.0446 320.421 44.4502 306.914 45.9557C308.889 46.9556 311.278 47.5404 313.852 47.5404Z" fill="#C1AA88"/>
<path d="M262.356 6.25825L371 41.629L370.035 44.581L261.391 9.21032L262.356 6.25825Z" fill="#866E4A"/>
<path d="M262.356 6.25825L371 41.629L367.058 34.4668L261.391 0L262.356 6.25825Z" fill="#784C25"/>
<path d="M261.391 9.21032L262.356 6.25825L261.391 0L260.267 3.56553L261.391 9.21032Z" fill="#866E4A"/>
<path d="M262.292 334.348C269.298 339.382 274.149 349.449 274.072 348.984H285.774C285.902 349.01 286.082 348.922 285.774 348.365C284.234 344.276 289.803 335.613 292.78 331.793C289.762 332.165 284.409 336.181 282.109 338.143C281.558 335.747 282.316 332.509 283.08 330.477C280.801 332.955 279.307 337.085 278.845 338.84C279.328 331.859 270.192 325.796 265.284 323.49C268.083 325.055 273.007 334.912 275.283 340.014C275.321 340.087 275.353 340.16 275.38 340.234C275.348 340.162 275.316 340.088 275.283 340.014C273.948 337.44 266.135 335.177 262.292 334.348Z" fill="#07AD49"/>
<path d="M293.088 334.298C286.011 339.343 281.112 349.435 281.19 348.969H269.369C269.239 348.995 269.058 348.907 269.369 348.348C270.924 344.249 265.299 335.565 262.292 331.736C265.341 332.109 270.748 336.135 273.071 338.101C273.628 335.7 272.862 332.453 272.091 330.416C274.393 332.9 275.902 337.04 276.368 338.8C275.88 331.802 285.109 325.724 290.066 323.413C287.239 324.982 282.265 334.862 279.966 339.977C279.928 340.05 279.895 340.123 279.868 340.197C279.9 340.125 279.933 340.051 279.966 339.977C281.314 337.397 289.206 335.128 293.088 334.298Z" fill="#0D893F"/>
<path d="M261.291 338.066C268.368 342.503 268.417 349.38 268.339 348.971H280.16C280.29 348.994 280.471 348.916 280.16 348.425C278.605 344.82 287.541 343.292 290.548 339.924C287.499 340.252 278.781 337.683 276.458 339.412C275.902 337.3 275.687 336.837 276.458 335.045C274.156 337.23 274.615 338.531 274.149 340.079C274.636 333.925 267.022 328.541 265.526 326.295C268.353 327.675 267.264 336.564 269.563 341.062C269.601 341.126 269.634 341.191 269.661 341.256C269.629 341.192 269.596 341.128 269.563 341.062C268.215 338.793 265.173 338.796 261.291 338.066Z" fill="#07AD49"/>
<path d="M32.7386 56.87C39.5215 61.8311 44.2174 71.7532 44.1429 71.2953H55.4726C55.5968 71.3207 55.7707 71.2342 55.4726 70.6847C53.9818 66.6548 59.3734 58.1167 62.2555 54.3513C59.3336 54.7177 54.1508 58.6764 51.9246 60.6099C51.3909 58.2486 52.1248 55.0568 52.8638 53.0538C50.6574 55.4962 49.2114 59.5668 48.7642 61.2968C49.2316 54.4167 40.3866 48.4403 35.6356 46.1677C38.3449 47.7106 43.1122 57.4252 45.3154 62.4539C45.352 62.5259 45.3837 62.5982 45.41 62.6707C45.379 62.5994 45.3475 62.5272 45.3154 62.4539C44.0234 59.9173 36.4593 57.6864 32.7386 56.87Z" fill="#07AD49"/>
<path d="M62.5536 56.8199C55.7022 61.7929 50.9589 71.739 51.0342 71.2799H39.59C39.4646 71.3054 39.2889 71.2187 39.59 70.6678C41.0958 66.6282 35.6498 58.0695 32.7386 54.2951C35.69 54.6623 40.9252 58.6306 43.1739 60.5688C43.7129 58.2018 42.9716 55.0023 42.2252 52.9945C44.4538 55.4427 45.9144 59.5232 46.3662 61.2573C45.894 54.3606 54.8284 48.3698 59.6274 46.0917C56.8907 47.6384 52.0753 57.3764 49.8498 62.4172C49.8128 62.4894 49.7809 62.5618 49.7543 62.6345C49.7856 62.5631 49.8174 62.4907 49.8498 62.4172C51.1549 59.8745 58.7954 57.6382 62.5536 56.8199Z" fill="#0D893F"/>
<path d="M31.7696 60.5336C38.621 64.9075 38.6685 71.6855 38.5932 71.2818H50.0374C50.1629 71.3042 50.3385 71.228 50.0374 70.7435C48.5316 67.1905 57.1827 65.685 60.0939 62.3654C57.1425 62.6884 48.7022 60.1564 46.4535 61.8611C45.9145 59.7793 45.7071 59.3229 46.4535 57.557C44.2249 59.7103 44.6692 60.9928 44.2174 62.518C44.6896 56.4522 37.3181 51.1457 35.8692 48.9323C38.6059 50.2927 37.5521 59.0533 39.7776 63.4869C39.8146 63.5504 39.8466 63.6141 39.8732 63.678C39.8419 63.6152 39.81 63.5515 39.7776 63.4869C38.4725 61.2505 35.5278 61.2534 31.7696 60.5336Z" fill="#07AD49"/>
<path d="M61.263 211.728C69.8658 217.929 75.8215 230.332 75.727 229.759H90.0964C90.2539 229.791 90.4745 229.683 90.0964 228.996C88.2057 223.959 95.0437 213.286 98.6991 208.579C94.9933 209.037 88.4199 213.986 85.5965 216.403C84.9196 213.451 85.8504 209.461 86.7876 206.958C83.9894 210.011 82.1554 215.099 81.5882 217.261C82.181 208.661 70.963 201.191 64.9372 198.35C68.3735 200.279 74.4198 212.422 77.2141 218.708C77.2606 218.798 77.3007 218.888 77.3341 218.979C77.2948 218.89 77.2548 218.799 77.2141 218.708C75.5754 215.537 65.9819 212.748 61.263 211.728Z" fill="#07AD49"/>
<path d="M99.0772 211.665C90.3876 217.881 84.3717 230.314 84.4672 229.74H69.9527C69.7935 229.772 69.5707 229.664 69.9527 228.975C71.8625 223.926 64.9553 213.227 61.263 208.509C65.0063 208.968 71.646 213.929 74.498 216.351C75.1817 213.393 74.2415 209.393 73.2948 206.883C76.1213 209.944 77.9739 215.044 78.5468 217.212C77.948 208.591 89.2793 201.103 95.3659 198.255C91.895 200.188 85.7876 212.361 82.9651 218.662C82.9181 218.752 82.8776 218.843 82.8439 218.933C82.8836 218.844 82.924 218.754 82.9651 218.662C84.6203 215.483 94.3107 212.688 99.0772 211.665Z" fill="#0D893F"/>
<path d="M60.0341 216.307C68.7237 221.775 68.7839 230.247 68.6884 229.743H83.203C83.3621 229.771 83.5849 229.675 83.203 229.07C81.2931 224.629 92.2653 222.747 95.9576 218.597C92.2144 219.001 81.5096 215.836 78.6576 217.967C77.9739 215.364 77.7109 214.794 78.6576 212.587C75.8311 215.278 76.3945 216.881 75.8216 218.788C76.4204 211.206 67.0712 204.572 65.2335 201.806C68.7045 203.506 67.368 214.457 70.1905 219.999C70.2375 220.078 70.278 220.158 70.3118 220.238C70.2721 220.159 70.2316 220.08 70.1905 219.999C68.5354 217.203 64.8006 217.207 60.0341 216.307Z" fill="#07AD49"/>
<path d="M205.243 127.971C214.507 134.637 220.921 147.97 220.819 147.355H236.294C236.464 147.389 236.701 147.273 236.294 146.534C234.258 141.119 241.622 129.646 245.558 124.586C241.568 125.079 234.489 130.398 231.448 132.996C230.719 129.823 231.721 125.534 232.731 122.843C229.717 126.125 227.742 131.595 227.131 133.919C227.77 124.674 215.689 116.643 209.199 113.589C212.9 115.663 219.411 128.717 222.421 135.474C222.471 135.571 222.514 135.668 222.55 135.765C222.508 135.67 222.465 135.573 222.421 135.474C220.656 132.066 210.325 129.068 205.243 127.971Z" fill="#07AD49"/>
<path d="M245.966 127.903C236.608 134.586 230.129 147.951 230.232 147.334H214.601C214.429 147.368 214.189 147.252 214.601 146.512C216.657 141.083 209.219 129.583 205.243 124.511C209.274 125.004 216.424 130.336 219.496 132.941C220.232 129.76 219.219 125.461 218.2 122.763C221.244 126.053 223.239 131.536 223.856 133.866C223.211 124.599 235.414 116.548 241.969 113.487C238.231 115.566 231.654 128.651 228.614 135.425C228.564 135.522 228.52 135.619 228.484 135.717C228.526 135.621 228.57 135.523 228.614 135.425C230.397 132.008 240.832 129.003 245.966 127.903Z" fill="#0D893F"/>
<path d="M203.919 132.894C213.277 138.771 213.342 147.879 213.239 147.337H228.87C229.042 147.367 229.282 147.264 228.87 146.613C226.814 141.839 238.63 139.816 242.606 135.355C238.575 135.789 227.047 132.387 223.975 134.678C223.239 131.88 222.956 131.267 223.975 128.894C220.931 131.787 221.538 133.511 220.921 135.56C221.566 127.409 211.498 120.279 209.519 117.304C213.257 119.132 211.817 130.905 214.857 136.862C214.907 136.947 214.951 137.033 214.987 137.119C214.945 137.035 214.901 136.949 214.857 136.862C213.074 133.857 209.052 133.861 203.919 132.894Z" fill="#07AD49"/>
<path d="M218.215 152.558C213.914 153.985 208.927 148.78 206.971 145.999C206.585 146.033 206.211 146.096 205.851 146.185C205.17 157.081 213.81 154.974 218.215 152.558Z" fill="#B8B8B8"/>
<path fill-rule="evenodd" clip-rule="evenodd" d="M220.115 146.983C220.081 146.873 220.044 146.764 220.005 146.656C219.173 144.342 217.299 142.479 213.464 142.63C211.361 143.087 208.645 144.157 207.366 145.974C207.233 145.979 207.101 145.987 206.971 145.999C208.927 148.78 213.914 153.985 218.215 152.558C213.81 154.974 205.17 157.081 205.851 146.185C203.334 146.807 201.502 148.708 201.502 150.957C201.502 153.684 204.197 155.9 207.542 155.943C207.574 155.943 207.607 155.943 207.64 155.943C207.665 155.943 207.691 155.944 207.717 155.944C208.53 155.938 210.478 155.799 213.063 155.257C216.558 154.525 218.574 153.885 219.066 152.695C219.522 151.595 220.457 148.462 220.115 146.983ZM208.578 155.994C209.283 156.051 209.961 156.106 210.554 155.852C211.18 156.106 211.827 156.053 212.515 155.995C212.822 155.97 213.138 155.943 213.464 155.943C213.581 155.943 213.7 155.944 213.82 155.944" fill="#BEBEBE"/>
<path d="M219.066 152.695C218.574 153.885 216.558 154.525 213.063 155.257C210.478 155.799 208.53 155.938 207.717 155.944C208.006 155.948 208.294 155.971 208.578 155.994C209.283 156.051 209.961 156.106 210.554 155.852C211.18 156.106 211.827 156.053 212.515 155.995C212.822 155.97 213.138 155.943 213.464 155.943C213.581 155.943 213.7 155.944 213.82 155.944L213.904 155.944C217.829 155.952 222.748 155.962 220.59 150.407C220.59 149.291 220.464 148.095 220.115 146.983C220.457 148.462 219.522 151.595 219.066 152.695Z" fill="#A4A4A4"/>
<path d="M263.617 168.19C260.914 168.904 257.778 166.301 256.549 164.911C256.307 164.928 256.071 164.959 255.845 165.004C255.417 170.452 260.848 169.398 263.617 168.19Z" fill="#B8B8B8"/>
<path fill-rule="evenodd" clip-rule="evenodd" d="M264.811 165.403C264.79 165.348 264.767 165.293 264.742 165.239C264.219 164.082 263.041 163.151 260.63 163.226C259.309 163.455 257.601 163.99 256.798 164.899C256.714 164.901 256.631 164.905 256.549 164.911C257.778 166.301 260.914 168.904 263.617 168.19C260.848 169.398 255.417 170.452 255.845 165.004C254.263 165.315 253.112 166.265 253.112 167.39C253.112 168.753 254.806 169.862 256.908 169.883C256.928 169.883 256.949 169.883 256.969 169.883C256.986 169.883 257.002 169.883 257.018 169.883C257.529 169.881 258.753 169.811 260.379 169.54C262.575 169.174 263.842 168.854 264.152 168.259C264.438 167.709 265.026 166.142 264.811 165.403ZM257.559 169.908C258.002 169.937 258.429 169.964 258.802 169.837C259.195 169.965 259.601 169.938 260.034 169.909C260.227 169.896 260.425 169.883 260.63 169.883C260.704 169.883 260.779 169.883 260.855 169.883" fill="#BEBEBE"/>
<path d="M264.152 168.259C263.842 168.854 262.575 169.174 260.379 169.54C258.753 169.811 257.529 169.881 257.018 169.883C257.2 169.885 257.381 169.897 257.559 169.908C258.002 169.937 258.429 169.964 258.802 169.837C259.195 169.965 259.601 169.938 260.034 169.909C260.227 169.896 260.425 169.883 260.63 169.883C260.704 169.883 260.779 169.883 260.855 169.883L260.907 169.883C263.374 169.887 266.466 169.893 265.109 167.115C265.109 166.557 265.03 165.959 264.811 165.403C265.026 166.142 264.438 167.709 264.152 168.259Z" fill="#A4A4A4"/>
<path d="M356.104 95.4022C359.299 96.4728 363.004 92.5688 364.457 90.483C364.743 90.5085 365.021 90.5556 365.289 90.6224C365.795 98.7947 359.376 97.2141 356.104 95.4022Z" fill="#B8B8B8"/>
<path fill-rule="evenodd" clip-rule="evenodd" d="M354.692 91.221C354.718 91.1386 354.745 91.0568 354.774 90.9757C355.393 89.2402 356.784 87.8432 359.633 87.9561C361.195 88.2993 363.213 89.1014 364.163 90.4647C364.262 90.4682 364.36 90.4744 364.457 90.483C363.004 92.5688 359.299 96.4728 356.104 95.4022C359.376 97.2141 365.795 98.7947 365.289 90.6224C367.159 91.0891 368.519 92.5148 368.519 94.2012C368.519 96.2469 366.517 97.909 364.033 97.9409C364.008 97.9413 363.984 97.9414 363.96 97.9414C363.941 97.9414 363.921 97.9415 363.902 97.9418C363.299 97.9375 361.851 97.8329 359.931 97.4267C357.335 96.8777 355.837 96.3973 355.471 95.5051C355.133 94.6803 354.439 92.3303 354.692 91.221ZM363.263 97.9793C362.739 98.0222 362.235 98.0634 361.795 97.8728C361.33 98.0637 360.85 98.0233 360.338 97.9803C360.11 97.9611 359.875 97.9414 359.633 97.9414C359.546 97.9414 359.457 97.9416 359.368 97.9417" fill="#BEBEBE"/>
<path d="M355.471 95.5051C355.837 96.3973 357.335 96.8777 359.931 97.4267C361.851 97.8329 363.299 97.9375 363.902 97.9418C363.688 97.9446 363.474 97.9621 363.263 97.9793C362.739 98.0222 362.235 98.0634 361.795 97.8728C361.33 98.0637 360.85 98.0233 360.338 97.9803C360.11 97.9611 359.875 97.9414 359.633 97.9414C359.546 97.9414 359.457 97.9416 359.368 97.9417L359.306 97.9419C356.391 97.9479 352.736 97.9556 354.34 93.7895C354.34 92.9524 354.433 92.055 354.692 91.221C354.439 92.3303 355.133 94.6803 355.471 95.5051Z" fill="#A4A4A4"/>
<path d="M86.0738 239.501C84.1077 240.215 81.8276 237.612 80.9333 236.221C80.7572 236.238 80.5861 236.27 80.4213 236.314C80.11 241.763 84.0599 240.709 86.0738 239.501Z" fill="#B8B8B8"/>
<path fill-rule="evenodd" clip-rule="evenodd" d="M86.9424 236.713C86.9266 236.659 86.9099 236.604 86.8921 236.55C86.5114 235.393 85.6548 234.462 83.9016 234.537C82.9403 234.766 81.6988 235.3 81.1143 236.209C81.0534 236.212 80.9931 236.216 80.9333 236.221C81.8276 237.612 84.1077 240.215 86.0738 239.501C84.0599 240.709 80.11 241.763 80.4213 236.314C79.2707 236.626 78.4335 237.576 78.4335 238.7C78.4335 240.064 79.6655 241.172 81.1944 241.193C81.2093 241.194 81.2243 241.194 81.2392 241.194C81.251 241.194 81.2628 241.194 81.2746 241.194C81.6461 241.191 82.5367 241.121 83.7186 240.851C85.316 240.485 86.2376 240.164 86.4629 239.57C86.6712 239.02 87.0984 237.453 86.9424 236.713ZM81.6682 241.219C81.9905 241.248 82.3004 241.275 82.5717 241.148C82.8577 241.275 83.1532 241.248 83.4681 241.22C83.6085 241.207 83.7527 241.194 83.9016 241.194C83.9555 241.194 84.0099 241.194 84.0647 241.194" fill="#BEBEBE"/>
<path d="M86.4629 239.57C86.2376 240.164 85.316 240.485 83.7186 240.851C82.5367 241.121 81.6461 241.191 81.2746 241.194C81.4066 241.196 81.5384 241.208 81.6682 241.219C81.9905 241.248 82.3004 241.275 82.5717 241.148C82.8577 241.275 83.1532 241.248 83.4681 241.22C83.6085 241.207 83.7527 241.194 83.9016 241.194C83.9555 241.194 84.0099 241.194 84.0647 241.194L84.1029 241.194C85.8972 241.198 88.1459 241.203 87.1592 238.426C87.1592 237.868 87.1017 237.269 86.9424 236.713C87.0984 237.453 86.6712 239.02 86.4629 239.57Z" fill="#A4A4A4"/>
<path d="M304.522 32.4859C306.779 34.4266 310.122 35.6553 313.852 35.6553C317.582 35.6553 320.925 34.4266 323.181 32.4859C320.925 30.5453 317.582 29.3166 313.852 29.3166C310.122 29.3166 306.779 30.5453 304.522 32.4859Z" fill="#866E4A"/>
<path d="M313.852 17.4315C307.055 17.4315 301.545 21.511 301.545 26.5434C301.545 28.8139 302.667 30.8905 304.522 32.4859C306.779 30.5453 310.122 29.3166 313.852 29.3166C317.582 29.3166 320.925 30.5453 323.181 32.4859C325.037 30.8905 326.159 28.8139 326.159 26.5434C326.159 21.511 320.649 17.4315 313.852 17.4315Z" fill="#784C25"/>
<path d="M326.159 38.4285V26.5434C326.159 28.8139 325.037 30.8905 323.181 32.4859C325.037 34.0814 326.159 36.1579 326.159 38.4285Z" fill="#784C25"/>
<path d="M301.545 26.5434V38.4285C301.545 36.1579 302.667 34.0814 304.522 32.4859C302.667 30.8905 301.545 28.8139 301.545 26.5434Z" fill="#784C25"/>
<path fill-rule="evenodd" clip-rule="evenodd" d="M306.914 45.9557C320.421 44.4502 323.075 41.0446 323.181 32.4859C320.925 34.4266 317.582 35.6553 313.852 35.6553C310.122 35.6553 306.779 34.4266 304.522 32.4859C302.667 34.0814 301.545 36.1579 301.545 38.4285C301.545 41.5555 303.672 44.3147 306.914 45.9557Z" fill="#C7B599"/>
<path d="M313.852 47.5404C320.649 47.5404 326.159 43.4609 326.159 38.4285C326.159 36.1579 325.037 34.0814 323.181 32.4859C323.075 41.0446 320.421 44.4502 306.914 45.9557C308.889 46.9556 311.278 47.5404 313.852 47.5404Z" fill="#C1AA88"/>
<path d="M262.356 6.25825L371 41.629L370.035 44.581L261.391 9.21032L262.356 6.25825Z" fill="#866E4A"/>
<path d="M262.356 6.25825L371 41.629L367.058 34.4668L261.391 0L262.356 6.25825Z" fill="#784C25"/>
<path d="M261.391 9.21032L262.356 6.25825L261.391 0L260.267 3.56553L261.391 9.21032Z" fill="#866E4A"/>
<path d="M336.761 195.864C329.978 200.825 325.283 210.747 325.357 210.289H314.027C313.903 210.314 313.729 210.228 314.027 209.678C315.518 205.648 310.127 197.11 307.245 193.345C310.166 193.711 315.349 197.67 317.575 199.603C318.109 197.242 317.375 194.05 316.636 192.047C318.843 194.49 320.289 198.56 320.736 200.29C320.268 193.41 329.113 187.434 333.864 185.161C331.155 186.704 326.388 196.419 324.185 201.447C324.148 201.519 324.116 201.592 324.09 201.664C324.121 201.593 324.153 201.521 324.185 201.447C325.477 198.911 333.041 196.68 336.761 195.864Z" fill="#07AD49"/>
<path d="M306.946 195.813C313.798 200.786 318.541 210.732 318.466 210.273H329.91C330.035 210.299 330.211 210.212 329.91 209.661C328.404 205.622 333.85 197.063 336.761 193.289C333.81 193.656 328.575 197.624 326.326 199.562C325.787 197.195 326.528 193.996 327.275 191.988C325.046 194.436 323.586 198.517 323.134 200.251C323.606 193.354 314.672 187.363 309.873 185.085C312.609 186.632 317.425 196.37 319.65 201.411C319.687 201.483 319.719 201.555 319.746 201.628C319.714 201.557 319.683 201.484 319.65 201.411C318.345 198.868 310.705 196.632 306.946 195.813Z" fill="#0D893F"/>
<path d="M337.73 199.527C330.879 203.901 330.831 210.679 330.907 210.275H319.463C319.337 210.298 319.161 210.221 319.463 209.737C320.968 206.184 312.317 204.679 309.406 201.359C312.357 201.682 320.798 199.15 323.046 200.855C323.586 198.773 323.793 198.316 323.046 196.55C325.275 198.704 324.831 199.986 325.283 201.512C324.81 195.446 332.182 190.139 333.631 187.926C330.894 189.286 331.948 198.047 329.722 202.48C329.685 202.544 329.653 202.608 329.627 202.671C329.658 202.609 329.69 202.545 329.722 202.48C331.027 200.244 333.972 200.247 337.73 199.527Z" fill="#07AD49"/>
<path d="M164.257 266.964C154.993 273.631 148.579 286.963 148.681 286.348H133.206C133.036 286.382 132.799 286.266 133.206 285.528C135.242 280.112 127.878 268.639 123.942 263.58C127.932 264.072 135.011 269.391 138.052 271.99C138.781 268.817 137.779 264.528 136.769 261.836C139.783 265.118 141.758 270.588 142.369 272.913C141.73 263.668 153.811 255.637 160.301 252.583C156.6 254.656 150.089 267.71 147.079 274.468C147.029 274.564 146.986 274.661 146.95 274.759C146.992 274.663 147.035 274.566 147.079 274.468C148.844 271.059 159.175 268.061 164.257 266.964Z" fill="#07AD49"/>
<path d="M123.534 266.897C132.892 273.579 139.371 286.944 139.268 286.327H154.899C155.071 286.362 155.311 286.245 154.899 285.505C152.843 280.077 160.281 268.576 164.257 263.504C160.226 263.998 153.076 269.33 150.004 271.934C149.268 268.754 150.281 264.454 151.3 261.756C148.256 265.046 146.261 270.529 145.644 272.86C146.289 263.592 134.086 255.542 127.531 252.481C131.269 254.559 137.846 267.645 140.886 274.418C140.936 274.515 140.98 274.613 141.016 274.71C140.974 274.614 140.93 274.517 140.886 274.418C139.103 271.001 128.668 267.996 123.534 266.897Z" fill="#0D893F"/>
<path d="M165.581 271.887C156.223 277.765 156.158 286.873 156.261 286.33H140.63C140.458 286.36 140.218 286.258 140.63 285.607C142.686 280.832 130.87 278.809 126.894 274.349C130.925 274.783 142.453 271.38 145.525 273.671C146.261 270.874 146.544 270.26 145.525 267.887C148.569 270.781 147.962 272.504 148.579 274.554C147.934 266.403 158.002 259.272 159.981 256.298C156.243 258.126 157.683 269.898 154.643 275.856C154.593 275.941 154.549 276.027 154.513 276.112C154.555 276.028 154.599 275.942 154.643 275.856C156.426 272.85 160.448 272.854 165.581 271.887Z" fill="#07AD49"/>
<path d="M151.285 291.551C155.586 292.979 160.573 287.773 162.529 284.992C162.915 285.026 163.289 285.089 163.649 285.178C164.33 296.075 155.69 293.967 151.285 291.551Z" fill="#B8B8B8"/>
<path fill-rule="evenodd" clip-rule="evenodd" d="M149.385 285.976C149.419 285.866 149.456 285.757 149.495 285.649C150.327 283.335 152.201 281.473 156.036 281.623C158.139 282.081 160.855 283.15 162.134 284.968C162.267 284.973 162.399 284.981 162.529 284.992C160.573 287.773 155.586 292.979 151.285 291.551C155.69 293.967 164.33 296.075 163.649 285.178C166.166 285.801 167.998 287.702 167.998 289.95C167.998 292.678 165.303 294.894 161.958 294.936C161.926 294.937 161.893 294.937 161.86 294.937C161.835 294.937 161.809 294.937 161.783 294.937C160.97 294.932 159.022 294.792 156.437 294.251C152.942 293.519 150.926 292.878 150.434 291.689C149.978 290.589 149.043 287.455 149.385 285.976ZM160.922 294.988C160.217 295.045 159.539 295.1 158.946 294.845C158.32 295.1 157.673 295.046 156.985 294.989C156.678 294.963 156.362 294.937 156.036 294.937C155.919 294.937 155.8 294.937 155.68 294.937" fill="#BEBEBE"/>
<path d="M150.434 291.689C150.926 292.878 152.942 293.519 156.437 294.251C159.022 294.792 160.97 294.932 161.783 294.937C161.494 294.941 161.206 294.964 160.922 294.988C160.217 295.045 159.539 295.1 158.946 294.845C158.32 295.1 157.673 295.046 156.985 294.989C156.678 294.963 156.362 294.937 156.036 294.937C155.919 294.937 155.8 294.937 155.68 294.937L155.596 294.938C151.671 294.946 146.752 294.956 148.91 289.401C148.91 288.285 149.036 287.088 149.385 285.976C149.043 287.455 149.978 290.589 150.434 291.689Z" fill="#A4A4A4"/>
<path d="M105.883 307.184C108.586 307.898 111.722 305.295 112.951 303.904C113.193 303.921 113.429 303.953 113.655 303.997C114.083 309.446 108.652 308.392 105.883 307.184Z" fill="#B8B8B8"/>
<path fill-rule="evenodd" clip-rule="evenodd" d="M104.689 304.396C104.71 304.341 104.733 304.287 104.758 304.233C105.281 303.076 106.459 302.144 108.87 302.22C110.191 302.449 111.899 302.983 112.702 303.892C112.786 303.895 112.869 303.899 112.951 303.904C111.722 305.295 108.586 307.898 105.883 307.184C108.652 308.392 114.083 309.446 113.655 303.997C115.237 304.308 116.388 305.259 116.388 306.383C116.388 307.747 114.694 308.855 112.592 308.876C112.572 308.877 112.551 308.877 112.531 308.877C112.514 308.877 112.498 308.877 112.482 308.877C111.971 308.874 110.747 308.804 109.121 308.534C106.925 308.167 105.658 307.847 105.348 307.252C105.062 306.703 104.474 305.136 104.689 304.396ZM111.941 308.902C111.498 308.931 111.071 308.958 110.698 308.831C110.305 308.958 109.899 308.931 109.466 308.903C109.273 308.89 109.075 308.877 108.87 308.877C108.796 308.877 108.721 308.877 108.645 308.877" fill="#BEBEBE"/>
<path d="M105.348 307.252C105.658 307.847 106.925 308.167 109.121 308.534C110.747 308.804 111.971 308.874 112.482 308.877C112.3 308.879 112.119 308.89 111.941 308.902C111.498 308.931 111.071 308.958 110.698 308.831C110.305 308.958 109.899 308.931 109.466 308.903C109.273 308.89 109.075 308.877 108.87 308.877C108.796 308.877 108.721 308.877 108.645 308.877L108.593 308.877C106.126 308.881 103.034 308.886 104.391 306.109C104.391 305.551 104.47 304.952 104.689 304.396C104.474 305.136 105.062 306.703 105.348 307.252Z" fill="#A4A4A4"/>
<path d="M13.3963 234.396C10.2015 235.466 6.49631 231.562 5.04309 229.477C4.75698 229.502 4.47882 229.549 4.21109 229.616C3.70524 237.788 10.1238 236.208 13.3963 234.396Z" fill="#B8B8B8"/>
<path fill-rule="evenodd" clip-rule="evenodd" d="M14.8078 230.215C14.7822 230.132 14.755 230.05 14.7261 229.969C14.1075 228.234 12.7155 226.837 9.86658 226.95C8.3045 227.293 6.287 228.095 5.33719 229.458C5.2383 229.462 5.14024 229.468 5.04309 229.477C6.49631 231.562 10.2015 235.466 13.3963 234.396C10.1238 236.208 3.70524 237.788 4.21109 229.616C2.34136 230.083 0.980835 231.508 0.980835 233.195C0.980835 235.24 2.98292 236.903 5.46741 236.934C5.49163 236.935 5.51588 236.935 5.54019 236.935C5.55936 236.935 5.57853 236.935 5.59769 236.935C6.20144 236.931 7.64856 236.826 9.56915 236.42C12.165 235.871 13.6626 235.391 14.0287 234.499C14.3671 233.674 15.0613 231.324 14.8078 230.215ZM6.23727 236.973C6.76096 237.016 7.26467 237.057 7.70547 236.866C8.17029 237.057 8.65042 237.017 9.16217 236.974C9.39022 236.955 9.62453 236.935 9.86658 236.935C9.95408 236.935 10.0425 236.935 10.1317 236.935" fill="#BEBEBE"/>
<path d="M14.0287 234.499C13.6626 235.391 12.165 235.871 9.56915 236.42C7.64856 236.826 6.20144 236.931 5.59769 236.935C5.81225 236.938 6.02639 236.956 6.23727 236.973C6.76096 237.016 7.26467 237.057 7.70547 236.866C8.17029 237.057 8.65042 237.017 9.16217 236.974C9.39022 236.955 9.62453 236.935 9.86658 236.935C9.95408 236.935 10.0425 236.935 10.1317 236.935L10.1936 236.935C13.1094 236.941 16.7636 236.949 15.1602 232.783C15.1602 231.946 15.0668 231.049 14.8078 230.215C15.0613 231.324 14.3671 233.674 14.0287 234.499Z" fill="#A4A4A4"/>
<path d="M336.761 195.864C329.978 200.825 325.283 210.747 325.357 210.289H314.027C313.903 210.314 313.729 210.228 314.027 209.678C315.518 205.648 310.127 197.11 307.245 193.345C310.166 193.711 315.349 197.67 317.575 199.603C318.109 197.242 317.375 194.05 316.636 192.047C318.843 194.49 320.289 198.56 320.736 200.29C320.268 193.41 329.113 187.434 333.864 185.161C331.155 186.704 326.388 196.419 324.185 201.447C324.148 201.519 324.116 201.592 324.09 201.664C324.121 201.593 324.153 201.521 324.185 201.447C325.477 198.911 333.041 196.68 336.761 195.864Z" fill="#07AD49"/>
<path d="M306.946 195.813C313.798 200.786 318.541 210.732 318.466 210.273H329.91C330.035 210.299 330.211 210.212 329.91 209.661C328.404 205.622 333.85 197.063 336.761 193.289C333.81 193.656 328.575 197.624 326.326 199.562C325.787 197.195 326.528 193.996 327.275 191.988C325.046 194.436 323.586 198.517 323.134 200.251C323.606 193.354 314.672 187.363 309.873 185.085C312.609 186.632 317.425 196.37 319.65 201.411C319.687 201.483 319.719 201.555 319.746 201.628C319.714 201.557 319.683 201.484 319.65 201.411C318.345 198.868 310.705 196.632 306.946 195.813Z" fill="#0D893F"/>
<path d="M337.73 199.527C330.879 203.901 330.831 210.679 330.907 210.275H319.463C319.337 210.298 319.161 210.221 319.463 209.737C320.968 206.184 312.317 204.679 309.406 201.359C312.357 201.682 320.798 199.15 323.046 200.855C323.586 198.773 323.793 198.316 323.046 196.55C325.275 198.704 324.831 199.986 325.283 201.512C324.81 195.446 332.182 190.139 333.631 187.926C330.894 189.286 331.948 198.047 329.722 202.48C329.685 202.544 329.653 202.608 329.627 202.671C329.658 202.609 329.69 202.545 329.722 202.48C331.027 200.244 333.972 200.247 337.73 199.527Z" fill="#07AD49"/>
<path d="M164.257 266.964C154.993 273.631 148.579 286.963 148.681 286.348H133.206C133.036 286.382 132.799 286.266 133.206 285.528C135.242 280.112 127.878 268.639 123.942 263.58C127.932 264.072 135.011 269.391 138.052 271.99C138.781 268.817 137.779 264.528 136.769 261.836C139.783 265.118 141.758 270.588 142.369 272.913C141.73 263.668 153.811 255.637 160.301 252.583C156.6 254.656 150.089 267.71 147.079 274.468C147.029 274.564 146.986 274.661 146.95 274.759C146.992 274.663 147.035 274.566 147.079 274.468C148.844 271.059 159.175 268.061 164.257 266.964Z" fill="#07AD49"/>
<path d="M123.534 266.897C132.892 273.579 139.371 286.944 139.268 286.327H154.899C155.071 286.362 155.311 286.245 154.899 285.505C152.843 280.077 160.281 268.576 164.257 263.504C160.226 263.998 153.076 269.33 150.004 271.934C149.268 268.754 150.281 264.454 151.3 261.756C148.256 265.046 146.261 270.529 145.644 272.86C146.289 263.592 134.086 255.542 127.531 252.481C131.269 254.559 137.846 267.645 140.886 274.418C140.936 274.515 140.98 274.613 141.016 274.71C140.974 274.614 140.93 274.517 140.886 274.418C139.103 271.001 128.668 267.996 123.534 266.897Z" fill="#0D893F"/>
<path d="M165.581 271.887C156.223 277.765 156.158 286.873 156.261 286.33H140.63C140.458 286.36 140.218 286.258 140.63 285.607C142.686 280.832 130.87 278.809 126.894 274.349C130.925 274.783 142.453 271.38 145.525 273.671C146.261 270.874 146.544 270.26 145.525 267.887C148.569 270.781 147.962 272.504 148.579 274.554C147.934 266.403 158.002 259.272 159.981 256.298C156.243 258.126 157.683 269.898 154.643 275.856C154.593 275.941 154.549 276.027 154.513 276.112C154.555 276.028 154.599 275.942 154.643 275.856C156.426 272.85 160.448 272.854 165.581 271.887Z" fill="#07AD49"/>
<path d="M151.285 291.551C155.586 292.979 160.573 287.773 162.529 284.992C162.915 285.026 163.289 285.089 163.649 285.178C164.33 296.075 155.69 293.967 151.285 291.551Z" fill="#B8B8B8"/>
<path fill-rule="evenodd" clip-rule="evenodd" d="M149.385 285.976C149.419 285.866 149.456 285.757 149.495 285.649C150.327 283.335 152.201 281.473 156.036 281.623C158.139 282.081 160.855 283.15 162.134 284.968C162.267 284.973 162.399 284.981 162.529 284.992C160.573 287.773 155.586 292.979 151.285 291.551C155.69 293.967 164.33 296.075 163.649 285.178C166.166 285.801 167.998 287.702 167.998 289.95C167.998 292.678 165.303 294.894 161.958 294.936C161.926 294.937 161.893 294.937 161.86 294.937C161.835 294.937 161.809 294.937 161.783 294.937C160.97 294.932 159.022 294.792 156.437 294.251C152.942 293.519 150.926 292.878 150.434 291.689C149.978 290.589 149.043 287.455 149.385 285.976ZM160.922 294.988C160.217 295.045 159.539 295.1 158.946 294.845C158.32 295.1 157.673 295.046 156.985 294.989C156.678 294.963 156.362 294.937 156.036 294.937C155.919 294.937 155.8 294.937 155.68 294.937" fill="#BEBEBE"/>
<path d="M150.434 291.689C150.926 292.878 152.942 293.519 156.437 294.251C159.022 294.792 160.97 294.932 161.783 294.937C161.494 294.941 161.206 294.964 160.922 294.988C160.217 295.045 159.539 295.1 158.946 294.845C158.32 295.1 157.673 295.046 156.985 294.989C156.678 294.963 156.362 294.937 156.036 294.937C155.919 294.937 155.8 294.937 155.68 294.937L155.596 294.938C151.671 294.946 146.752 294.956 148.91 289.401C148.91 288.285 149.036 287.088 149.385 285.976C149.043 287.455 149.978 290.589 150.434 291.689Z" fill="#A4A4A4"/>
<path d="M105.883 307.184C108.586 307.898 111.722 305.295 112.951 303.904C113.193 303.921 113.429 303.953 113.655 303.997C114.083 309.446 108.652 308.392 105.883 307.184Z" fill="#B8B8B8"/>
<path fill-rule="evenodd" clip-rule="evenodd" d="M104.689 304.396C104.71 304.341 104.733 304.287 104.758 304.233C105.281 303.076 106.459 302.144 108.87 302.22C110.191 302.449 111.899 302.983 112.702 303.892C112.786 303.895 112.869 303.899 112.951 303.904C111.722 305.295 108.586 307.898 105.883 307.184C108.652 308.392 114.083 309.446 113.655 303.997C115.237 304.308 116.388 305.259 116.388 306.383C116.388 307.747 114.694 308.855 112.592 308.876C112.572 308.877 112.551 308.877 112.531 308.877C112.514 308.877 112.498 308.877 112.482 308.877C111.971 308.874 110.747 308.804 109.121 308.534C106.925 308.167 105.658 307.847 105.348 307.252C105.062 306.703 104.474 305.136 104.689 304.396ZM111.941 308.902C111.498 308.931 111.071 308.958 110.698 308.831C110.305 308.958 109.899 308.931 109.466 308.903C109.273 308.89 109.075 308.877 108.87 308.877C108.796 308.877 108.721 308.877 108.645 308.877" fill="#BEBEBE"/>
<path d="M105.348 307.252C105.658 307.847 106.925 308.167 109.121 308.534C110.747 308.804 111.971 308.874 112.482 308.877C112.3 308.879 112.119 308.89 111.941 308.902C111.498 308.931 111.071 308.958 110.698 308.831C110.305 308.958 109.899 308.931 109.466 308.903C109.273 308.89 109.075 308.877 108.87 308.877C108.796 308.877 108.721 308.877 108.645 308.877L108.593 308.877C106.126 308.881 103.034 308.886 104.391 306.109C104.391 305.551 104.47 304.952 104.689 304.396C104.474 305.136 105.062 306.703 105.348 307.252Z" fill="#A4A4A4"/>
<path d="M13.3963 234.396C10.2015 235.466 6.49631 231.562 5.04309 229.477C4.75698 229.502 4.47882 229.549 4.21109 229.616C3.70524 237.788 10.1238 236.208 13.3963 234.396Z" fill="#B8B8B8"/>
<path fill-rule="evenodd" clip-rule="evenodd" d="M14.8078 230.215C14.7822 230.132 14.755 230.05 14.7261 229.969C14.1075 228.234 12.7155 226.837 9.86658 226.95C8.3045 227.293 6.287 228.095 5.33719 229.458C5.2383 229.462 5.14024 229.468 5.04309 229.477C6.49631 231.562 10.2015 235.466 13.3963 234.396C10.1238 236.208 3.70524 237.788 4.21109 229.616C2.34136 230.083 0.980835 231.508 0.980835 233.195C0.980835 235.24 2.98292 236.903 5.46741 236.934C5.49163 236.935 5.51588 236.935 5.54019 236.935C5.55936 236.935 5.57853 236.935 5.59769 236.935C6.20144 236.931 7.64856 236.826 9.56915 236.42C12.165 235.871 13.6626 235.391 14.0287 234.499C14.3671 233.674 15.0613 231.324 14.8078 230.215ZM6.23727 236.973C6.76096 237.016 7.26467 237.057 7.70547 236.866C8.17029 237.057 8.65042 237.017 9.16217 236.974C9.39022 236.955 9.62453 236.935 9.86658 236.935C9.95408 236.935 10.0425 236.935 10.1317 236.935" fill="#BEBEBE"/>
<path d="M14.0287 234.499C13.6626 235.391 12.165 235.871 9.56915 236.42C7.64856 236.826 6.20144 236.931 5.59769 236.935C5.81225 236.938 6.02639 236.956 6.23727 236.973C6.76096 237.016 7.26467 237.057 7.70547 236.866C8.17029 237.057 8.65042 237.017 9.16217 236.974C9.39022 236.955 9.62453 236.935 9.86658 236.935C9.95408 236.935 10.0425 236.935 10.1317 236.935L10.1936 236.935C13.1094 236.941 16.7636 236.949 15.1602 232.783C15.1602 231.946 15.0668 231.049 14.8078 230.215C15.0613 231.324 14.3671 233.674 14.0287 234.499Z" fill="#A4A4A4"/>
</svg>
