<svg width="430" height="441" viewBox="0 0 430 441" fill="none" xmlns="http://www.w3.org/2000/svg">
<path d="M292.563 421.976C301.387 428.329 307.495 441.034 307.398 440.448H322.137C322.299 440.481 322.525 440.37 322.137 439.666C320.198 434.506 327.212 423.572 330.961 418.751C327.16 419.22 320.418 424.289 317.522 426.765C316.827 423.741 317.782 419.654 318.743 417.089C315.873 420.217 313.992 425.429 313.41 427.645C314.018 418.834 302.512 411.182 296.331 408.271C299.856 410.247 306.058 422.687 308.924 429.126C308.971 429.219 309.013 429.311 309.047 429.404C309.007 429.313 308.965 429.22 308.924 429.126C307.243 425.878 297.403 423.021 292.563 421.976Z" fill="#07AD49"/>
<path d="M331.349 421.912C322.436 428.28 316.265 441.016 316.363 440.428H301.476C301.312 440.461 301.084 440.35 301.476 439.645C303.435 434.472 296.35 423.512 292.563 418.679C296.402 419.149 303.213 424.23 306.138 426.712C306.839 423.681 305.875 419.584 304.904 417.013C307.803 420.148 309.703 425.373 310.291 427.594C309.677 418.763 321.299 411.091 327.542 408.174C323.982 410.155 317.718 422.624 314.823 429.079C314.774 429.172 314.733 429.265 314.698 429.358C314.739 429.266 314.78 429.173 314.823 429.079C316.52 425.823 326.46 422.96 331.349 421.912Z" fill="#0D893F"/>
<path d="M291.302 426.667C300.215 432.268 300.277 440.948 300.179 440.431H315.067C315.23 440.459 315.458 440.362 315.067 439.741C313.108 435.192 324.362 433.264 328.149 429.013C324.31 429.427 313.33 426.184 310.404 428.367C309.703 425.701 309.433 425.117 310.404 422.856C307.505 425.613 308.083 427.255 307.495 429.208C308.11 421.441 298.52 414.646 296.635 411.812C300.195 413.554 298.825 424.772 301.72 430.449C301.768 430.53 301.809 430.612 301.844 430.694C301.803 430.613 301.762 430.532 301.72 430.449C300.022 427.585 296.191 427.589 291.302 426.667Z" fill="#07AD49"/>
<path d="M3.44916 71.7748C11.992 78.0361 17.9062 90.5586 17.8124 89.9807H32.0817C32.2381 90.0128 32.4572 89.9036 32.0817 89.21C30.2041 84.124 36.9946 73.3481 40.6245 68.596C36.9445 69.0584 30.4169 74.0546 27.6131 76.4948C26.941 73.5147 27.8653 69.4863 28.796 66.9584C26.0172 70.0409 24.196 75.1784 23.6327 77.3618C24.2214 68.6785 13.0815 61.1357 7.09776 58.2675C10.5101 60.2149 16.5143 72.4754 19.2891 78.8222C19.3353 78.913 19.3751 79.0042 19.4083 79.0957C19.3692 79.0058 19.3295 78.9146 19.2891 78.8222C17.6619 75.6207 8.13517 72.8052 3.44916 71.7748Z" fill="#07AD49"/>
<path d="M41 71.7115C32.3709 77.9879 26.3969 90.5406 26.4917 89.9613H12.0783C11.9202 89.9935 11.699 89.884 12.0783 89.1888C13.9748 84.0904 7.11574 73.2886 3.44916 68.525C7.16631 68.9885 13.7598 73.9967 16.592 76.4429C17.2709 73.4556 16.3373 69.4175 15.3972 66.8835C18.204 69.9734 20.0436 75.1233 20.6125 77.312C20.0179 68.6077 31.2703 61.0467 37.3145 58.1716C33.8678 60.1237 27.8029 72.4138 25.0001 78.7758C24.9534 78.8669 24.9132 78.9583 24.8797 79.05C24.9191 78.9599 24.9592 78.8685 25.0001 78.7758C26.6437 75.5667 36.2667 72.7443 41 71.7115Z" fill="#0D893F"/>
<path d="M2.22876 76.3985C10.8579 81.9187 10.9176 90.4732 10.8228 89.9636H25.2363C25.3943 89.992 25.6156 89.8957 25.2363 89.2842C23.3398 84.8002 34.2355 82.9001 37.9021 78.7104C34.1849 79.118 23.5547 75.9225 20.7226 78.074C20.0436 75.4466 19.7825 74.8705 20.7226 72.6418C17.9157 75.3594 18.4752 76.978 17.9063 78.903C18.5009 71.2475 9.21691 64.5503 7.392 61.7568C10.8388 63.4736 9.51162 74.5303 12.3145 80.1258C12.3611 80.206 12.4014 80.2863 12.4349 80.367C12.3954 80.2877 12.3553 80.2073 12.3145 80.1258C10.6708 77.3033 6.9621 77.3069 2.22876 76.3985Z" fill="#07AD49"/>
<path d="M39.3745 267.219C50.2093 275.045 57.7103 290.698 57.5913 289.976H75.689C75.8874 290.016 76.1652 289.879 75.689 289.013C73.3077 282.655 81.9199 269.185 86.5237 263.245C81.8564 263.823 73.5776 270.068 70.0215 273.119C69.169 269.393 70.3413 264.358 71.5217 261.198C67.9974 265.051 65.6876 271.473 64.9732 274.202C65.7199 263.348 51.5912 253.92 44.002 250.334C48.3299 252.769 55.9449 268.094 59.4642 276.028C59.5228 276.141 59.5733 276.255 59.6154 276.37C59.5659 276.257 59.5155 276.143 59.4642 276.028C57.4004 272.026 45.3178 268.506 39.3745 267.219Z" fill="#07AD49"/>
<path d="M87 267.139C76.0558 274.985 68.479 290.676 68.5993 289.952H50.3188C50.1183 289.992 49.8377 289.855 50.3188 288.986C52.7241 282.613 44.0248 269.111 39.3745 263.156C44.089 263.736 52.4515 269.996 56.0435 273.054C56.9046 269.319 55.7204 264.272 54.5281 261.104C58.088 264.967 60.4211 271.404 61.1427 274.14C60.3886 263.26 74.6599 253.808 82.3258 250.215C77.9542 252.655 70.2622 268.017 66.7074 275.97C66.6482 276.084 66.5972 276.198 66.5547 276.313C66.6047 276.2 66.6556 276.086 66.7074 275.97C68.792 271.958 80.9967 268.43 87 267.139Z" fill="#0D893F"/>
<path d="M37.8267 272.998C48.7709 279.898 48.8468 290.592 48.7265 289.955H67.007C67.2074 289.99 67.488 289.87 67.007 289.105C64.6017 283.5 78.4207 281.125 83.071 275.888C78.3565 276.398 64.8743 272.403 61.2823 275.092C60.4212 271.808 60.09 271.088 61.2823 268.302C57.7224 271.699 58.432 273.723 57.7104 276.129C58.4646 266.559 46.6897 258.188 44.3752 254.696C48.7467 256.842 47.0635 270.663 50.6183 277.657C50.6775 277.757 50.7285 277.858 50.771 277.959C50.721 277.86 50.6701 277.759 50.6183 277.657C48.5337 274.129 43.83 274.134 37.8267 272.998Z" fill="#07AD49"/>
<path d="M220.711 161.51C232.379 169.923 240.457 186.751 240.329 185.974H259.819C260.033 186.017 260.332 185.87 259.819 184.938C257.254 178.104 266.529 163.624 271.487 157.238C266.461 157.86 257.545 164.573 253.715 167.852C252.797 163.848 254.06 158.435 255.331 155.038C251.536 159.18 249.048 166.083 248.279 169.017C249.083 157.349 233.867 147.214 225.695 143.359C230.355 145.976 238.556 162.451 242.346 170.98C242.409 171.102 242.464 171.224 242.509 171.347C242.456 171.227 242.401 171.104 242.346 170.98C240.124 166.678 227.111 162.894 220.711 161.51Z" fill="#07AD49"/>
<path d="M272 161.425C260.214 169.859 252.054 186.726 252.184 185.948H232.497C232.281 185.991 231.979 185.844 232.497 184.91C235.087 178.059 225.719 163.544 220.711 157.143C225.788 157.766 234.794 164.496 238.662 167.783C239.59 163.768 238.314 158.342 237.03 154.937C240.864 159.089 243.377 166.009 244.154 168.95C243.342 157.254 258.711 147.094 266.966 143.231C262.258 145.854 253.975 162.369 250.146 170.918C250.083 171.04 250.028 171.163 249.982 171.286C250.036 171.165 250.091 171.042 250.146 170.918C252.391 166.605 265.535 162.813 272 161.425Z" fill="#0D893F"/>
<path d="M219.044 167.723C230.83 175.141 230.912 186.636 230.782 185.951H250.469C250.685 185.989 250.987 185.86 250.469 185.038C247.879 179.013 262.761 176.459 267.769 170.83C262.692 171.377 248.172 167.083 244.304 169.974C243.377 166.444 243.02 165.67 244.304 162.675C240.47 166.327 241.234 168.502 240.457 171.088C241.27 160.801 228.589 151.802 226.096 148.048C230.804 150.355 228.991 165.213 232.82 172.732C232.883 172.839 232.938 172.947 232.984 173.056C232.93 172.949 232.876 172.841 232.82 172.732C230.575 168.939 225.509 168.944 219.044 167.723Z" fill="#07AD49"/>
<path d="M237.05 192.541C231.633 194.342 225.351 187.773 222.887 184.263C222.402 184.306 221.931 184.385 221.477 184.498C220.619 198.25 231.501 195.59 237.05 192.541Z" fill="#B8B8B8"/>
<path fill-rule="evenodd" clip-rule="evenodd" d="M239.443 185.505C239.399 185.366 239.353 185.229 239.304 185.092C238.255 182.172 235.895 179.821 231.065 180.011C228.417 180.588 224.996 181.938 223.386 184.232C223.218 184.238 223.052 184.248 222.887 184.263C225.351 187.773 231.633 194.342 237.05 192.541C231.501 195.59 220.619 198.25 221.477 184.498C218.307 185.283 216 187.682 216 190.52C216 193.962 219.394 196.759 223.607 196.813C223.648 196.814 223.689 196.814 223.73 196.814C223.763 196.814 223.795 196.814 223.828 196.814C224.851 196.807 227.305 196.631 230.561 195.948C234.962 195.024 237.501 194.215 238.122 192.714C238.695 191.326 239.872 187.371 239.443 185.505ZM224.912 196.878C225.8 196.95 226.654 197.019 227.401 196.698C228.189 197.02 229.003 196.952 229.871 196.879C230.257 196.847 230.655 196.814 231.065 196.814C231.213 196.814 231.363 196.814 231.515 196.814" fill="#BEBEBE"/>
<path d="M238.122 192.714C237.501 194.215 234.962 195.024 230.561 195.948C227.305 196.631 224.851 196.807 223.828 196.814C224.191 196.819 224.554 196.849 224.912 196.878C225.8 196.95 226.654 197.019 227.401 196.698C228.189 197.02 229.003 196.952 229.871 196.879C230.257 196.847 230.655 196.814 231.065 196.814C231.213 196.814 231.363 196.814 231.515 196.814L231.62 196.815C236.563 196.825 242.758 196.838 240.04 189.827C240.04 188.418 239.882 186.908 239.443 185.505C239.872 187.371 238.695 191.326 238.122 192.714Z" fill="#A4A4A4"/>
<path d="M294.231 212.27C290.826 213.171 286.878 209.886 285.329 208.131C285.024 208.153 284.728 208.193 284.442 208.249C283.903 215.125 290.744 213.795 294.231 212.27Z" fill="#B8B8B8"/>
<path fill-rule="evenodd" clip-rule="evenodd" d="M295.735 208.752C295.708 208.683 295.679 208.614 295.648 208.546C294.989 207.086 293.506 205.91 290.47 206.005C288.805 206.294 286.655 206.969 285.643 208.116C285.537 208.119 285.433 208.124 285.329 208.131C286.878 209.886 290.826 213.171 294.231 212.27C290.744 213.795 283.903 215.125 284.442 208.249C282.45 208.641 281 209.841 281 211.26C281 212.981 283.134 214.38 285.781 214.407C285.807 214.407 285.833 214.407 285.859 214.407C285.879 214.407 285.9 214.407 285.92 214.407C286.564 214.404 288.106 214.316 290.153 213.974C292.919 213.512 294.515 213.108 294.905 212.357C295.266 211.663 296.005 209.686 295.735 208.752ZM286.602 214.439C287.16 214.475 287.697 214.51 288.166 214.349C288.662 214.51 289.173 214.476 289.719 214.44C289.962 214.423 290.212 214.407 290.47 214.407C290.563 214.407 290.657 214.407 290.752 214.407" fill="#BEBEBE"/>
<path d="M294.905 212.357C294.515 213.108 292.919 213.512 290.153 213.974C288.106 214.316 286.564 214.404 285.92 214.407C286.149 214.41 286.377 214.424 286.602 214.439C287.16 214.475 287.697 214.51 288.166 214.349C288.662 214.51 289.173 214.476 289.719 214.44C289.962 214.423 290.212 214.407 290.47 214.407C290.563 214.407 290.657 214.407 290.752 214.407L290.818 214.407C293.925 214.412 297.82 214.419 296.111 210.913C296.111 210.209 296.011 209.454 295.735 208.752C296.005 209.686 295.266 211.663 294.905 212.357Z" fill="#A4A4A4"/>
<path d="M410.714 120.406C414.738 121.757 419.405 116.83 421.235 114.197C421.595 114.229 421.946 114.289 422.283 114.373C422.92 124.687 414.836 122.692 410.714 120.406Z" fill="#B8B8B8"/>
<path fill-rule="evenodd" clip-rule="evenodd" d="M408.937 115.129C408.969 115.025 409.003 114.921 409.04 114.819C409.819 112.629 411.572 110.866 415.16 111.008C417.127 111.441 419.668 112.453 420.865 114.174C420.989 114.179 421.113 114.186 421.235 114.197C419.405 116.83 414.738 121.757 410.714 120.406C414.836 122.692 422.92 124.687 422.283 114.373C424.638 114.962 426.351 116.762 426.351 118.89C426.351 121.472 423.83 123.57 420.701 123.61C420.67 123.61 420.64 123.61 420.609 123.61C420.585 123.61 420.561 123.611 420.536 123.611C419.776 123.605 417.954 123.473 415.535 122.961C412.265 122.268 410.379 121.662 409.918 120.536C409.492 119.495 408.617 116.529 408.937 115.129ZM419.731 123.658C419.071 123.712 418.437 123.764 417.882 123.524C417.296 123.765 416.692 123.714 416.047 123.659C415.76 123.635 415.465 123.61 415.16 123.61C415.05 123.61 414.938 123.611 414.826 123.611" fill="#BEBEBE"/>
<path d="M409.918 120.536C410.379 121.662 412.265 122.268 415.535 122.961C417.954 123.473 419.776 123.605 420.536 123.611C420.266 123.614 419.997 123.636 419.731 123.658C419.071 123.712 418.437 123.764 417.882 123.524C417.296 123.765 416.692 123.714 416.047 123.659C415.76 123.635 415.465 123.61 415.16 123.61C415.05 123.61 414.938 123.611 414.826 123.611L414.748 123.611C411.076 123.619 406.473 123.628 408.493 118.37C408.493 117.314 408.611 116.181 408.937 115.129C408.617 116.529 409.492 119.495 409.918 120.536Z" fill="#A4A4A4"/>
<path d="M70.6227 302.27C68.1465 303.171 65.2748 299.886 64.1484 298.131C63.9267 298.153 63.7111 298.193 63.5036 298.249C63.1115 305.125 68.0863 303.795 70.6227 302.27Z" fill="#B8B8B8"/>
<path fill-rule="evenodd" clip-rule="evenodd" d="M71.7166 298.752C71.6968 298.683 71.6757 298.614 71.6533 298.546C71.1738 297.086 70.095 295.91 67.8869 296.005C66.6762 296.294 65.1125 296.969 64.3764 298.116C64.2997 298.119 64.2237 298.124 64.1484 298.131C65.2748 299.886 68.1465 303.171 70.6227 302.27C68.0863 303.795 63.1115 305.125 63.5036 298.249C62.0545 298.641 61 299.841 61 301.26C61 302.981 62.5517 304.38 64.4773 304.407C64.4961 304.407 64.5149 304.407 64.5337 304.407C64.5486 304.407 64.5634 304.407 64.5783 304.407C65.0462 304.404 66.1678 304.316 67.6564 303.974C69.6683 303.512 70.829 303.108 71.1127 302.357C71.3751 301.663 71.9131 299.686 71.7166 298.752ZM65.074 304.439C65.4799 304.475 65.8703 304.51 66.2119 304.349C66.5722 304.51 66.9443 304.476 67.341 304.44C67.5177 304.423 67.6993 304.407 67.8869 304.407C67.9547 304.407 68.0233 304.407 68.0923 304.407" fill="#BEBEBE"/>
<path d="M71.1127 302.357C70.829 303.108 69.6683 303.512 67.6564 303.974C66.1678 304.316 65.0462 304.404 64.5783 304.407C64.7446 304.41 64.9106 304.424 65.074 304.439C65.4799 304.475 65.8703 304.51 66.2119 304.349C66.5722 304.51 66.9443 304.476 67.341 304.44C67.5177 304.423 67.6993 304.407 67.8869 304.407C67.9547 304.407 68.0233 304.407 68.0923 304.407L68.1404 304.407C70.4003 304.412 73.2325 304.419 71.9897 300.913C71.9897 300.209 71.9173 299.454 71.7166 298.752C71.9131 299.686 71.3751 301.663 71.1127 302.357Z" fill="#A4A4A4"/>
<path d="M345.749 41C348.592 43.4492 352.802 45 357.5 45C362.198 45 366.408 43.4492 369.25 41C366.408 38.5508 362.198 37 357.5 37C352.802 37 348.592 38.5508 345.749 41Z" fill="#866E4A"/>
<path d="M357.5 22C348.939 22 342 27.1487 342 33.5C342 36.3656 343.412 38.9864 345.749 41C348.592 38.5508 352.802 37 357.5 37C362.198 37 366.408 38.5508 369.25 41C371.587 38.9864 373 36.3656 373 33.5C373 27.1487 366.06 22 357.5 22Z" fill="#784C25"/>
<path d="M373 48.5V33.5C373 36.3656 371.587 38.9864 369.25 41C371.587 43.0136 373 45.6344 373 48.5Z" fill="#784C25"/>
<path d="M342 33.5V48.5C342 45.6344 343.412 43.0136 345.749 41C343.412 38.9864 342 36.3656 342 33.5Z" fill="#784C25"/>
<path fill-rule="evenodd" clip-rule="evenodd" d="M348.762 58C365.774 56.0999 369.116 51.8018 369.25 41C366.408 43.4492 362.198 45 357.5 45C352.802 45 348.592 43.4492 345.749 41C343.412 43.0136 342 45.6344 342 48.5C342 52.4466 344.679 55.9289 348.762 58Z" fill="#C7B599"/>
<path d="M357.5 60C366.06 60 373 54.8513 373 48.5C373 45.6344 371.587 43.0136 369.25 41C369.116 51.8018 365.774 56.0999 348.762 58C351.25 59.2619 354.259 60 357.5 60Z" fill="#C1AA88"/>
<path d="M292.643 7.89844L429.476 52.5393L428.26 56.265L291.428 11.6242L292.643 7.89844Z" fill="#866E4A"/>
<path d="M292.643 7.89844L429.476 52.5393L424.512 43.5L291.428 0L292.643 7.89844Z" fill="#784C25"/>
<path d="M291.428 11.6242L292.643 7.89844L291.428 0L290.012 4.5L291.428 11.6242Z" fill="#866E4A"/>
<path d="M292.563 421.976C301.387 428.329 307.495 441.034 307.398 440.448H322.137C322.299 440.481 322.525 440.37 322.137 439.666C320.198 434.506 327.212 423.572 330.961 418.751C327.16 419.22 320.418 424.289 317.522 426.765C316.827 423.741 317.782 419.654 318.743 417.089C315.873 420.217 313.992 425.429 313.41 427.645C314.018 418.834 302.512 411.182 296.331 408.271C299.856 410.247 306.058 422.687 308.924 429.126C308.971 429.219 309.013 429.311 309.047 429.404C309.007 429.313 308.965 429.22 308.924 429.126C307.243 425.878 297.403 423.021 292.563 421.976Z" fill="#07AD49"/>
<path d="M331.349 421.912C322.436 428.28 316.265 441.016 316.363 440.428H301.476C301.312 440.461 301.084 440.35 301.476 439.645C303.435 434.472 296.35 423.512 292.563 418.679C296.402 419.149 303.213 424.23 306.138 426.712C306.839 423.681 305.875 419.584 304.904 417.013C307.803 420.148 309.703 425.373 310.291 427.594C309.677 418.763 321.299 411.091 327.542 408.174C323.982 410.155 317.718 422.624 314.823 429.079C314.774 429.172 314.733 429.265 314.698 429.358C314.739 429.266 314.78 429.173 314.823 429.079C316.52 425.823 326.46 422.96 331.349 421.912Z" fill="#0D893F"/>
<path d="M291.302 426.667C300.215 432.268 300.277 440.948 300.179 440.431H315.067C315.23 440.459 315.458 440.362 315.067 439.741C313.108 435.192 324.362 433.264 328.149 429.013C324.31 429.427 313.33 426.184 310.404 428.367C309.703 425.701 309.433 425.117 310.404 422.856C307.505 425.613 308.083 427.255 307.495 429.208C308.11 421.441 298.52 414.646 296.635 411.812C300.195 413.554 298.825 424.772 301.72 430.449C301.768 430.53 301.809 430.612 301.844 430.694C301.803 430.613 301.762 430.532 301.72 430.449C300.022 427.585 296.191 427.589 291.302 426.667Z" fill="#07AD49"/>
<path d="M3.44916 71.7748C11.992 78.0361 17.9062 90.5586 17.8124 89.9807H32.0817C32.2381 90.0128 32.4572 89.9036 32.0817 89.21C30.2041 84.124 36.9946 73.3481 40.6245 68.596C36.9445 69.0584 30.4169 74.0546 27.6131 76.4948C26.941 73.5147 27.8653 69.4863 28.796 66.9584C26.0172 70.0409 24.196 75.1784 23.6327 77.3618C24.2214 68.6785 13.0815 61.1357 7.09776 58.2675C10.5101 60.2149 16.5143 72.4754 19.2891 78.8222C19.3353 78.913 19.3751 79.0042 19.4083 79.0957C19.3692 79.0058 19.3295 78.9146 19.2891 78.8222C17.6619 75.6207 8.13517 72.8052 3.44916 71.7748Z" fill="#07AD49"/>
<path d="M41 71.7115C32.3709 77.9879 26.3969 90.5406 26.4917 89.9613H12.0783C11.9202 89.9935 11.699 89.884 12.0783 89.1888C13.9748 84.0904 7.11574 73.2886 3.44916 68.525C7.16631 68.9885 13.7598 73.9967 16.592 76.4429C17.2709 73.4556 16.3373 69.4175 15.3972 66.8835C18.204 69.9734 20.0436 75.1233 20.6125 77.312C20.0179 68.6077 31.2703 61.0467 37.3145 58.1716C33.8678 60.1237 27.8029 72.4138 25.0001 78.7758C24.9534 78.8669 24.9132 78.9583 24.8797 79.05C24.9191 78.9599 24.9592 78.8685 25.0001 78.7758C26.6437 75.5667 36.2667 72.7443 41 71.7115Z" fill="#0D893F"/>
<path d="M2.22876 76.3985C10.8579 81.9187 10.9176 90.4732 10.8228 89.9636H25.2363C25.3943 89.992 25.6156 89.8957 25.2363 89.2842C23.3398 84.8002 34.2355 82.9001 37.9021 78.7104C34.1849 79.118 23.5547 75.9225 20.7226 78.074C20.0436 75.4466 19.7825 74.8705 20.7226 72.6418C17.9157 75.3594 18.4752 76.978 17.9063 78.903C18.5009 71.2475 9.21691 64.5503 7.392 61.7568C10.8388 63.4736 9.51162 74.5303 12.3145 80.1258C12.3611 80.206 12.4014 80.2863 12.4349 80.367C12.3954 80.2877 12.3553 80.2073 12.3145 80.1258C10.6708 77.3033 6.9621 77.3069 2.22876 76.3985Z" fill="#07AD49"/>
<path d="M39.3745 267.219C50.2093 275.045 57.7103 290.698 57.5913 289.976H75.689C75.8874 290.016 76.1652 289.879 75.689 289.013C73.3077 282.655 81.9199 269.185 86.5237 263.245C81.8564 263.823 73.5776 270.068 70.0215 273.119C69.169 269.393 70.3413 264.358 71.5217 261.198C67.9974 265.051 65.6876 271.473 64.9732 274.202C65.7199 263.348 51.5912 253.92 44.002 250.334C48.3299 252.769 55.9449 268.094 59.4642 276.028C59.5228 276.141 59.5733 276.255 59.6154 276.37C59.5659 276.257 59.5155 276.143 59.4642 276.028C57.4004 272.026 45.3178 268.506 39.3745 267.219Z" fill="#07AD49"/>
<path d="M87 267.139C76.0558 274.985 68.479 290.676 68.5993 289.952H50.3188C50.1183 289.992 49.8377 289.855 50.3188 288.986C52.7241 282.613 44.0248 269.111 39.3745 263.156C44.089 263.736 52.4515 269.996 56.0435 273.054C56.9046 269.319 55.7204 264.272 54.5281 261.104C58.088 264.967 60.4211 271.404 61.1427 274.14C60.3886 263.26 74.6599 253.808 82.3258 250.215C77.9542 252.655 70.2622 268.017 66.7074 275.97C66.6482 276.084 66.5972 276.198 66.5547 276.313C66.6047 276.2 66.6556 276.086 66.7074 275.97C68.792 271.958 80.9967 268.43 87 267.139Z" fill="#0D893F"/>
<path d="M37.8267 272.998C48.7709 279.898 48.8468 290.592 48.7265 289.955H67.007C67.2074 289.99 67.488 289.87 67.007 289.105C64.6017 283.5 78.4207 281.125 83.071 275.888C78.3565 276.398 64.8743 272.403 61.2823 275.092C60.4212 271.808 60.09 271.088 61.2823 268.302C57.7224 271.699 58.432 273.723 57.7104 276.129C58.4646 266.559 46.6897 258.188 44.3752 254.696C48.7467 256.842 47.0635 270.663 50.6183 277.657C50.6775 277.757 50.7285 277.858 50.771 277.959C50.721 277.86 50.6701 277.759 50.6183 277.657C48.5337 274.129 43.83 274.134 37.8267 272.998Z" fill="#07AD49"/>
<path d="M220.711 161.51C232.379 169.923 240.457 186.751 240.329 185.974H259.819C260.033 186.017 260.332 185.87 259.819 184.938C257.254 178.104 266.529 163.624 271.487 157.238C266.461 157.86 257.545 164.573 253.715 167.852C252.797 163.848 254.06 158.435 255.331 155.038C251.536 159.18 249.048 166.083 248.279 169.017C249.083 157.349 233.867 147.214 225.695 143.359C230.355 145.976 238.556 162.451 242.346 170.98C242.409 171.102 242.464 171.224 242.509 171.347C242.456 171.227 242.401 171.104 242.346 170.98C240.124 166.678 227.111 162.894 220.711 161.51Z" fill="#07AD49"/>
<path d="M272 161.425C260.214 169.859 252.054 186.726 252.184 185.948H232.497C232.281 185.991 231.979 185.844 232.497 184.91C235.087 178.059 225.719 163.544 220.711 157.143C225.788 157.766 234.794 164.496 238.662 167.783C239.59 163.768 238.314 158.342 237.03 154.937C240.864 159.089 243.377 166.009 244.154 168.95C243.342 157.254 258.711 147.094 266.966 143.231C262.258 145.854 253.975 162.369 250.146 170.918C250.083 171.04 250.028 171.163 249.982 171.286C250.036 171.165 250.091 171.042 250.146 170.918C252.391 166.605 265.535 162.813 272 161.425Z" fill="#0D893F"/>
<path d="M219.044 167.723C230.83 175.141 230.912 186.636 230.782 185.951H250.469C250.685 185.989 250.987 185.86 250.469 185.038C247.879 179.013 262.761 176.459 267.769 170.83C262.692 171.377 248.172 167.083 244.304 169.974C243.377 166.444 243.02 165.67 244.304 162.675C240.47 166.327 241.234 168.502 240.457 171.088C241.27 160.801 228.589 151.802 226.096 148.048C230.804 150.355 228.991 165.213 232.82 172.732C232.883 172.839 232.938 172.947 232.984 173.056C232.93 172.949 232.876 172.841 232.82 172.732C230.575 168.939 225.509 168.944 219.044 167.723Z" fill="#07AD49"/>
<path d="M237.05 192.541C231.633 194.342 225.351 187.773 222.887 184.263C222.402 184.306 221.931 184.385 221.477 184.498C220.619 198.25 231.501 195.59 237.05 192.541Z" fill="#B8B8B8"/>
<path fill-rule="evenodd" clip-rule="evenodd" d="M239.443 185.505C239.399 185.366 239.353 185.229 239.304 185.092C238.255 182.172 235.895 179.821 231.065 180.011C228.417 180.588 224.996 181.938 223.386 184.232C223.218 184.238 223.052 184.248 222.887 184.263C225.351 187.773 231.633 194.342 237.05 192.541C231.501 195.59 220.619 198.25 221.477 184.498C218.307 185.283 216 187.682 216 190.52C216 193.962 219.394 196.759 223.607 196.813C223.648 196.814 223.689 196.814 223.73 196.814C223.763 196.814 223.795 196.814 223.828 196.814C224.851 196.807 227.305 196.631 230.561 195.948C234.962 195.024 237.501 194.215 238.122 192.714C238.695 191.326 239.872 187.371 239.443 185.505ZM224.912 196.878C225.8 196.95 226.654 197.019 227.401 196.698C228.189 197.02 229.003 196.952 229.871 196.879C230.257 196.847 230.655 196.814 231.065 196.814C231.213 196.814 231.363 196.814 231.515 196.814" fill="#BEBEBE"/>
<path d="M238.122 192.714C237.501 194.215 234.962 195.024 230.561 195.948C227.305 196.631 224.851 196.807 223.828 196.814C224.191 196.819 224.554 196.849 224.912 196.878C225.8 196.95 226.654 197.019 227.401 196.698C228.189 197.02 229.003 196.952 229.871 196.879C230.257 196.847 230.655 196.814 231.065 196.814C231.213 196.814 231.363 196.814 231.515 196.814L231.62 196.815C236.563 196.825 242.758 196.838 240.04 189.827C240.04 188.418 239.882 186.908 239.443 185.505C239.872 187.371 238.695 191.326 238.122 192.714Z" fill="#A4A4A4"/>
<path d="M294.231 212.27C290.826 213.171 286.878 209.886 285.329 208.131C285.024 208.153 284.728 208.193 284.442 208.249C283.903 215.125 290.744 213.795 294.231 212.27Z" fill="#B8B8B8"/>
<path fill-rule="evenodd" clip-rule="evenodd" d="M295.735 208.752C295.708 208.683 295.679 208.614 295.648 208.546C294.989 207.086 293.506 205.91 290.47 206.005C288.805 206.294 286.655 206.969 285.643 208.116C285.537 208.119 285.433 208.124 285.329 208.131C286.878 209.886 290.826 213.171 294.231 212.27C290.744 213.795 283.903 215.125 284.442 208.249C282.45 208.641 281 209.841 281 211.26C281 212.981 283.134 214.38 285.781 214.407C285.807 214.407 285.833 214.407 285.859 214.407C285.879 214.407 285.9 214.407 285.92 214.407C286.564 214.404 288.106 214.316 290.153 213.974C292.919 213.512 294.515 213.108 294.905 212.357C295.266 211.663 296.005 209.686 295.735 208.752ZM286.602 214.439C287.16 214.475 287.697 214.51 288.166 214.349C288.662 214.51 289.173 214.476 289.719 214.44C289.962 214.423 290.212 214.407 290.47 214.407C290.563 214.407 290.657 214.407 290.752 214.407" fill="#BEBEBE"/>
<path d="M294.905 212.357C294.515 213.108 292.919 213.512 290.153 213.974C288.106 214.316 286.564 214.404 285.92 214.407C286.149 214.41 286.377 214.424 286.602 214.439C287.16 214.475 287.697 214.51 288.166 214.349C288.662 214.51 289.173 214.476 289.719 214.44C289.962 214.423 290.212 214.407 290.47 214.407C290.563 214.407 290.657 214.407 290.752 214.407L290.818 214.407C293.925 214.412 297.82 214.419 296.111 210.913C296.111 210.209 296.011 209.454 295.735 208.752C296.005 209.686 295.266 211.663 294.905 212.357Z" fill="#A4A4A4"/>
<path d="M410.714 120.406C414.738 121.757 419.405 116.83 421.235 114.197C421.595 114.229 421.946 114.289 422.283 114.373C422.92 124.687 414.836 122.692 410.714 120.406Z" fill="#B8B8B8"/>
<path fill-rule="evenodd" clip-rule="evenodd" d="M408.937 115.129C408.969 115.025 409.003 114.921 409.04 114.819C409.819 112.629 411.572 110.866 415.16 111.008C417.127 111.441 419.668 112.453 420.865 114.174C420.989 114.179 421.113 114.186 421.235 114.197C419.405 116.83 414.738 121.757 410.714 120.406C414.836 122.692 422.92 124.687 422.283 114.373C424.638 114.962 426.351 116.762 426.351 118.89C426.351 121.472 423.83 123.57 420.701 123.61C420.67 123.61 420.64 123.61 420.609 123.61C420.585 123.61 420.561 123.611 420.536 123.611C419.776 123.605 417.954 123.473 415.535 122.961C412.265 122.268 410.379 121.662 409.918 120.536C409.492 119.495 408.617 116.529 408.937 115.129ZM419.731 123.658C419.071 123.712 418.437 123.764 417.882 123.524C417.296 123.765 416.692 123.714 416.047 123.659C415.76 123.635 415.465 123.61 415.16 123.61C415.05 123.61 414.938 123.611 414.826 123.611" fill="#BEBEBE"/>
<path d="M409.918 120.536C410.379 121.662 412.265 122.268 415.535 122.961C417.954 123.473 419.776 123.605 420.536 123.611C420.266 123.614 419.997 123.636 419.731 123.658C419.071 123.712 418.437 123.764 417.882 123.524C417.296 123.765 416.692 123.714 416.047 123.659C415.76 123.635 415.465 123.61 415.16 123.61C415.05 123.61 414.938 123.611 414.826 123.611L414.748 123.611C411.076 123.619 406.473 123.628 408.493 118.37C408.493 117.314 408.611 116.181 408.937 115.129C408.617 116.529 409.492 119.495 409.918 120.536Z" fill="#A4A4A4"/>
<path d="M70.6227 302.27C68.1465 303.171 65.2748 299.886 64.1484 298.131C63.9267 298.153 63.7111 298.193 63.5036 298.249C63.1115 305.125 68.0863 303.795 70.6227 302.27Z" fill="#B8B8B8"/>
<path fill-rule="evenodd" clip-rule="evenodd" d="M71.7166 298.752C71.6968 298.683 71.6757 298.614 71.6533 298.546C71.1738 297.086 70.095 295.91 67.8869 296.005C66.6762 296.294 65.1125 296.969 64.3764 298.116C64.2997 298.119 64.2237 298.124 64.1484 298.131C65.2748 299.886 68.1465 303.171 70.6227 302.27C68.0863 303.795 63.1115 305.125 63.5036 298.249C62.0545 298.641 61 299.841 61 301.26C61 302.981 62.5517 304.38 64.4773 304.407C64.4961 304.407 64.5149 304.407 64.5337 304.407C64.5486 304.407 64.5634 304.407 64.5783 304.407C65.0462 304.404 66.1678 304.316 67.6564 303.974C69.6683 303.512 70.829 303.108 71.1127 302.357C71.3751 301.663 71.9131 299.686 71.7166 298.752ZM65.074 304.439C65.4799 304.475 65.8703 304.51 66.2119 304.349C66.5722 304.51 66.9443 304.476 67.341 304.44C67.5177 304.423 67.6993 304.407 67.8869 304.407C67.9547 304.407 68.0233 304.407 68.0923 304.407" fill="#BEBEBE"/>
<path d="M71.1127 302.357C70.829 303.108 69.6683 303.512 67.6564 303.974C66.1678 304.316 65.0462 304.404 64.5783 304.407C64.7446 304.41 64.9106 304.424 65.074 304.439C65.4799 304.475 65.8703 304.51 66.2119 304.349C66.5722 304.51 66.9443 304.476 67.341 304.44C67.5177 304.423 67.6993 304.407 67.8869 304.407C67.9547 304.407 68.0233 304.407 68.0923 304.407L68.1404 304.407C70.4003 304.412 73.2325 304.419 71.9897 300.913C71.9897 300.209 71.9173 299.454 71.7166 298.752C71.9131 299.686 71.3751 301.663 71.1127 302.357Z" fill="#A4A4A4"/>
<path d="M345.749 41C348.592 43.4492 352.802 45 357.5 45C362.198 45 366.408 43.4492 369.25 41C366.408 38.5508 362.198 37 357.5 37C352.802 37 348.592 38.5508 345.749 41Z" fill="#866E4A"/>
<path d="M357.5 22C348.939 22 342 27.1487 342 33.5C342 36.3656 343.412 38.9864 345.749 41C348.592 38.5508 352.802 37 357.5 37C362.198 37 366.408 38.5508 369.25 41C371.587 38.9864 373 36.3656 373 33.5C373 27.1487 366.06 22 357.5 22Z" fill="#784C25"/>
<path d="M373 48.5V33.5C373 36.3656 371.587 38.9864 369.25 41C371.587 43.0136 373 45.6344 373 48.5Z" fill="#784C25"/>
<path d="M342 33.5V48.5C342 45.6344 343.412 43.0136 345.749 41C343.412 38.9864 342 36.3656 342 33.5Z" fill="#784C25"/>
<path fill-rule="evenodd" clip-rule="evenodd" d="M348.762 58C365.774 56.0999 369.116 51.8018 369.25 41C366.408 43.4492 362.198 45 357.5 45C352.802 45 348.592 43.4492 345.749 41C343.412 43.0136 342 45.6344 342 48.5C342 52.4466 344.679 55.9289 348.762 58Z" fill="#C7B599"/>
<path d="M357.5 60C366.06 60 373 54.8513 373 48.5C373 45.6344 371.587 43.0136 369.25 41C369.116 51.8018 365.774 56.0999 348.762 58C351.25 59.2619 354.259 60 357.5 60Z" fill="#C1AA88"/>
<path d="M292.643 7.89844L429.476 52.5393L428.26 56.265L291.428 11.6242L292.643 7.89844Z" fill="#866E4A"/>
<path d="M292.643 7.89844L429.476 52.5393L424.512 43.5L291.428 0L292.643 7.89844Z" fill="#784C25"/>
<path d="M291.428 11.6242L292.643 7.89844L291.428 0L290.012 4.5L291.428 11.6242Z" fill="#866E4A"/>
</svg>
