<svg width="278" height="278" viewBox="0 0 278 278" fill="none" xmlns="http://www.w3.org/2000/svg">
<path d="M270 140C270 213.454 210.454 273 137 273C63.5461 273 4 213.454 4 140C4 66.5461 63.5461 7 137 7C210.454 7 270 66.5461 270 140Z" fill="white" fill-opacity="0.54"/>
<path d="M268 134C268 208.006 208.006 268 134 268C59.9938 268 0 208.006 0 134C0 59.9938 59.9938 0 134 0C208.006 0 268 59.9938 268 134Z" fill="white" fill-opacity="0.4"/>
<path d="M259.467 70.7536C297.305 134.998 274.184 218.761 207.825 257.844C141.466 296.927 56.9981 276.531 19.1605 212.287C-18.6771 148.043 4.44392 64.2796 70.8028 25.1963C137.162 -13.8869 221.63 6.50976 259.467 70.7536Z" fill="white" fill-opacity="0.4"/>
<path d="M265.103 140.028C265.103 210.894 207.654 268.343 136.788 268.343C65.9212 268.343 8.47266 210.894 8.47266 140.028C8.47266 69.1616 65.9212 11.713 136.788 11.713C207.654 11.713 265.103 69.1616 265.103 140.028Z" fill="#3A4274" fill-opacity="0.54"/>
<path d="M263.17 134.239C263.17 205.638 205.289 263.519 133.89 263.519C62.4909 263.519 4.61035 205.638 4.61035 134.239C4.61035 62.8396 62.4909 4.9591 133.89 4.9591C205.289 4.9591 263.17 62.8396 263.17 134.239Z" fill="#3A4274" fill-opacity="0.4"/>
<path d="M254.94 73.2258C291.444 135.207 269.138 216.019 205.116 253.726C141.095 291.432 59.6025 271.754 23.0977 209.773C-13.407 147.792 8.89956 66.9798 72.9209 29.2732C136.942 -8.4333 218.435 11.2449 254.94 73.2258Z" fill="#3A4274" fill-opacity="0.4"/>
</svg>
