<svg width="1440" height="1024" viewBox="0 0 1440 1024" fill="none" xmlns="http://www.w3.org/2000/svg">
<g clip-path="url(#clip0_383_2286)">
<path d="M0 317.291C146.15 271.704 226.811 273.568 368.75 317.291C516.87 364.121 597.769 365.944 737.5 317.291C887.678 248.797 974.294 271.442 1129 317.291C1256.69 366.447 1324.9 367.753 1440 317.291V1125.29H0V317.291Z" fill="#202544"/>
<path d="M1440 641.291C1293.85 595.704 1213.19 597.568 1071.25 641.291C923.13 688.121 842.231 689.944 702.5 641.291C552.322 572.797 465.706 595.442 311 641.291C183.311 690.447 115.098 691.753 0 641.291V1449.29H1440V641.291Z" fill="#242944"/>
</g>
<defs>
<clipPath id="clip0_383_2286">
<rect width="1440" height="1024" fill="white"/>
</clipPath>
</defs>
</svg>
