<svg width="25" height="25" viewBox="0 0 25 25" fill="none" xmlns="http://www.w3.org/2000/svg">
<path fill-rule="evenodd" clip-rule="evenodd" d="M12.5 25C19.4036 25 25 19.4036 25 12.5C25 5.59644 19.4036 0 12.5 0C5.59644 0 0 5.59644 0 12.5C0 19.4036 5.59644 25 12.5 25ZM10.1645 7.33592C9.38341 6.55487 8.11708 6.55487 7.33603 7.33592C6.55498 8.11697 6.55498 9.3833 7.33603 10.1643L9.67182 12.5001L7.33603 14.8359C6.55498 15.617 6.55498 16.8833 7.33603 17.6643C8.11708 18.4454 9.38341 18.4454 10.1645 17.6643L12.5002 15.3286L14.836 17.6643C15.6171 18.4454 16.8834 18.4454 17.6645 17.6643C18.4455 16.8833 18.4455 15.617 17.6645 14.8359L15.3287 12.5001L17.6645 10.1643C18.4455 9.3833 18.4455 8.11697 17.6645 7.33592C16.8834 6.55487 15.6171 6.55487 14.836 7.33592L12.5002 9.6717L10.1645 7.33592Z" fill="#B2B0AD"/>
</svg>
