<svg width="17" height="16" viewBox="0 0 17 16" fill="none" xmlns="http://www.w3.org/2000/svg">
<path fill-rule="evenodd" clip-rule="evenodd" d="M15.9126 8C15.9126 9.30489 15.6018 10.5368 15.0508 11.6251L16.7423 15.9962L11.4672 15.181C10.4083 15.7054 9.2165 16 7.95628 16C3.56215 16 0 12.4183 0 8C0 3.58172 3.56215 0 7.95628 0C12.3504 0 15.9126 3.58172 15.9126 8ZM14.8404 8C14.8404 9.13091 14.4449 10.6124 13.9677 11.5556L15.5589 14.9301L11.4924 14.0444C10.5754 14.499 9.04191 14.9333 7.95062 14.9333C4.1455 14.9333 1.06084 11.8292 1.06084 8C1.06084 4.17083 4.1455 1.06667 7.95062 1.06667C11.7557 1.06667 14.8404 4.17083 14.8404 8Z" fill="#FFF9F0"/>
</svg>
