<svg width="524" height="73" viewBox="0 0 524 73" fill="none" xmlns="http://www.w3.org/2000/svg">
<path d="M53.3966 42.9023C66.7795 52.4314 76.0446 71.4897 75.8976 70.6101H98.2514C98.4965 70.659 98.8397 70.4928 98.2514 69.4373C95.3101 61.6967 105.948 45.2968 111.634 38.0644C105.869 38.7681 95.6435 46.3719 91.2511 50.0858C90.1982 45.5502 91.6462 39.4194 93.1042 35.5722C88.751 40.2634 85.898 48.0822 85.0156 51.4052C85.9378 38.1899 68.4864 26.7105 59.1124 22.3453C64.458 25.309 73.864 43.9686 78.211 53.6278C78.2833 53.7661 78.3457 53.9048 78.3977 54.044C78.3365 53.9072 78.2743 53.7685 78.211 53.6278C75.6618 48.7555 60.7376 44.4704 53.3966 42.9023Z" fill="#07AD49"/>
<path d="M112.223 42.8059C98.7045 52.358 89.3458 71.4623 89.4944 70.5806H66.9147C66.6671 70.6296 66.3205 70.463 66.9147 69.4049C69.8857 61.6457 59.1406 45.2062 53.3966 37.9564C59.2198 38.6618 69.549 46.2839 73.9857 50.0067C75.0493 45.4603 73.5867 39.3147 72.114 35.4581C76.5111 40.1607 79.393 47.9984 80.2843 51.3294C79.3527 38.0822 96.9804 26.575 106.449 22.1993C101.049 25.1702 91.5485 43.8748 87.1576 53.5573C87.0845 53.6959 87.0215 53.835 86.969 53.9746C87.0308 53.8374 87.0937 53.6983 87.1576 53.5573C89.7325 48.6732 104.807 44.3778 112.223 42.8059Z" fill="#0D893F"/>
<path d="M51.4848 49.9392C65.0029 58.3405 65.0965 71.3597 64.948 70.5842H87.5276C87.7752 70.6273 88.1218 70.4808 87.5276 69.5502C84.5566 62.7258 101.626 59.834 107.37 53.4577C101.546 54.0781 84.8933 49.2148 80.4566 52.4891C79.393 48.4904 78.9839 47.6136 80.4566 44.2217C76.0595 48.3577 76.936 50.8212 76.0447 53.7509C76.9762 42.0997 62.4322 31.9071 59.5734 27.6557C64.973 30.2686 62.8939 47.0959 67.2847 55.6119C67.3578 55.7338 67.4208 55.8561 67.4733 55.9789C67.4116 55.8583 67.3487 55.7359 67.2847 55.6119C64.7099 51.3162 58.8999 51.3217 51.4848 49.9392Z" fill="#07AD49"/>
<path d="M68.6546 31.7541C88.3613 45.8406 102.004 74.0138 101.788 72.7135H134.704C135.065 72.7857 135.571 72.5401 134.704 70.9797C130.373 59.5371 146.038 35.2938 154.411 24.6025C145.922 25.6427 130.864 36.883 124.396 42.3732C122.846 35.6685 124.978 26.6056 127.125 20.9183C120.715 27.8532 116.514 39.4114 115.214 44.3236C116.572 24.788 90.8747 7.81839 77.0712 1.36553C84.9428 5.74666 98.7933 33.3304 105.194 47.6091C105.301 47.8136 105.393 48.0187 105.469 48.2245C105.379 48.0223 105.288 47.8171 105.194 47.6091C101.441 40.4066 79.4643 34.0722 68.6546 31.7541Z" fill="#07AD49"/>
<path d="M155.277 31.6116C135.372 45.7322 121.591 73.9733 121.809 72.6698H88.5603C88.1957 72.7423 87.6853 72.4961 88.5603 70.9319C92.9352 59.4617 77.1127 35.1599 68.6546 24.4427C77.2293 25.4855 92.4394 36.753 98.9726 42.2564C100.539 35.5355 98.385 26.4507 96.2164 20.7497C102.691 27.7013 106.935 39.2874 108.247 44.2115C106.876 24.6287 132.833 7.61817 146.776 1.14974C138.825 5.54145 124.834 33.1917 118.369 47.5049C118.261 47.7099 118.168 47.9155 118.091 48.1218C118.182 47.9191 118.274 47.7134 118.369 47.5049C122.16 40.2851 144.358 33.9353 155.277 31.6116Z" fill="#0D893F"/>
<path d="M65.8393 42.1565C85.7451 54.5758 85.883 73.8216 85.6642 72.6752H118.913C119.278 72.7389 119.788 72.5223 118.913 71.1467C114.539 61.0584 139.673 56.7836 148.131 47.3577C139.556 48.2748 115.034 41.0856 108.501 45.9259C106.935 40.0148 106.333 38.7187 108.501 33.7046C102.026 39.8187 103.317 43.4603 102.004 47.7911C103.376 30.5677 81.9597 15.5004 77.75 9.2156C85.701 13.0782 82.6395 37.9534 89.1052 50.5422C89.2128 50.7224 89.3056 50.9033 89.3829 51.0847C89.2919 50.9064 89.1994 50.7255 89.1052 50.5422C85.3136 44.1921 76.7583 44.2002 65.8393 42.1565Z" fill="#07AD49"/>
<path d="M112.738 40.4717C124.503 48.896 132.648 65.7446 132.519 64.967H152.171C152.386 65.0102 152.688 64.8633 152.171 63.9301C149.585 57.087 158.937 42.5885 163.936 36.1947C158.868 36.8168 149.878 43.539 146.017 46.8223C145.091 42.8126 146.364 37.3926 147.646 33.9914C143.819 38.1388 141.311 45.051 140.535 47.9887C141.346 36.3056 126.004 26.1572 117.763 22.2981C122.462 24.9182 130.731 41.4143 134.553 49.9536C134.616 50.0759 134.671 50.1986 134.717 50.3216C134.663 50.2007 134.608 50.078 134.553 49.9536C132.312 45.6462 119.191 41.858 112.738 40.4717Z" fill="#07AD49"/>
<path d="M164.453 40.3865C152.569 48.8311 144.342 65.7204 144.472 64.9409H124.622C124.404 64.9842 124.1 64.8369 124.622 63.9015C127.234 57.0419 117.788 42.5084 112.738 36.0992C117.857 36.7228 126.938 43.4612 130.838 46.7524C131.773 42.7331 130.487 37.3 129.193 33.8906C133.058 38.0479 135.592 44.9769 136.375 47.9217C135.556 36.2104 151.053 26.0374 159.377 22.1691C154.63 24.7955 146.278 41.3314 142.418 49.8913C142.354 50.0138 142.298 50.1368 142.252 50.2602C142.306 50.139 142.362 50.016 142.418 49.8913C144.681 45.5735 157.934 41.7761 164.453 40.3865Z" fill="#0D893F"/>
<path d="M111.057 46.6927C122.941 54.1199 123.024 65.6297 122.893 64.9441H142.743C142.961 64.9821 143.266 64.8527 142.743 64.03C140.131 57.9968 155.137 55.4403 160.187 49.8032C155.067 50.3517 140.427 46.0523 136.527 48.947C135.592 45.4119 135.232 44.6368 136.527 41.6381C132.661 45.2946 133.432 47.4724 132.648 50.0624C133.467 39.7621 120.681 30.7513 118.168 26.9928C122.915 29.3027 121.087 44.1791 124.947 51.7077C125.011 51.8155 125.067 51.9236 125.113 52.0321C125.059 51.9255 125.003 51.8173 124.947 51.7077C122.684 47.9101 117.576 47.9149 111.057 46.6927Z" fill="#07AD49"/>
<path d="M262.595 52.148C271.419 58.5008 277.528 71.2063 277.431 70.6199H292.17C292.331 70.6525 292.558 70.5417 292.17 69.838C290.23 64.6776 297.244 53.7444 300.994 48.9228C297.192 49.3919 290.45 54.4611 287.554 56.937C286.86 53.9133 287.815 49.8261 288.776 47.2613C285.906 50.3888 284.025 55.6013 283.443 57.8166C284.051 49.0064 272.544 41.3535 266.364 38.4434C269.888 40.4192 276.09 52.8589 278.956 59.2983C279.004 59.3905 279.045 59.4831 279.079 59.5759C279.039 59.4847 278.998 59.3921 278.956 59.2983C277.275 56.0501 267.435 53.1934 262.595 52.148Z" fill="#07AD49"/>
<path d="M301.381 52.0838C292.468 58.4519 286.298 71.188 286.396 70.6002H271.508C271.345 70.6329 271.116 70.5218 271.508 69.8165C273.467 64.6436 266.382 53.684 262.595 48.8507C266.435 49.321 273.245 54.4024 276.17 56.8843C276.872 53.8533 275.907 49.7563 274.936 47.1852C277.835 50.3203 279.736 55.5454 280.323 57.7661C279.709 48.9346 291.332 41.2632 297.575 38.3461C294.015 40.3266 287.75 52.7964 284.855 59.2513C284.807 59.3438 284.765 59.4365 284.731 59.5295C284.771 59.4381 284.813 59.3454 284.855 59.2513C286.553 55.9953 296.492 53.1317 301.381 52.0838Z" fill="#0D893F"/>
<path d="M261.335 56.8393C270.248 62.4401 270.309 71.1196 270.211 70.6026H285.099C285.262 70.6313 285.491 70.5337 285.099 69.9133C283.14 65.3637 294.394 63.4358 298.182 59.1849C294.342 59.5985 283.362 56.3563 280.437 58.5392C279.736 55.8734 279.466 55.2889 280.437 53.0277C277.538 55.785 278.116 57.4273 277.528 59.3804C278.142 51.613 268.553 44.8179 266.668 41.9836C270.228 43.7256 268.857 54.9438 271.752 60.6211C271.8 60.7024 271.842 60.7839 271.876 60.8657C271.836 60.7853 271.794 60.7038 271.752 60.6211C270.054 57.7573 266.224 57.761 261.335 56.8393Z" fill="#07AD49"/>
<path d="M6.88778 34.3455C23.9473 46.7748 35.7577 71.6334 35.5703 70.4861H64.0653C64.3778 70.5498 64.8152 70.3331 64.0653 68.9563C60.316 58.8599 73.8761 37.4687 81.1248 28.0352C73.7761 28.9531 60.7409 38.871 55.1419 43.7153C53.7996 37.7993 55.6454 29.8026 57.504 24.7845C51.9549 30.9035 48.3181 41.1019 47.1933 45.4362C48.3688 28.1989 26.1231 13.2257 14.1738 7.53203C20.988 11.3977 32.9781 35.7363 38.5192 48.3352C38.6115 48.5156 38.691 48.6966 38.7572 48.8782C38.6793 48.6998 38.5999 48.5187 38.5192 48.3352C35.2698 41.9801 16.2455 36.3908 6.88778 34.3455Z" fill="#07AD49"/>
<path d="M81.8747 34.2198C64.6429 46.6791 52.7131 71.5977 52.9025 70.4476H24.1196C23.804 70.5115 23.3622 70.2943 24.1196 68.9141C27.9068 58.7934 14.2097 37.3506 6.88778 27.8943C14.3107 28.8143 27.4776 38.7562 33.1332 43.6122C34.489 37.682 32.6246 29.666 30.7473 24.6357C36.3523 30.7695 40.0259 40.9925 41.1621 45.3373C39.9747 28.0584 62.4451 13.0491 74.5151 7.34163C67.632 11.2167 55.5209 35.614 49.9238 48.2433C49.8306 48.4241 49.7503 48.6056 49.6834 48.7876C49.7621 48.6087 49.8422 48.4272 49.9238 48.2433C53.206 41.8728 72.4225 36.2701 81.8747 34.2198Z" fill="#0D893F"/>
<path d="M4.4507 43.5241C21.6825 54.4822 21.8019 71.4638 21.6126 70.4523H50.3954C50.711 70.5085 51.1529 70.3174 50.3954 69.1036C46.6082 60.2022 68.3664 56.4303 75.6884 48.1133C68.2654 48.9226 47.0374 42.5791 41.3818 46.85C40.026 41.6343 39.5045 40.4907 41.3818 36.0665C35.7768 41.4613 36.894 44.6745 35.7578 48.4958C36.9453 33.2986 18.4057 20.0039 14.7614 14.4586C21.6444 17.8667 18.9942 39.8155 24.5913 50.9232C24.6845 51.0822 24.7648 51.2418 24.8317 51.4019C24.753 51.2446 24.6728 51.085 24.5913 50.9232C21.3091 45.3202 13.9029 45.3273 4.4507 43.5241Z" fill="#07AD49"/>
<path d="M464.888 42.5003C478.271 52.1675 487.536 71.502 487.389 70.6096H509.742C509.988 70.6592 510.331 70.4907 509.742 69.4198C506.801 61.5671 517.439 44.9295 523.125 37.5923C517.36 38.3062 507.135 46.0202 502.742 49.7879C501.689 45.1866 503.137 38.967 504.595 35.0639C500.242 39.8232 497.389 47.7553 496.507 51.1264C497.429 37.7196 479.977 26.0738 470.603 21.6454C475.949 24.6521 485.355 43.5821 489.702 53.3812C489.774 53.5215 489.837 53.6623 489.889 53.8035C489.828 53.6647 489.765 53.5239 489.702 53.3812C487.153 48.4383 472.229 44.0911 464.888 42.5003Z" fill="#07AD49"/>
<path d="M523.714 42.4025C510.196 52.0931 500.837 71.4742 500.985 70.5797H478.406C478.158 70.6294 477.812 70.4604 478.406 69.387C481.377 61.5153 470.632 44.8376 464.888 37.4827C470.711 38.1983 481.04 45.9309 485.477 49.7077C486.54 45.0954 485.078 38.8607 483.605 34.9482C488.002 39.719 490.884 47.6702 491.775 51.0495C490.844 37.6103 508.471 25.9364 517.94 21.4973C512.541 24.5112 503.04 43.4869 498.649 53.3097C498.576 53.4503 498.513 53.5915 498.46 53.733C498.522 53.5939 498.585 53.4528 498.649 53.3097C501.224 48.3549 516.299 43.9972 523.714 42.4025Z" fill="#0D893F"/>
<path d="M462.976 49.6392C476.494 58.1622 476.588 71.3701 476.439 70.5834H499.019C499.266 70.6271 499.613 70.4785 499.019 69.5344C496.048 62.6111 513.117 59.6774 518.861 53.2086C513.037 53.838 496.384 48.9043 491.948 52.2261C490.884 48.1694 490.475 47.2799 491.948 43.8389C487.551 48.0348 488.427 50.534 487.536 53.5061C488.467 41.6861 473.923 31.3458 471.064 27.0327C476.464 29.6835 474.385 46.7547 478.776 55.3941C478.849 55.5178 478.912 55.6419 478.964 55.7664C478.903 55.644 478.84 55.5199 478.776 55.3941C476.201 51.0362 470.391 51.0417 462.976 49.6392Z" fill="#07AD49"/>
<path d="M452.889 42.5003C466.272 52.1675 475.537 71.502 475.39 70.6096H497.744C497.989 70.6592 498.332 70.4907 497.744 69.4198C494.802 61.5671 505.44 44.9295 511.127 37.5923C505.362 38.3062 495.136 46.0202 490.743 49.7879C489.69 45.1866 491.138 38.967 492.596 35.0639C488.243 39.8232 485.39 47.7553 484.508 51.1264C485.43 37.7196 467.979 26.0738 458.605 21.6454C463.95 24.6521 473.356 43.5821 477.703 53.3812C477.776 53.5215 477.838 53.6623 477.89 53.8035C477.829 53.6647 477.766 53.5239 477.703 53.3812C475.154 48.4383 460.23 44.0911 452.889 42.5003Z" fill="#07AD49"/>
<path d="M511.715 42.4025C498.197 52.0931 488.838 71.4742 488.987 70.5797H466.407C466.159 70.6294 465.813 70.4604 466.407 69.387C469.378 61.5153 458.633 44.8376 452.889 37.4827C458.712 38.1983 469.041 45.9309 473.478 49.7077C474.542 45.0954 473.079 38.8607 471.606 34.9482C476.003 39.719 478.885 47.6702 479.776 51.0495C478.845 37.6103 496.473 25.9364 505.941 21.4973C500.542 24.5112 491.041 43.4869 486.65 53.3097C486.577 53.4503 486.514 53.5915 486.461 53.733C486.523 53.5939 486.586 53.4528 486.65 53.3097C489.225 48.3549 504.3 43.9972 511.715 42.4025Z" fill="#0D893F"/>
<path d="M450.977 49.6392C464.495 58.1622 464.589 71.3701 464.44 70.5834H487.02C487.267 70.6271 487.614 70.4785 487.02 69.5344C484.049 62.6111 501.118 59.6774 506.862 53.2086C501.039 53.838 484.386 48.9043 479.949 52.2261C478.885 48.1694 478.476 47.2799 479.949 43.8389C475.552 48.0348 476.428 50.534 475.537 53.5061C476.468 41.6861 461.924 31.3458 459.066 27.0327C464.465 29.6835 462.386 46.7547 466.777 55.3941C466.85 55.5178 466.913 55.6419 466.966 55.7664C466.904 55.644 466.841 55.5199 466.777 55.3941C464.202 51.0362 458.392 51.0417 450.977 49.6392Z" fill="#07AD49"/>
<path d="M272.318 66.2408C266.901 68.0423 260.62 61.4728 258.156 57.9629C257.671 58.0057 257.199 58.085 256.745 58.1975C255.887 71.9496 266.77 69.2897 272.318 66.2408Z" fill="#B8B8B8"/>
<path fill-rule="evenodd" clip-rule="evenodd" d="M274.711 59.2048C274.668 59.0661 274.622 58.9284 274.573 58.792C273.524 55.8715 271.164 53.5206 266.334 53.7107C263.685 54.2881 260.265 55.6379 258.654 57.932C258.487 57.938 258.32 57.9483 258.156 57.9629C260.62 61.4728 266.901 68.0423 272.318 66.2408C266.77 69.2897 255.887 71.9496 256.745 58.1975C253.575 58.9828 251.268 61.382 251.268 64.2198C251.268 67.6623 254.663 70.4593 258.875 70.5129C258.916 70.5135 258.957 70.5137 258.999 70.5137C259.031 70.5137 259.063 70.514 259.096 70.5144C260.12 70.5072 262.573 70.3311 265.829 69.6476C270.23 68.7237 272.769 67.9153 273.39 66.414C273.964 65.026 275.141 61.0714 274.711 59.2048ZM260.18 70.5776C261.068 70.6497 261.922 70.7191 262.67 70.3982C263.458 70.7195 264.272 70.6516 265.139 70.5791C265.526 70.5469 265.923 70.5137 266.334 70.5137C266.482 70.5137 266.632 70.514 266.783 70.5143" fill="#BEBEBE"/>
<path d="M273.39 66.414C272.769 67.9153 270.23 68.7237 265.829 69.6476C262.573 70.3311 260.12 70.5072 259.096 70.5144C259.46 70.519 259.823 70.5485 260.18 70.5776C261.068 70.6497 261.922 70.7191 262.67 70.3982C263.458 70.7195 264.272 70.6516 265.139 70.5791C265.526 70.5469 265.923 70.5137 266.334 70.5137C266.482 70.5137 266.632 70.514 266.783 70.5143L266.888 70.5145C271.832 70.5247 278.027 70.5375 275.308 63.5269C275.308 62.1182 275.15 60.6082 274.711 59.2048C275.141 61.0714 273.964 65.026 273.39 66.414Z" fill="#A4A4A4"/>
<path d="M400.722 68.4401C397.317 69.3409 393.369 66.0562 391.82 64.3012C391.515 64.3226 391.219 64.3623 390.934 64.4185C390.394 71.2946 397.235 69.9646 400.722 68.4401Z" fill="#B8B8B8"/>
<path fill-rule="evenodd" clip-rule="evenodd" d="M402.226 64.9221C402.199 64.8528 402.17 64.784 402.139 64.7158C401.48 63.2555 399.997 62.0801 396.961 62.1751C395.296 62.4638 393.146 63.1387 392.134 64.2858C392.028 64.2887 391.924 64.2939 391.82 64.3012C393.369 66.0562 397.317 69.3409 400.722 68.4401C397.235 69.9646 390.394 71.2946 390.934 64.4185C388.941 64.8112 387.491 66.0108 387.491 67.4297C387.491 69.1509 389.625 70.5494 392.272 70.5762C392.298 70.5765 392.324 70.5766 392.35 70.5766C392.37 70.5766 392.391 70.5767 392.411 70.5769C393.055 70.5733 394.597 70.4853 396.644 70.1435C399.41 69.6816 401.006 69.2774 401.396 68.5268C401.757 67.8328 402.497 65.8555 402.226 64.9221ZM393.093 70.6085C393.651 70.6446 394.188 70.6793 394.657 70.5189C395.153 70.6795 395.664 70.6455 396.21 70.6093C396.453 70.5932 396.703 70.5766 396.961 70.5766C397.054 70.5766 397.148 70.5767 397.243 70.5769" fill="#BEBEBE"/>
<path d="M401.396 68.5268C401.006 69.2774 399.41 69.6816 396.644 70.1435C394.597 70.4853 393.055 70.5733 392.411 70.5769C392.64 70.5793 392.868 70.594 393.093 70.6085C393.651 70.6446 394.188 70.6793 394.657 70.5189C395.153 70.6795 395.664 70.6455 396.21 70.6093C396.453 70.5932 396.703 70.5766 396.961 70.5766C397.054 70.5766 397.148 70.5767 397.243 70.5769L397.309 70.577C400.416 70.5821 404.311 70.5885 402.602 67.0832C402.602 66.3789 402.502 65.6238 402.226 64.9221C402.497 65.8555 401.757 67.8328 401.396 68.5268Z" fill="#A4A4A4"/>
<path d="M143.875 67.3405C147.899 68.6916 152.566 63.7645 154.396 61.132C154.756 61.1641 155.107 61.2237 155.444 61.308C156.081 71.6221 147.997 69.6272 143.875 67.3405Z" fill="#B8B8B8"/>
<path fill-rule="evenodd" clip-rule="evenodd" d="M142.098 62.0635C142.13 61.9594 142.164 61.8562 142.201 61.7539C142.98 59.5635 144.733 57.8004 148.321 57.9429C150.288 58.376 152.829 59.3883 154.026 61.1089C154.15 61.1134 154.274 61.1211 154.396 61.132C152.566 63.7645 147.899 68.6916 143.875 67.3405C147.997 69.6272 156.081 71.6221 155.444 61.308C157.799 61.897 159.512 63.6964 159.512 65.8247C159.512 68.4066 156.991 70.5043 153.862 70.5446C153.831 70.545 153.801 70.5452 153.77 70.5452C153.746 70.5452 153.722 70.5453 153.698 70.5457C152.937 70.5403 151.115 70.4082 148.696 69.8956C145.426 69.2027 143.54 68.5964 143.079 67.4704C142.653 66.4294 141.779 63.4634 142.098 62.0635ZM152.892 70.593C152.232 70.6471 151.598 70.6992 151.043 70.4586C150.457 70.6995 149.853 70.6485 149.208 70.5942C148.921 70.57 148.626 70.5452 148.321 70.5452C148.211 70.5452 148.1 70.5454 147.987 70.5456" fill="#BEBEBE"/>
<path d="M143.079 67.4704C143.54 68.5964 145.426 69.2027 148.696 69.8956C151.115 70.4082 152.937 70.5403 153.698 70.5457C153.427 70.5491 153.158 70.5713 152.892 70.593C152.232 70.6471 151.598 70.6992 151.043 70.4586C150.457 70.6995 149.853 70.6485 149.208 70.5942C148.921 70.57 148.626 70.5452 148.321 70.5452C148.211 70.5452 148.1 70.5454 147.987 70.5456L147.909 70.5458C144.237 70.5534 139.635 70.563 141.654 65.3051C141.654 64.2486 141.772 63.116 142.098 62.0635C141.779 63.4634 142.653 66.4294 143.079 67.4704Z" fill="#A4A4A4"/>
<path d="M140.196 70.5576C137.72 71.4584 134.849 68.1736 133.722 66.4186C133.501 66.44 133.285 66.4797 133.077 66.536C132.685 73.412 137.66 72.0821 140.196 70.5576Z" fill="#B8B8B8"/>
<path fill-rule="evenodd" clip-rule="evenodd" d="M141.29 67.0396C141.271 66.9702 141.25 66.9014 141.227 66.8332C140.748 65.373 139.669 64.1975 137.461 64.2925C136.25 64.5813 134.686 65.2561 133.95 66.4032C133.874 66.4062 133.798 66.4114 133.722 66.4186C134.849 68.1736 137.72 71.4584 140.196 70.5576C137.66 72.0821 132.685 73.412 133.077 66.536C131.628 66.9286 130.574 68.1282 130.574 69.5471C130.574 71.2683 132.126 72.6668 134.051 72.6937C134.07 72.6939 134.089 72.6941 134.108 72.6941C134.122 72.6941 134.137 72.6942 134.152 72.6944C134.62 72.6908 135.742 72.6028 137.23 72.261C139.242 71.7991 140.403 71.3949 140.687 70.6442C140.949 69.9502 141.487 67.9729 141.29 67.0396ZM134.648 72.726C135.054 72.7621 135.444 72.7967 135.786 72.6363C136.146 72.7969 136.518 72.763 136.915 72.7268C137.092 72.7106 137.273 72.6941 137.461 72.6941C137.529 72.6941 137.597 72.6942 137.666 72.6943" fill="#BEBEBE"/>
<path d="M140.687 70.6442C140.403 71.3949 139.242 71.7991 137.23 72.261C135.742 72.6028 134.62 72.6908 134.152 72.6944C134.318 72.6967 134.484 72.7115 134.648 72.726C135.054 72.7621 135.444 72.7967 135.786 72.6363C136.146 72.7969 136.518 72.763 136.915 72.7268C137.092 72.7106 137.273 72.6941 137.461 72.6941C137.529 72.6941 137.597 72.6942 137.666 72.6943L137.714 72.6945C139.974 72.6996 142.806 72.706 141.564 69.2007C141.564 68.4963 141.491 67.7413 141.29 67.0396C141.487 67.9729 140.949 69.9502 140.687 70.6442Z" fill="#A4A4A4"/>
</svg>
