<svg width="100" height="136" viewBox="0 0 100 136" fill="none" xmlns="http://www.w3.org/2000/svg">
<path d="M35.6547 127.815H44.2792L46.0393 131.482L38.1189 134.363L28.7904 131.482L35.6547 127.815Z" fill="#FB923C"/>
<path d="M39.9788 122.904H43.4752V129.686H39.9788V122.904Z" fill="#FB923C"/>
<path fill-rule="evenodd" clip-rule="evenodd" d="M55.2702 127.958C73.6815 128.33 98.0187 115.421 100 102.091C93.9642 105.702 88.7966 98.6756 82.7972 90.5179C78.4888 84.6595 73.7513 78.2178 67.9552 74.7137C64.8353 72.8275 61.4088 71.7924 57.5773 72.1575C39.1659 71.7856 22.7635 85.9264 22.4681 100.641C22.1728 115.356 36.8588 127.586 55.2702 127.958ZM62.4723 106.417L49.5357 93.3214L59.0925 110.861L84.2665 104.546L62.4723 106.417Z" fill="#FFBC86"/>
<path d="M49.5357 93.3214L62.4723 106.417L84.2665 104.546L59.0925 110.861L49.5357 93.3214Z" fill="#E69B60"/>
<path d="M70.0915 29.9749C70.0921 45.4555 61.0495 50.6282 62.684 57.8552C64.3184 65.0822 51.4034 59.8807 43.9405 59.8807C40.5969 59.8807 34.4608 66.9173 34.4608 57.8552C34.4608 48.7931 17.7895 42.6677 17.7895 29.9749C17.7895 13.4584 29.4977 0.0690918 43.9405 0.0690918C58.3833 0.0690918 70.0909 14.4942 70.0915 29.9749Z" fill="#FFBC86"/>
<path d="M62.9096 51.2462C62.2177 61.4972 62.8837 69.3562 67.9552 74.7137C70.5056 102.671 51.317 97.5636 34.1573 94.3899C17.8307 92.6417 32.5738 85.1462 34.1575 70.2993C35.7411 55.4524 31.1325 19.3813 45.5844 19.3816C57.0254 19.3819 63.6016 40.9953 62.9096 51.2462Z" fill="#FFBC86"/>
<path fill-rule="evenodd" clip-rule="evenodd" d="M0.146311 38.7634C7.0668 43.2991 22.0761 42.5706 24.4196 42.426C24.627 42.4132 24.8125 42.3282 24.9596 42.1868C27.7682 39.4877 28.7554 37.5607 28.3573 33.0635C20.5099 36.7592 15.7649 38.6714 0.146311 38.7634Z" fill="#FB923C"/>
<path d="M20.1947 24.8225C17.1451 28.58 -1.84761 33.1699 0.146311 38.7634C15.7649 38.6714 20.5099 36.7592 28.3573 33.0635C26.8658 27.6432 23.2443 21.065 20.1947 24.8225Z" fill="#EA7C21"/>
<path d="M36.0395 20.4579C35.8457 22.2748 34.1357 23.5814 32.22 23.3763C30.3043 23.1711 28.9084 21.5319 29.1022 19.715C29.296 17.8981 31.0061 16.5915 32.9218 16.7966C34.8375 17.0017 36.2333 18.6409 36.0395 20.4579Z" fill="#3F3F3F"/>
<path d="M21.8754 19.3907C21.7328 20.7269 20.4753 21.6877 19.0665 21.5369C17.6578 21.386 16.6313 20.1806 16.7738 18.8445C16.9163 17.5083 18.1739 16.5475 19.5826 16.6983C20.9914 16.8492 22.0179 18.0546 21.8754 19.3907Z" fill="#3F3F3F"/>
<path d="M50.8049 129.452H59.4293L61.1894 133.119L53.269 136L43.9405 133.119L50.8049 129.452Z" fill="#FB923C"/>
<path d="M55.129 124.541H58.6254V131.323H55.129V124.541Z" fill="#FB923C"/>
</svg>
