<svg width="22" height="22" viewBox="0 0 22 22" fill="none" xmlns="http://www.w3.org/2000/svg">
<path d="M0 7.58621C0 3.39646 3.39646 0 7.58621 0H14.4138C18.6035 0 22 3.39646 22 7.58621V14.4138C22 18.6035 18.6035 22 14.4138 22H7.58621C3.39646 22 0 18.6035 0 14.4138V7.58621Z" fill="#38EA7F"/>
<path fill-rule="evenodd" clip-rule="evenodd" d="M16.6254 11.1899C16.6254 12.1488 16.397 13.0542 15.992 13.854L17.2352 17.0664L13.3585 16.4672C12.5802 16.8527 11.7044 17.0692 10.7782 17.0692C7.5489 17.0692 4.93103 14.4369 4.93103 11.1899C4.93103 7.9428 7.5489 5.31055 10.7782 5.31055C14.0075 5.31055 16.6254 7.9428 16.6254 11.1899ZM15.8374 11.1899C15.8374 12.021 15.5468 13.1098 15.1961 13.8029L16.3655 16.2829L13.377 15.632C12.703 15.966 11.5761 16.2853 10.774 16.2853C7.97761 16.2853 5.71065 14.004 5.71065 11.1899C5.71065 8.37574 7.97761 6.09445 10.774 6.09445C13.5705 6.09445 15.8374 8.37574 15.8374 11.1899Z" fill="white"/>
<path d="M15.1961 13.8029C15.5468 13.1098 15.8374 12.021 15.8374 11.1899C15.8374 8.37574 13.5705 6.09445 10.774 6.09445C7.97761 6.09445 5.71065 8.37574 5.71065 11.1899C5.71065 14.004 7.97761 16.2853 10.774 16.2853C11.5761 16.2853 12.703 15.966 13.377 15.632L16.3655 16.2829L15.1961 13.8029Z" fill="white"/>
</svg>
