<svg width="708" height="145" viewBox="0 0 708 145" fill="none" xmlns="http://www.w3.org/2000/svg">
<path d="M124.941 101.16H141.741V111.72C141.741 115.496 141.005 118.792 139.533 121.608C138.061 124.424 135.885 126.6 133.005 128.136C130.189 129.672 126.669 130.44 122.445 130.44C119.053 130.44 116.141 129.832 113.709 128.616C111.341 127.336 110.157 125.096 110.157 121.896C110.157 120.616 110.349 119.496 110.733 118.536C111.117 117.576 111.533 116.808 111.981 116.232C113.197 116.488 114.221 116.68 115.053 116.808C115.949 116.872 116.909 116.904 117.933 116.904C120.429 116.904 122.221 116.296 123.309 115.08C124.397 113.8 124.941 111.944 124.941 109.512V101.16ZM141.741 108.552H124.941V70.632C125.709 70.504 126.829 70.344 128.301 70.152C129.837 69.896 131.309 69.768 132.717 69.768C135.917 69.768 138.221 70.312 139.629 71.4C141.037 72.488 141.741 74.6 141.741 77.736V108.552ZM152.695 110.472V104.136H169.015V110.472C169.015 113.032 169.655 114.888 170.935 116.04C172.279 117.192 174.135 117.768 176.503 117.768C177.975 117.768 179.191 117.64 180.151 117.384C181.111 117.128 181.815 116.872 182.263 116.616V104.136H198.583V119.016C198.583 120.616 198.231 122.024 197.527 123.24C196.887 124.392 195.895 125.384 194.551 126.216C192.311 127.624 189.623 128.68 186.487 129.384C183.415 130.152 180.055 130.536 176.407 130.536C171.799 130.536 167.703 129.864 164.119 128.52C160.535 127.112 157.719 124.936 155.671 121.992C153.687 119.048 152.695 115.208 152.695 110.472ZM198.583 108.264H182.263V82.536C182.967 82.344 183.959 82.152 185.239 81.96C186.583 81.768 188.023 81.672 189.559 81.672C192.759 81.672 195.063 82.216 196.471 83.304C197.879 84.328 198.583 86.344 198.583 89.352V108.264ZM169.015 108.264H152.695V82.536C153.399 82.344 154.391 82.152 155.671 81.96C157.015 81.768 158.455 81.672 159.991 81.672C163.191 81.672 165.495 82.216 166.903 83.304C168.311 84.328 169.015 86.344 169.015 89.352V108.264ZM247.93 115.08C247.93 119.944 246.074 123.752 242.362 126.504C238.714 129.256 233.37 130.632 226.33 130.632C220.89 130.632 216.41 129.864 212.89 128.328C209.434 126.728 207.706 124.264 207.706 120.936C207.706 119.4 208.026 118.088 208.666 117C209.306 115.912 210.074 115.048 210.97 114.408C212.826 115.432 214.938 116.36 217.306 117.192C219.738 117.96 222.522 118.344 225.658 118.344C229.754 118.344 231.802 117.288 231.802 115.176C231.802 114.28 231.418 113.576 230.65 113.064C229.882 112.552 228.602 112.136 226.81 111.816L223.93 111.24C218.426 110.152 214.298 108.424 211.546 106.056C208.794 103.688 207.418 100.36 207.418 96.072C207.418 91.272 209.37 87.528 213.274 84.84C217.178 82.152 222.266 80.808 228.538 80.808C231.674 80.808 234.522 81.128 237.082 81.768C239.706 82.344 241.786 83.304 243.322 84.648C244.858 85.928 245.626 87.592 245.626 89.64C245.626 91.048 245.338 92.296 244.762 93.384C244.25 94.472 243.578 95.368 242.746 96.072C242.042 95.624 240.922 95.176 239.386 94.728C237.914 94.28 236.314 93.896 234.586 93.576C232.858 93.256 231.322 93.096 229.978 93.096C227.866 93.096 226.234 93.352 225.082 93.864C223.93 94.312 223.354 95.048 223.354 96.072C223.354 96.776 223.674 97.352 224.314 97.8C224.954 98.248 226.17 98.664 227.962 99.048L230.938 99.72C237.082 101.128 241.434 103.08 243.994 105.576C246.618 108.008 247.93 111.176 247.93 115.08ZM256.012 103.656H272.14V112.968C272.14 114.568 272.652 115.752 273.676 116.52C274.764 117.224 276.268 117.576 278.188 117.576C279.148 117.576 280.14 117.512 281.164 117.384C282.188 117.192 283.084 116.968 283.852 116.712C284.428 117.352 284.908 118.12 285.292 119.016C285.74 119.912 285.964 120.968 285.964 122.184C285.964 124.552 285.036 126.536 283.18 128.136C281.388 129.672 278.188 130.44 273.58 130.44C267.948 130.44 263.596 129.16 260.524 126.6C257.516 124.04 256.012 119.88 256.012 114.12V103.656ZM266.572 95.88V83.4H284.716C285.1 84.04 285.452 84.904 285.772 85.992C286.156 87.08 286.348 88.264 286.348 89.544C286.348 91.784 285.836 93.416 284.812 94.44C283.852 95.4 282.54 95.88 280.876 95.88H266.572ZM272.14 105.96H256.012V71.496C256.716 71.304 257.708 71.112 258.988 70.92C260.332 70.664 261.74 70.536 263.212 70.536C266.348 70.536 268.62 71.08 270.028 72.168C271.436 73.256 272.14 75.272 272.14 78.216V105.96Z" fill="#FFF9F0"/>
<path d="M331.051 97.416H335.851C338.539 97.416 340.747 96.808 342.475 95.592C344.203 94.312 345.067 92.456 345.067 90.024C345.067 87.592 344.267 85.768 342.667 84.552C341.131 83.272 338.667 82.632 335.275 82.632C334.443 82.632 333.707 82.664 333.067 82.728C332.427 82.792 331.755 82.888 331.051 83.016V97.416ZM337.579 110.184H314.443V76.296C314.443 74.952 314.827 73.928 315.595 73.224C316.363 72.456 317.355 71.848 318.571 71.4C320.747 70.632 323.275 70.088 326.155 69.768C329.035 69.384 332.107 69.192 335.371 69.192C344.203 69.192 350.859 71.08 355.339 74.856C359.819 78.568 362.059 83.56 362.059 89.832C362.059 93.736 360.939 97.224 358.699 100.296C356.523 103.368 353.579 105.8 349.867 107.592C346.219 109.32 342.123 110.184 337.579 110.184ZM334.027 106.44L349.291 103.368C350.699 105.288 352.139 107.176 353.611 109.032C355.083 110.888 356.459 112.68 357.739 114.408C359.083 116.136 360.299 117.736 361.387 119.208C362.475 120.68 363.339 121.96 363.979 123.048C363.339 125.224 362.155 126.92 360.427 128.136C358.763 129.352 356.875 129.96 354.763 129.96C352.011 129.96 349.899 129.352 348.427 128.136C347.019 126.92 345.707 125.32 344.491 123.336L334.027 106.44ZM314.443 103.656H331.243V128.904C330.539 129.096 329.451 129.288 327.979 129.48C326.507 129.672 325.003 129.768 323.467 129.768C320.139 129.768 317.803 129.192 316.459 128.04C315.115 126.824 314.443 124.744 314.443 121.8V103.656ZM391.663 118.632C392.751 118.632 393.935 118.536 395.215 118.344C396.559 118.088 397.551 117.768 398.191 117.384V109.704L391.279 110.28C389.487 110.408 388.015 110.792 386.863 111.432C385.711 112.072 385.135 113.032 385.135 114.312C385.135 115.592 385.615 116.648 386.575 117.48C387.599 118.248 389.295 118.632 391.663 118.632ZM390.895 80.904C397.871 80.904 403.439 82.344 407.599 85.224C411.823 88.04 413.935 92.456 413.935 98.472V119.976C413.935 121.64 413.455 123.016 412.495 124.104C411.599 125.128 410.511 126.024 409.231 126.792C407.183 128.008 404.687 128.936 401.743 129.576C398.799 130.216 395.439 130.536 391.663 130.536C384.943 130.536 379.535 129.256 375.439 126.696C371.407 124.072 369.391 120.136 369.391 114.888C369.391 110.472 370.703 107.08 373.327 104.712C376.015 102.344 380.079 100.872 385.519 100.296L398.095 98.952V98.28C398.095 96.424 397.263 95.112 395.599 94.344C393.999 93.512 391.663 93.096 388.591 93.096C386.223 93.096 383.855 93.352 381.487 93.864C379.183 94.376 377.103 95.016 375.247 95.784C374.415 95.208 373.711 94.344 373.135 93.192C372.559 91.976 372.271 90.728 372.271 89.448C372.271 86.376 373.903 84.2 377.167 82.92C379.023 82.216 381.199 81.704 383.695 81.384C386.255 81.064 388.655 80.904 390.895 80.904ZM449.834 80.904C454.058 80.904 457.898 81.832 461.354 83.688C464.81 85.544 467.53 88.296 469.514 91.944C471.562 95.592 472.586 100.104 472.586 105.48C472.586 110.792 471.498 115.336 469.322 119.112C467.21 122.824 464.202 125.672 460.298 127.656C456.394 129.576 451.818 130.536 446.57 130.536C442.346 130.536 438.762 130.024 435.818 129C432.874 127.976 430.378 126.76 428.33 125.352C426.986 124.392 425.93 123.272 425.162 121.992C424.458 120.712 424.106 119.272 424.106 117.672V87.72H440.33V116.232C441.034 116.616 441.866 116.968 442.826 117.288C443.85 117.544 445.034 117.672 446.378 117.672C449.258 117.672 451.562 116.648 453.29 114.6C455.018 112.488 455.882 109.448 455.882 105.48C455.882 101.384 455.05 98.408 453.386 96.552C451.786 94.632 449.578 93.672 446.762 93.672C444.842 93.672 443.146 94.024 441.674 94.728C440.202 95.432 438.922 96.2 437.834 97.032V83.88C439.306 83.112 441.066 82.44 443.114 81.864C445.162 81.224 447.402 80.904 449.834 80.904ZM440.426 91.656H424.106V66.408C424.81 66.216 425.802 66.024 427.082 65.832C428.426 65.64 429.866 65.544 431.402 65.544C434.602 65.544 436.906 66.088 438.314 67.176C439.722 68.2 440.426 70.216 440.426 73.224V91.656ZM500.694 118.632C501.782 118.632 502.966 118.536 504.246 118.344C505.59 118.088 506.582 117.768 507.222 117.384V109.704L500.31 110.28C498.518 110.408 497.046 110.792 495.894 111.432C494.742 112.072 494.166 113.032 494.166 114.312C494.166 115.592 494.646 116.648 495.606 117.48C496.63 118.248 498.326 118.632 500.694 118.632ZM499.926 80.904C506.902 80.904 512.47 82.344 516.63 85.224C520.854 88.04 522.966 92.456 522.966 98.472V119.976C522.966 121.64 522.486 123.016 521.526 124.104C520.63 125.128 519.542 126.024 518.262 126.792C516.214 128.008 513.718 128.936 510.774 129.576C507.83 130.216 504.47 130.536 500.694 130.536C493.974 130.536 488.566 129.256 484.47 126.696C480.438 124.072 478.422 120.136 478.422 114.888C478.422 110.472 479.734 107.08 482.358 104.712C485.046 102.344 489.11 100.872 494.55 100.296L507.126 98.952V98.28C507.126 96.424 506.294 95.112 504.63 94.344C503.03 93.512 500.694 93.096 497.622 93.096C495.254 93.096 492.886 93.352 490.518 93.864C488.214 94.376 486.134 95.016 484.278 95.784C483.446 95.208 482.742 94.344 482.166 93.192C481.59 91.976 481.302 90.728 481.302 89.448C481.302 86.376 482.934 84.2 486.198 82.92C488.054 82.216 490.23 81.704 492.726 81.384C495.286 81.064 497.686 80.904 499.926 80.904ZM532.561 69.384C532.561 66.952 533.393 64.904 535.057 63.24C536.721 61.576 538.865 60.744 541.489 60.744C544.113 60.744 546.257 61.576 547.921 63.24C549.585 64.904 550.417 66.952 550.417 69.384C550.417 71.752 549.585 73.8 547.921 75.528C546.257 77.192 544.113 78.024 541.489 78.024C538.865 78.024 536.721 77.192 535.057 75.528C533.393 73.8 532.561 71.752 532.561 69.384ZM533.329 103.656H549.649V128.904C548.945 129.096 547.921 129.288 546.577 129.48C545.297 129.672 543.889 129.768 542.353 129.768C539.217 129.768 536.913 129.224 535.441 128.136C534.033 127.048 533.329 125.032 533.329 122.088V103.656ZM549.649 112.2H533.329V83.016C534.033 82.824 535.025 82.632 536.305 82.44C537.649 82.248 539.089 82.152 540.625 82.152C543.825 82.152 546.129 82.696 547.537 83.784C548.945 84.808 549.649 86.824 549.649 89.832V112.2ZM597.018 75.432C597.018 76.904 596.954 78.92 596.826 81.48C596.762 83.976 596.634 86.76 596.442 89.832C596.314 92.84 596.09 95.848 595.77 98.856C595.45 101.8 595.066 104.456 594.618 106.824C594.106 107.272 593.178 107.624 591.834 107.88C590.554 108.136 589.466 108.264 588.57 108.264C586.778 108.264 585.242 107.976 583.962 107.4C582.682 106.76 581.882 105.64 581.562 104.04C581.306 102.568 581.05 100.456 580.794 97.704C580.538 94.952 580.314 91.912 580.122 88.584C579.93 85.256 579.77 81.992 579.642 78.792C579.578 75.592 579.546 72.776 579.546 70.344C582.298 68.808 585.37 68.04 588.762 68.04C591.386 68.04 593.402 68.648 594.81 69.864C596.282 71.08 597.018 72.936 597.018 75.432ZM579.354 121.704C579.354 119.08 580.186 116.936 581.85 115.272C583.514 113.544 585.754 112.68 588.57 112.68C591.386 112.68 593.626 113.544 595.29 115.272C596.954 116.936 597.786 119.08 597.786 121.704C597.786 124.328 596.954 126.504 595.29 128.232C593.626 129.896 591.386 130.728 588.57 130.728C585.754 130.728 583.514 129.896 581.85 128.232C580.186 126.504 579.354 124.328 579.354 121.704Z" fill="#FB923C"/>
<path d="M67.7327 74.6684C63.1282 74.2402 59.9754 69.8266 61.0633 65.332V65.332C62.135 60.9045 66.8402 58.4138 71.1042 60.0169L112.469 75.569C113.25 75.8627 113.69 76.6929 113.494 77.5041V77.5041C113.301 78.3015 112.552 78.8364 111.735 78.7604L67.7327 74.6684Z" fill="#FB923C"/>
<path d="M88.498 20.4759C85.6089 16.5077 86.9418 10.8975 91.307 8.65275L94.1923 7.16905C98.4886 4.95981 103.748 7.0335 105.38 11.5804L123.184 61.1725C123.538 62.1582 123.106 63.2535 122.175 63.7324V63.7324C121.261 64.2026 120.14 63.9364 119.535 63.1051L88.498 20.4759Z" fill="#FB923C"/>
<path d="M136.994 16.3328C136.905 12.2218 140.449 8.96865 144.537 9.40727V9.40727C148.571 9.84003 151.337 13.6783 150.471 17.6418L140.812 61.8465C140.655 62.5649 139.982 63.0497 139.251 62.9713V62.9713C138.531 62.894 137.98 62.294 137.965 61.5699L136.994 16.3328Z" fill="#FB923C"/>
</svg>
