<svg width="19" height="16" viewBox="0 0 19 16" fill="none" xmlns="http://www.w3.org/2000/svg">
<path d="M17.2516 1.3969C16.7827 0.953812 16.226 0.602385 15.6133 0.362699C15.0005 0.123012 14.3439 -0.000234964 13.6807 3.36287e-07C13.0176 0.000235637 12.361 0.123949 11.7485 0.36407C11.1359 0.604191 10.5795 0.956014 10.1109 1.39943L9.4993 1.98442L8.89276 1.4007L8.88882 1.39697C8.42013 0.954095 7.86371 0.602786 7.25134 0.363103C6.63897 0.12342 5.98263 5.67646e-05 5.31981 5.67646e-05C4.65698 5.67646e-05 4.00064 0.12342 3.38827 0.363103C2.7759 0.602786 2.21948 0.954095 1.7508 1.39697L1.47832 1.65444C0.531768 2.54886 0 3.76195 0 5.02685C0 6.29175 0.531768 7.50485 1.47832 8.39927L8.66969 15.1945L9.4818 15.9985L9.50116 15.9801L9.52218 16L10.2831 15.2414L17.5241 8.39915C18.4692 7.50402 19 6.2912 19 5.02674C19 3.76229 18.4692 2.54946 17.5241 1.65433L17.2516 1.3969ZM16.6316 7.55607L9.50116 14.294L2.37051 7.55607C1.6606 6.88525 1.26178 5.97543 1.26178 5.02676C1.26178 4.07809 1.6606 3.16827 2.37051 2.49745L2.64303 2.23999C3.3526 1.5695 4.31487 1.19267 5.31834 1.19232C6.32182 1.19196 7.28439 1.56811 7.99449 2.23809L9.49658 3.6833L11.0058 2.23999C11.3573 1.90783 11.7746 1.64435 12.2339 1.46458C12.6932 1.28482 13.1854 1.1923 13.6826 1.1923C14.1797 1.1923 14.6719 1.28482 15.1312 1.46458C15.5905 1.64435 16.0078 1.90783 16.3593 2.23999L16.6318 2.49742C17.3406 3.16879 17.7387 4.07842 17.7387 5.02677C17.7387 5.97512 17.3405 6.88474 16.6316 7.55607Z" fill="#FFF9F0"/>
</svg>
