<svg width="385" height="332" viewBox="0 0 385 332" fill="none" xmlns="http://www.w3.org/2000/svg">
<path d="M128.32 33.352C137.864 31.8427 147.839 33.1294 157.346 34.2323C157.95 32.9428 160.425 32.7917 161.561 31.6892C162.833 30.4556 164.445 28.7323 166.006 27.8991C168.29 26.6802 173.937 29.0793 175.971 29.6352C181.272 31.0841 186.484 32.2913 191.664 34.1345C198.935 36.7212 207.23 31.0544 213.543 27.5079C217.64 25.2064 220.886 21.2839 224.7 18.485C229.176 15.2005 235.93 15.5814 241.034 15.0861C251.137 14.1059 261.259 13.638 271.39 14.3281C273.559 14.4759 275.63 15.1834 277.758 15.3062C281.58 15.5267 285.495 19.0839 288.205 21.4682C295.739 28.0965 300.79 38.2655 302.501 48.5369C303.97 57.3567 306.634 64.4825 310.702 72.3778C313.195 77.2154 318.208 78.7697 322.432 81.5719C327.362 84.8428 331.774 90.1169 335.445 94.7761C339.356 99.7414 341.567 104.582 342.684 110.866C343.928 117.866 341.807 124.011 340.76 130.721C339.954 135.881 337.194 139.639 334.849 144.145C329.556 154.314 331.117 166.965 332.787 177.914C334.192 187.124 339.658 194.899 342.088 203.833C345.389 215.969 349.722 227.289 350.748 240.12C351.19 245.648 351.211 250.397 349.465 255.648C347.803 260.648 343.083 262.803 339.018 265.282C335.348 267.52 332.541 270.322 329.167 272.935C328.242 273.652 326.904 274.425 325.731 274.525C322.163 274.829 318.498 274.367 314.963 275.185C312.736 275.701 310.555 277.002 308.411 277.826C302.473 280.108 296.128 280.864 289.855 281.176C285.354 281.399 280.638 282.385 276.155 281.836C269.916 281.073 263.85 278.832 257.781 277.19C255.061 276.454 252.164 276.544 249.511 275.601C245.107 274.034 240.801 272.198 236.315 270.808C232.993 269.779 229.625 269.799 226.304 268.827C223.021 267.867 220.012 266.925 216.636 266.284C214.24 265.83 211.716 266.448 209.305 266.162C201.627 265.252 194.123 262.906 186.441 262.25C181.951 261.866 176.981 262.187 172.604 261.125C169.157 260.289 165.086 260.211 161.974 258.264C160.609 257.41 159.247 256.025 157.758 255.525C154.012 254.269 150.335 253.334 146.441 252.542C138.262 250.879 130.906 246.483 122.982 243.935C118.946 242.637 114.525 240.885 110.29 240.634C103.184 240.213 96.054 239.493 89.0298 238.262C78.9364 236.494 68.5558 234.266 58.7663 231.073C56.8104 230.435 55.2814 229.207 53.4284 228.359C51.5065 227.48 49.2999 227.446 47.4261 226.574C46.0037 225.912 44.8383 225.03 43.5315 224.178C41.4684 222.832 38.9437 222.966 36.9336 221.83C31.9793 219.031 33.0193 213.25 33.2451 208.308C33.7779 196.651 34.2883 185.096 34.4593 173.415L34.4594 173.411C34.5106 169.91 34.5886 164.586 36.6128 161.678C39.2994 157.818 41.0426 153.338 43.5315 149.354C46.5927 144.453 51.0384 140.556 55.9026 138.008C58.4874 136.653 59.2016 135.78 59.2016 132.824C59.2016 129.224 58.3769 125.669 58.3769 122.016C58.3769 118.22 58.319 114.488 58.3769 110.719C58.4335 107.031 59.343 104.014 59.8202 100.449C60.1984 97.623 59.9964 94.7374 60.0264 91.8907C60.0732 87.4392 62.1745 83.0151 64.173 79.1756C66.0632 75.5441 69.6624 72.521 72.1226 69.2968C73.516 67.4707 74.6747 65.5008 76.6128 64.2597C80.3751 61.8503 85.4921 63.276 89.6255 62.059C92.2146 61.2966 95.0617 60.9919 97.3459 59.2959C99.3487 57.8088 101.401 56.0132 102.936 53.9653C105.09 51.0908 105.241 45.763 108.045 43.573C112.137 40.377 117.334 37.5145 121.997 35.406C123.949 34.5229 126.207 33.6861 128.32 33.352Z" fill="#9F9F9F"/>
<path d="M253.149 275.925L252.703 275.742L252.231 275.647L242.481 273.697L156 256.401V102.5H176H255.5V276.89L253.149 275.925Z" fill="#FB923C" stroke="#D0D0D0" stroke-width="10"/>
<path d="M154 100.5H253V278.816L154 258.35V100.5Z" stroke="#EAEAEA" stroke-width="6"/>
<path d="M74.2606 246.132L69.9484 238.663L65.8928 238.972L67.3579 247.272L74.5172 253.91L74.2606 246.132Z" fill="#FB923C"/>
<path d="M76.3516 239.932L74.6034 236.904L68.7302 240.295L70.4784 243.323L76.3516 239.932Z" fill="#FB923C"/>
<path fill-rule="evenodd" clip-rule="evenodd" d="M64.3293 229.216C54.8015 213.457 53.8126 185.926 64.3659 177.545C64.2565 184.578 72.9254 185.54 82.9899 186.657C90.6067 187.502 105.038 192.157 105.038 192.157C105.038 192.157 110.061 196.167 111.5 199.318C121.028 215.077 116.983 236.352 104.387 243.965C91.7917 251.578 73.8571 244.975 64.3293 229.216ZM79.383 212.209L97.1928 216.864L77.225 217.357L70.1061 192.399L79.383 212.209Z" fill="white"/>
<path d="M97.1928 216.864L79.383 212.209L70.1061 192.399L77.225 217.357L97.1928 216.864Z" fill="#E6E6E6"/>
<path d="M126.944 184.244C125.317 189.918 105.038 192.157 105.038 192.157C105.038 192.157 96.2127 220.102 103.957 230.716C113.634 243.981 112.754 227.466 124.82 218.671C148.733 206.957 180.805 186.657 144.233 184.244C132.817 183.491 128.571 178.57 126.944 184.244Z" fill="white"/>
<path d="M65.268 233.83L60.9558 226.361L56.9002 226.67L58.3653 234.97L65.5246 241.608L65.268 233.83Z" fill="#FB923C"/>
<path d="M67.359 227.63L65.6108 224.602L59.7376 227.993L61.4858 231.021L67.359 227.63Z" fill="#FB923C"/>
<path d="M112.466 171.168C109.149 186.289 117.486 191.817 114.012 201.293C110.538 210.769 124.314 204.383 131.603 205.982C134.869 206.698 139.355 214.886 141.297 206.034C143.238 197.182 160.834 194.77 163.553 182.372C167.092 166.239 158.523 150.653 144.416 147.559C130.308 144.465 115.782 156.047 112.466 171.168Z" fill="white"/>
<path fill-rule="evenodd" clip-rule="evenodd" d="M178.898 194.806C171.167 197.753 156.662 193.827 154.404 193.183C154.204 193.126 154.041 193.004 153.927 192.834C151.762 189.596 151.211 187.502 152.563 183.195C159.436 188.486 163.662 191.37 178.898 194.806Z" fill="#FB923C"/>
<path d="M162.301 176.893C164.475 181.217 182.044 189.769 178.898 194.806C163.662 191.37 159.436 188.486 152.563 183.195C155.181 178.22 160.128 172.57 162.301 176.893Z" fill="#EA7C21"/>
<path d="M147.759 169.236C147.559 171.052 148.95 172.695 150.865 172.905C152.78 173.115 154.495 171.813 154.695 169.996C154.895 168.18 153.504 166.538 151.589 166.328C149.674 166.118 147.959 167.42 147.759 169.236Z" fill="#3F3F3F"/>
<path d="M161.823 171.228C161.676 172.563 162.699 173.771 164.107 173.926C165.516 174.08 166.776 173.123 166.923 171.787C167.071 170.451 166.048 169.243 164.64 169.089C163.231 168.935 161.97 169.892 161.823 171.228Z" fill="#3F3F3F"/>
<rect x="155" y="100.5" width="96" height="7" fill="#EAEAEA"/>
<path d="M178 127.775L256 97.5V283.188L178 317.5V127.775Z" fill="#A8A8A8"/>
<path d="M171 61L239 63L238 94L171 91.5V61Z" fill="#D9D9D9"/>
<path d="M178.59 69.7473C178.024 70.4678 177.984 71.2992 177.839 72.1691C177.74 72.7632 177.634 73.3497 177.634 73.9535C177.634 74.3888 177.537 74.9396 177.666 75.3521C177.808 75.8068 177.845 76.344 177.917 76.8143C177.984 77.2577 178.102 77.6751 178.193 78.1102C178.383 79.0185 178.978 79.6775 179.641 80.2912C180.141 80.7539 180.72 81.1628 181.305 81.5092C181.823 81.8154 182.355 82.1943 182.927 82.3943C183.258 82.5103 183.662 82.395 184.007 82.4333C184.329 82.4691 184.59 82.4417 184.913 82.4297C185.161 82.4206 185.396 82.2601 185.628 82.189C185.881 82.1118 186.126 82.085 186.379 82.0332C186.765 81.9543 187.002 81.7091 187.353 81.6012C187.585 81.5296 187.827 81.2632 188.025 81.1268C188.265 80.9617 188.528 80.7796 188.659 80.5178" stroke="white" stroke-width="3" stroke-linecap="round"/>
<path d="M195.709 74.9731C195.354 74.3921 194.742 74.1214 194.102 74.35C193.233 74.66 192.555 75.2038 192.076 75.9645C191.904 76.2386 191.794 76.7227 191.853 77.0444C191.929 77.4554 192.161 77.8827 192.204 78.2871C192.223 78.4713 192.465 78.7736 192.593 78.8926C193.041 79.3082 193.531 79.6821 194.024 80.0433C194.576 80.4482 195.534 80.8247 196.219 80.4823C196.529 80.3272 196.808 80.1088 197.111 79.9441C197.431 79.7705 197.597 79.4583 197.844 79.2112C198.061 78.9942 198.062 78.382 198.067 78.0959C198.075 77.6735 198.003 77.2693 198.003 76.8496C198.003 76.2834 197.536 75.6954 197.111 75.3555" stroke="white" stroke-width="3" stroke-linecap="round"/>
<path d="M209.77 76.6938C209.732 75.4499 208.264 75.3555 207.352 75.3555C206.633 75.3555 205.687 75.4376 205.018 75.6883C204.573 75.8552 204.123 76.2334 203.751 76.5168C203.095 77.0158 202.279 77.743 202.193 78.6234C202.143 79.1369 202.361 79.4997 202.699 79.8804C202.919 80.1279 203.115 80.3531 203.379 80.5566C203.784 80.8687 204.229 81.3227 204.735 81.4595C205.08 81.5528 205.441 81.565 205.797 81.5869C206.329 81.6197 207.026 81.7015 207.539 81.5019C208.051 81.3031 208.443 80.7071 208.814 80.3265C209.156 79.9749 209.318 79.4806 209.642 79.1156C209.827 78.9076 209.77 78.0124 209.77 78.2906C209.77 80.2088 211.212 82.3814 210.021 84.2424C209.808 84.5754 209.604 84.9137 209.359 85.2267C208.933 85.7722 208.178 86.0294 207.582 86.3278C206.753 86.742 205.919 87.1578 205.086 87.5564C204.277 87.943 203.343 88.0913 202.455 88.1653C202.213 88.1855 201.9 88.0745 201.669 88.0237C201.161 87.9124 200.578 87.9046 200.086 87.7511C199.863 87.6813 199.014 87.6211 198.936 87.4643" stroke="white" stroke-width="3" stroke-linecap="round"/>
<path d="M217.035 75.6743C217.008 75.9161 216.824 76.1788 216.78 76.4391C216.699 76.9112 216.588 77.4277 216.588 77.9084C216.588 78.3193 216.502 78.6228 216.348 79.0025C216.208 79.3471 216.172 79.7203 216.05 80.0682C215.805 80.7692 215.502 81.5405 214.995 82.0474" stroke="white" stroke-width="3" stroke-linecap="round"/>
<path d="M217.863 71.022C217.871 71.1006 218.036 71.5978 217.785 71.4398C217.562 71.2992 217.5 71.2034 217.736 71.0857" stroke="white" stroke-width="3" stroke-linecap="round"/>
<path d="M219.967 84.4691C219.967 83.3763 220.327 82.4007 220.604 81.3605C220.942 80.093 221.229 78.9818 222.098 77.9474C222.502 77.4662 223.135 76.9776 223.759 76.8816C224.356 76.7897 225.141 76.6412 225.625 77.0905C226.106 77.5372 226.569 77.9174 226.913 78.4643C227.062 78.6995 227.105 79.0998 227.105 79.3707C227.105 79.8977 227.273 80.353 227.197 80.9002C227.131 81.3701 227.139 81.8126 227.101 82.2811C227.05 82.9237 226.816 83.5472 226.719 84.1824C226.647 84.6479 226.34 85.18 226.34 85.6163" stroke="white" stroke-width="3" stroke-linecap="round"/>
</svg>
