<svg width="154" height="43" viewBox="0 0 154 43" fill="none" xmlns="http://www.w3.org/2000/svg">
<path fill-rule="evenodd" clip-rule="evenodd" d="M65.5348 23.3255C63.7247 22.075 61.3019 21.4498 58.2664 21.4498C57.2917 21.4498 56.2474 21.5192 55.1335 21.6582C54.0474 21.7971 53.1006 22.0194 52.293 22.3251C50.8727 22.8809 50.1626 23.8257 50.1626 25.1596C50.1626 25.7153 50.2879 26.2572 50.5386 26.7852C50.7892 27.2854 51.0955 27.6605 51.4575 27.9106C52.2651 27.5772 53.1702 27.2993 54.1727 27.077C55.2031 26.8547 56.2335 26.7435 57.2639 26.7435C58.6006 26.7435 59.6171 26.9241 60.3133 27.2854C61.0373 27.6189 61.3994 28.1885 61.3994 28.9944V29.2862L55.9272 29.8697C53.5601 30.1198 51.7917 30.759 50.6221 31.7872C50.5424 31.859 50.4654 31.9329 50.3912 32.0091L68.2918 30.4905V29.0778C68.2918 26.4656 67.3728 24.5482 65.5348 23.3255Z" fill="#FF811A"/>
<path fill-rule="evenodd" clip-rule="evenodd" d="M34.3152 28.6193H32.2266V22.3668C32.5329 22.3112 32.8253 22.2695 33.1038 22.2417C33.3823 22.214 33.7026 22.2001 34.0646 22.2001C35.5405 22.2001 36.6127 22.4779 37.2811 23.0337C37.9773 23.5617 38.3254 24.3537 38.3254 25.4097C38.3254 26.4656 37.9494 27.2715 37.1975 27.8273C36.4456 28.3553 35.4849 28.6193 34.3152 28.6193ZM25 34.1631L32.3102 33.543L34.0538 33.395L40.8456 32.8189L41.3483 32.7762C41.3056 32.7209 41.2629 32.6655 41.2203 32.61C42.4613 31.8869 43.4736 30.9734 44.257 29.8697C45.2317 28.5359 45.7191 27.0214 45.7191 25.3263C45.7191 22.603 44.7444 20.4355 42.795 18.8237C40.8456 17.1842 37.9494 16.3644 34.1064 16.3644C32.6861 16.3644 31.3494 16.4478 30.0962 16.6145C28.8431 16.7535 27.743 16.9897 26.7962 17.3231C26.2671 17.5177 25.8354 17.7817 25.5013 18.1151C25.1671 18.4208 25 18.8654 25 19.449V31.3287V34.1631Z" fill="#FF811A"/>
<path fill-rule="evenodd" clip-rule="evenodd" d="M88.925 22.6586C87.4212 21.8527 85.7503 21.4498 83.9124 21.4498C82.8541 21.4498 81.8794 21.5887 80.9883 21.8666C80.5709 21.9837 80.1811 22.11 79.8187 22.2454V18.1151C79.8187 16.8091 79.5123 15.9337 78.8997 15.4891C78.287 15.0167 77.2845 14.7805 75.8921 14.7805C75.2237 14.7805 74.5971 14.8222 74.0123 14.9055C73.4553 14.9889 73.0237 15.0723 72.7174 15.1556V24.4093V26.1183V30.1151L79.7769 29.5162V27.7517C79.9634 27.649 80.1583 27.5492 80.3617 27.4521C81.0022 27.1465 81.7402 26.9936 82.5756 26.9936C83.801 26.9936 84.7617 27.4104 85.4579 28.2441C85.6508 28.4588 85.818 28.708 85.9595 28.9917L93.3428 28.3654C93.1277 27.5958 92.8386 26.8884 92.4757 26.2433C91.6124 24.6594 90.4288 23.4644 88.925 22.6586Z" fill="#FF811A"/>
<path fill-rule="evenodd" clip-rule="evenodd" d="M112.977 23.3255C111.167 22.075 108.744 21.4498 105.709 21.4498C104.734 21.4498 103.69 21.5192 102.576 21.6582C101.49 21.7971 100.543 22.0194 99.7356 22.3251C98.3153 22.8809 97.6052 23.8257 97.6052 25.1596C97.6052 25.7153 97.7305 26.2572 97.9811 26.7852C98.2318 27.2854 98.5381 27.6605 98.9001 27.9106C99.7077 27.5772 100.613 27.2993 101.615 27.077C102.646 26.8547 103.676 26.7435 104.706 26.7435C105.885 26.7435 106.815 26.8839 107.495 27.1648L115.368 26.4969C114.942 25.1594 114.145 24.1023 112.977 23.3255Z" fill="#FF811A"/>
<path d="M92.3921 38.0396C93.339 36.4001 93.8124 34.4271 93.8124 32.1206C93.8124 30.7371 93.6559 29.4853 93.3428 28.3654L85.9595 28.9917L85.9707 29.0143C86.3529 29.793 86.544 30.8285 86.544 32.1206C86.544 33.8435 86.1681 35.1635 85.4162 36.0805C84.6643 36.9698 83.6617 37.4144 82.4085 37.4144C81.8237 37.4144 81.3085 37.3588 80.863 37.2476C80.4453 37.1087 80.0832 36.9559 79.7769 36.7891V29.5162L72.7174 30.1151V37.4144C72.7174 38.1091 72.8705 38.7343 73.1769 39.2901C73.511 39.8459 73.9705 40.3322 74.5554 40.749C75.4465 41.3604 76.5326 41.8884 77.8136 42.333C79.0946 42.7776 80.6541 42.9999 82.4921 42.9999C84.7757 42.9999 86.7668 42.5831 88.4655 41.7494C90.1643 40.888 91.4731 39.6514 92.3921 38.0396Z" fill="#F47710"/>
<path fill-rule="evenodd" clip-rule="evenodd" d="M67.6652 40.2071C68.0829 39.7347 68.2918 39.1373 68.2918 38.4148V30.4905L50.3912 32.0091C49.4034 33.0232 48.9094 34.4221 48.9094 36.2056C48.9094 38.4842 49.7867 40.1932 51.5411 41.3326C53.3234 42.4441 55.6765 42.9999 58.6006 42.9999C60.2437 42.9999 61.7057 42.861 62.9867 42.5831C64.2677 42.3052 65.3538 41.9023 66.2449 41.3743C66.8019 41.0408 67.2753 40.6518 67.6652 40.2071ZM60.1462 37.7062C59.5892 37.7895 59.074 37.8312 58.6006 37.8312C57.5702 37.8312 56.8322 37.6645 56.3867 37.331C55.969 36.9698 55.7601 36.5112 55.7601 35.9555C55.7601 35.3997 56.0107 34.9829 56.512 34.705C57.0133 34.4271 57.6538 34.2604 58.4335 34.2048L61.4411 33.9547V37.2893C61.1626 37.4561 60.731 37.595 60.1462 37.7062Z" fill="#F47710"/>
<path d="M40.414 33.0377C38.8266 33.788 37.0444 34.1631 35.0671 34.1631H34.5305L38.0747 39.8737C38.6039 40.7351 39.1747 41.4298 39.7874 41.9578C40.4279 42.4858 41.3469 42.7498 42.5444 42.7498C43.4634 42.7498 44.2849 42.4858 45.0089 41.9578C45.7608 41.4298 46.276 40.6934 46.5545 39.7486C46.276 39.2762 45.9001 38.7204 45.4267 38.0813C44.9532 37.4422 44.4241 36.7474 43.8393 35.9972C43.2824 35.2469 42.6836 34.4688 42.0431 33.6629C41.8097 33.3692 41.5781 33.0736 41.3483 32.7762L40.8456 32.8189C40.7045 32.8941 40.5606 32.967 40.414 33.0377Z" fill="#F47710"/>
<path d="M35.0671 34.1631C37.0444 34.1631 38.8266 33.788 40.414 33.0377C40.5606 32.967 40.7045 32.8941 40.8456 32.8189L34.0538 33.395L34.5305 34.1631H35.0671Z" fill="#FB923C"/>
<path d="M32.3102 34.1631H34.5305L34.0538 33.395L32.3102 33.543V34.1631Z" fill="#FB923C"/>
<path d="M25 34.1631H32.3102V33.543L25 34.1631Z" fill="#FB923C"/>
<path d="M30.8899 42.5414C31.5304 42.458 32.0038 42.3747 32.3102 42.2913V34.1631H25V39.2068C25 40.485 25.2924 41.3882 25.8772 41.9161C26.462 42.4163 27.4785 42.6664 28.9266 42.6664C29.595 42.6664 30.2494 42.6248 30.8899 42.5414Z" fill="#F47710"/>
<path fill-rule="evenodd" clip-rule="evenodd" d="M115.734 38.4148V29.0778C115.734 28.1251 115.612 27.2648 115.368 26.4969L107.495 27.1648C107.587 27.2024 107.673 27.2427 107.756 27.2854C108.48 27.6189 108.842 28.1885 108.842 28.9944V29.2862L103.37 29.8697C101.003 30.1198 99.2343 30.759 98.0647 31.7872C96.9229 32.8153 96.352 34.2881 96.352 36.2056C96.352 38.4842 97.2292 40.1932 98.9837 41.3326C100.766 42.4441 103.119 42.9999 106.043 42.9999C107.686 42.9999 109.148 42.861 110.429 42.5831C111.71 42.3052 112.796 41.9023 113.688 41.3743C114.244 41.0408 114.718 40.6518 115.108 40.2071C115.526 39.7347 115.734 39.1373 115.734 38.4148ZM107.589 37.7062C107.032 37.7895 106.517 37.8312 106.043 37.8312C105.013 37.8312 104.275 37.6645 103.829 37.331C103.412 36.9698 103.203 36.5112 103.203 35.9555C103.203 35.3997 103.453 34.9829 103.955 34.705C104.456 34.4271 105.096 34.2604 105.876 34.2048L108.884 33.9547V37.2893C108.605 37.4561 108.174 37.595 107.589 37.7062Z" fill="#F47710"/>
<path fill-rule="evenodd" clip-rule="evenodd" d="M126.65 38.469L123.904 41.4665C122.875 41.0307 122.368 40.9898 121.657 41.4665L119.519 37.6396L121.494 36.1457L122.963 37.6396L124.921 36.6341L126.65 38.469Z" fill="#FFF2DF"/>
<path d="M121.657 41.4665L122.508 42.9894L123.904 41.4665C122.875 41.0307 122.368 40.9898 121.657 41.4665Z" fill="#3F3F3F"/>
<path fill-rule="evenodd" clip-rule="evenodd" d="M121.436 21.2263C125.605 20.9768 127.4 21.2861 128.379 23.6731L128.176 25.4104L120.875 26.0297L121.436 21.2263Z" fill="#FF811A"/>
<path d="M119.519 37.6396L121.494 36.1457L122.963 37.6396L124.921 36.6341L126.65 38.469L128.176 25.4104L120.875 26.0297L119.519 37.6396Z" fill="#F47710"/>
<path d="M129 15.9554C129 17.9338 127.393 19.5376 125.41 19.5376C123.428 19.5376 121.82 17.9338 121.82 15.9554C121.82 13.9771 123.428 12.3733 125.41 12.3733C127.393 12.3733 129 13.9771 129 15.9554Z" fill="#FF811A"/>
<path d="M123.981 10.6421C124.329 11.0709 124.959 11.1363 125.388 10.7882C125.817 10.4401 125.882 9.81033 125.534 9.38156L123.981 10.6421ZM78.7428 5.45277L79.0191 6.41386V6.41386L78.7428 5.45277ZM125.534 9.38156C120.075 2.65735 112.658 0.178558 104.463 0.00941771C96.3054 -0.158956 87.2873 1.95643 78.4666 4.49168L79.0191 6.41386C87.8211 3.88396 96.5889 1.84732 104.422 2.00899C112.218 2.1699 118.997 4.50322 123.981 10.6421L125.534 9.38156ZM78.4666 4.49168C65.9959 8.07602 57.8806 8.98029 51.3263 8.07318C44.7869 7.16815 39.695 4.44831 33.2476 0.527724L32.2085 2.23658C38.6836 6.17402 44.0762 9.08885 51.0521 10.0543C58.013 11.0177 66.4439 10.0282 79.0191 6.41386L78.4666 4.49168Z" fill="url(#paint0_linear_254_1719)"/>
<defs>
<linearGradient id="paint0_linear_254_1719" x1="32.728" y1="5.50592" x2="124.758" y2="5.50592" gradientUnits="userSpaceOnUse">
<stop stop-color="#FDC28D" stop-opacity="0"/>
<stop offset="0.385" stop-color="#FFF2DF"/>
<stop offset="1" stop-color="#FB923C"/>
</linearGradient>
</defs>
</svg>
