<svg width="32" height="32" viewBox="0 0 32 32" fill="none" xmlns="http://www.w3.org/2000/svg">
<path d="M17 8.5C17 7.94772 16.5523 7.5 16 7.5C15.4477 7.5 15 7.94772 15 8.5L17 8.5ZM15 23.5C15 24.0523 15.4477 24.5 16 24.5C16.5523 24.5 17 24.0523 17 23.5H15ZM23.5 17C24.0523 17 24.5 16.5523 24.5 16C24.5 15.4477 24.0523 15 23.5 15V17ZM8.5 15C7.94772 15 7.5 15.4477 7.5 16C7.5 16.5523 7.94772 17 8.5 17V15ZM30 16C30 23.732 23.732 30 16 30V32C24.8366 32 32 24.8366 32 16H30ZM16 30C8.26801 30 2 23.732 2 16H0C0 24.8366 7.16344 32 16 32V30ZM2 16C2 8.26801 8.26801 2 16 2V0C7.16344 0 0 7.16344 0 16H2ZM16 2C23.732 2 30 8.26801 30 16H32C32 7.16344 24.8366 0 16 0V2ZM15 8.5L15 16L17 16L17 8.5L15 8.5ZM15 16V23.5H17V16H15ZM23.5 15H16V17H23.5V15ZM16 15H8.5V17H16V15Z" fill="white"/>
</svg>
