<svg width="21" height="26" viewBox="0 0 21 26" fill="none" xmlns="http://www.w3.org/2000/svg">
<path d="M0 22.1V19.5H2.6V10.4C2.6 8.60168 3.14167 7.00918 4.22501 5.62251C5.30834 4.21417 6.71668 3.29334 8.45002 2.86V1.95C8.45002 1.40834 8.63418 0.953334 9.00252 0.585C9.39252 0.195 9.85835 0 10.4 0C10.9417 0 11.3967 0.195 11.765 0.585C12.155 0.953334 12.35 1.40834 12.35 1.95V2.86C14.0834 3.29334 15.4917 4.21417 16.575 5.62251C17.6584 7.00918 18.2 8.60168 18.2 10.4V19.5H20.8V22.1H0ZM10.4 26C9.68502 26 9.06752 25.7509 8.54752 25.2525C8.04918 24.7325 7.80001 24.115 7.80001 23.4H13C13 24.115 12.74 24.7325 12.22 25.2525C11.7217 25.7509 11.115 26 10.4 26ZM5.20001 19.5H15.6V10.4C15.6 8.97001 15.0909 7.74585 14.0725 6.72751C13.0542 5.70918 11.83 5.20001 10.4 5.20001C8.97002 5.20001 7.74585 5.70918 6.72751 6.72751C5.70918 7.74585 5.20001 8.97001 5.20001 10.4V19.5Z" fill="#FFF9F0"/>
</svg>
