<svg width="16" height="16" viewBox="0 0 16 16" fill="none" xmlns="http://www.w3.org/2000/svg">
<g clip-path="url(#clip0_299_5038)">
<path fill-rule="evenodd" clip-rule="evenodd" d="M1.5918 2.71196L2.38095 7.24955H7.25013C7.66434 7.24955 8.00013 7.58533 8.00013 7.99955C8.00013 8.41376 7.66434 8.74955 7.25013 8.74955H2.38095L1.5918 13.2871L13.9295 7.99955L1.5918 2.71196ZM0.988869 7.99955L0.0637969 2.68038C-0.0109877 2.25037 0.128154 1.81086 0.436783 1.50223C0.824568 1.11445 1.40938 1.00182 1.91345 1.21785L15.3158 6.96171C15.7309 7.13964 16.0001 7.54786 16.0001 7.99955C16.0001 8.45123 15.7309 8.85946 15.3158 9.03739L1.91345 14.7812C1.40938 14.9973 0.824568 14.8846 0.436783 14.4969C0.128154 14.1882 -0.0109879 13.7487 0.0637969 13.3187L0.988869 7.99955Z" fill="#8E8E93"/>
</g>
<defs>
<clipPath id="clip0_299_5038">
<rect width="16" height="16" fill="white"/>
</clipPath>
</defs>
</svg>
