<svg width="52" height="52" viewBox="0 0 52 52" fill="none" xmlns="http://www.w3.org/2000/svg">
<mask id="mask0_416_2183" style="mask-type:alpha" maskUnits="userSpaceOnUse" x="0" y="0" width="52" height="52">
<circle cx="26" cy="26" r="26" fill="white"/>
</mask>
<g mask="url(#mask0_416_2183)">
<path fill-rule="evenodd" clip-rule="evenodd" d="M25.3613 124.6C45.9944 130.784 77.4448 123.929 83.832 109.601C75.9043 111.761 72.2705 102.262 68.0518 91.2352C63.3913 79.0535 58.017 65.0059 45.3518 62.7466C24.7187 56.5631 1.82661 67.2839 -3.09212 83.693C-8.01086 100.102 4.72815 118.417 25.3613 124.6ZM40.1911 102.7L29.6934 83.9618L34.9974 106.624L65.3355 107.427L40.1911 102.7Z" fill="#FFBC86"/>
<path d="M29.6934 83.9618L40.1911 102.7L65.3355 107.427L34.9974 106.624L29.6934 83.9618Z" fill="#FB923C"/>
<ellipse cx="46.5746" cy="43.5964" rx="46.5746" ry="43.5964" transform="matrix(0.929695 0.36833 -0.368913 0.929464 16.1434 -21.6152)" fill="#FFBC86"/>
<path fill-rule="evenodd" clip-rule="evenodd" d="M-26.8372 33.0395L8.60751 50.9039C9.05333 51.1286 9.59618 50.9836 9.8765 50.5648L17.9362 38.525L-26.8372 33.0395Z" fill="#FB923C"/>
<path d="M9.38614 22.5356C9.16125 22.115 8.67367 21.9146 8.22077 22.0564L-26.8372 33.0395L17.9362 38.525L9.38614 22.5356Z" fill="#EA7C21"/>
<ellipse cx="7.73092" cy="7.83961" rx="7.73092" ry="7.83961" transform="matrix(0.929695 0.368331 -0.368914 0.929464 27.4763 6.02148)" fill="#3F3F3F"/>
<ellipse cx="6.4878" cy="6.81522" rx="6.4878" ry="6.81522" transform="matrix(0.929695 0.368331 -0.368914 0.929464 5.14136 1.04297)" fill="#3F3F3F"/>
</g>
</svg>
