<svg width="365" height="361" viewBox="0 0 365 361" fill="none" xmlns="http://www.w3.org/2000/svg">
<rect width="365" height="361" fill="#B8B8B8"/>
<path opacity="0.3" d="M-335 -541C-335 -556.464 -322.464 -569 -307 -569H1316C1331.46 -569 1344 -556.464 1344 -541V863C1344 878.464 1331.46 891 1316 891H-307C-322.464 891 -335 878.464 -335 863V-541Z" fill="#FFE600"/>
<rect width="1440" height="1024" transform="translate(-216 -322)" fill="#20243C"/>
<circle cx="179.788" cy="179.028" r="128.315" fill="#3A4274" fill-opacity="0.54"/>
<circle cx="176.89" cy="173.239" r="129.28" fill="#3A4274" fill-opacity="0.4"/>
<ellipse cx="182.019" cy="180.499" rx="134.532" ry="130.245" transform="rotate(-30.4967 182.019 180.499)" fill="#3A4274" fill-opacity="0.4"/>
<mask id="mask0_1_2" style="mask-type:alpha" maskUnits="userSpaceOnUse" x="63" y="61" width="233" height="233">
<circle cx="179.449" cy="177.513" r="115.773" fill="white"/>
</mask>
<g mask="url(#mask0_1_2)">
<path d="M160.075 396.691H181.293L185.623 405.691L166.137 412.763L143.188 405.691L160.075 396.691Z" fill="#FB923C"/>
<path d="M170.713 384.637H179.315V401.283H170.713V384.637Z" fill="#FB923C"/>
<path fill-rule="evenodd" clip-rule="evenodd" d="M208.333 397.042C253.628 397.954 313.502 366.269 318.376 333.551C303.527 342.414 290.814 325.168 276.054 305.145C264.884 289.991 237.214 265.028 237.214 265.028C237.214 265.028 222.492 259.273 214.009 260.079C168.713 259.166 128.36 293.875 127.634 329.992C126.907 366.11 163.037 396.129 208.333 397.042ZM226.051 344.17L194.225 312.026L217.736 355.076L279.669 339.578L226.051 344.17Z" fill="white"/>
<path d="M194.225 312.026L226.051 344.17L279.669 339.578L217.736 355.076L194.225 312.026Z" fill="#E6E6E6"/>
<path d="M244.817 156.372C244.818 194.37 221.871 203.239 225.225 227.784C228.579 252.329 198.841 229.776 180.481 229.776C172.255 229.776 157.159 247.048 157.159 224.805C157.159 202.562 116.145 187.527 116.145 156.372C116.145 115.833 144.949 82.9688 180.481 82.9688C216.013 82.9687 244.815 118.375 244.817 156.372Z" fill="white"/>
<path d="M227.127 208.752C217.04 219.174 237.214 265.028 237.214 265.028C237.214 265.028 188.533 318.082 156.391 314.649C116.225 310.357 152.496 291.96 156.392 255.518C160.288 219.076 148.95 130.54 184.504 130.541C212.651 130.541 237.214 198.33 227.127 208.752Z" fill="white"/>
<path fill-rule="evenodd" clip-rule="evenodd" d="M72.7183 178.113C89.744 189.246 126.669 187.458 132.435 187.103C132.945 187.072 133.401 186.863 133.763 186.516C140.673 179.891 143.102 175.161 142.122 164.123C122.816 173.194 111.143 177.887 72.7183 178.113Z" fill="#FB923C"/>
<path d="M122.041 143.895C114.538 153.118 67.8129 164.384 72.7183 178.113C111.143 177.887 122.816 173.194 142.122 164.123C138.453 150.819 129.543 134.672 122.041 143.895Z" fill="#EA7C21"/>
<path d="M161.022 133.182C160.545 137.642 156.338 140.849 151.625 140.346C146.912 139.842 143.478 135.819 143.955 131.359C144.432 126.899 148.639 123.692 153.352 124.196C158.065 124.699 161.499 128.723 161.022 133.182Z" fill="#3F3F3F"/>
<path d="M126.176 130.563C125.825 133.843 122.731 136.201 119.265 135.831C115.8 135.46 113.274 132.502 113.625 129.222C113.976 125.943 117.069 123.584 120.535 123.955C124.001 124.325 126.526 127.284 126.176 130.563Z" fill="#3F3F3F"/>
<path d="M197.347 400.709H218.565L222.895 409.709L203.409 416.781L180.46 409.709L197.347 400.709Z" fill="#FB923C"/>
<path d="M207.985 388.655H216.587V405.301H207.985V388.655Z" fill="#FB923C"/>
</g>
</svg>
