<svg width="93" height="93" viewBox="0 0 93 93" fill="none" xmlns="http://www.w3.org/2000/svg">
<mask id="mask0_872_3056" style="mask-type:alpha" maskUnits="userSpaceOnUse" x="0" y="0" width="93" height="93">
<circle cx="46.5" cy="46.5" r="46.5" fill="#A8A8A8"/>
</mask>
<g mask="url(#mask0_872_3056)">
<path d="M40.4385 140.625H49.2526L51.0513 144.372L42.9568 147.317L33.4233 144.372L40.4385 140.625Z" fill="#A8A8A8"/>
<path d="M44.8577 135.606H48.431L48.431 142.537H44.8577L44.8577 135.606Z" fill="#A8A8A8"/>
<path fill-rule="evenodd" clip-rule="evenodd" d="M60.4852 140.771C79.3013 141.151 104.173 127.958 106.198 114.335C100.03 118.026 94.7486 110.845 88.6173 102.508C83.9772 96.1982 72.483 85.8043 72.483 85.8043C72.483 85.8043 66.3671 83.4078 62.843 83.7436C44.0269 83.3635 27.2639 97.8152 26.9621 112.853C26.6603 127.892 41.6691 140.391 60.4852 140.771ZM67.8457 118.757L54.6246 105.373L64.3915 123.298L90.1189 116.845L67.8457 118.757Z" fill="#A8A8A8"/>
<path d="M54.6246 105.373L67.8457 118.757L90.1189 116.845L64.3915 123.298L54.6246 105.373Z" fill="#A8A8A8"/>
<path d="M75.6411 40.5632C75.6418 56.3842 66.1091 60.0772 67.5025 70.297C68.8959 80.5168 56.5421 71.1264 48.9153 71.1264C45.4982 71.1264 39.2271 78.3178 39.2271 69.0564C39.2271 59.7951 22.1894 53.5351 22.1894 40.5632C22.1894 23.6836 34.155 10 48.9153 10C63.6755 10 75.6405 24.7423 75.6411 40.5632Z" fill="#A8A8A8"/>
<path d="M68.2926 62.3727C64.1022 66.7121 72.483 85.8043 72.483 85.8043C72.483 85.8043 52.26 107.895 38.9082 106.465C22.2227 104.678 37.2899 97.0178 38.9083 81.8446C40.5268 66.6713 35.8169 29.8072 50.5865 29.8075C62.279 29.8078 72.483 58.0332 68.2926 62.3727Z" fill="#A8A8A8"/>
<path fill-rule="evenodd" clip-rule="evenodd" d="M4.14953 49.6155C11.2222 54.2508 26.5614 53.5063 28.9564 53.3585C29.1684 53.3455 29.3579 53.2586 29.5083 53.114C32.3787 50.3556 33.3876 48.3863 32.9806 43.7903C24.9608 47.5672 20.1114 49.5213 4.14953 49.6155Z" fill="#A8A8A8"/>
<path d="M24.6387 35.368C21.522 39.2081 2.11177 43.8989 4.14953 49.6155C20.1114 49.5213 24.9608 47.5672 32.9806 43.7903C31.4564 38.2508 27.7553 31.5279 24.6387 35.368Z" fill="#A8A8A8"/>
<path d="M40.8318 30.9075C40.6337 32.7643 38.8861 34.0997 36.9283 33.89C34.9705 33.6804 33.5439 32.0052 33.742 30.1483C33.9401 28.2914 35.6877 26.9561 37.6455 27.1657C39.6033 27.3754 41.0298 29.0506 40.8318 30.9075Z" fill="#A8A8A8"/>
<path d="M26.3563 29.8169C26.2106 31.1824 24.9254 32.1644 23.4857 32.0102C22.046 31.856 20.9969 30.6241 21.1426 29.2586C21.2882 27.8931 22.5734 26.9111 24.0131 27.0653C25.4529 27.2195 26.5019 28.4514 26.3563 29.8169Z" fill="#A8A8A8"/>
<path d="M55.9217 142.298H64.7357L66.5345 146.045L58.44 148.99L48.9065 146.045L55.9217 142.298Z" fill="#A8A8A8"/>
<path d="M60.3409 137.279H63.9141L63.9141 144.21H60.3409L60.3409 137.279Z" fill="#A8A8A8"/>
</g>
</svg>
