<svg width="20" height="21" viewBox="0 0 20 21" fill="none" xmlns="http://www.w3.org/2000/svg">
<path d="M14.1668 18V16.3333C14.1668 15.4493 13.8156 14.6014 13.1905 13.9763C12.5654 13.3512 11.7176 13 10.8335 13H4.16683C3.28277 13 2.43493 13.3512 1.80981 13.9763C1.18469 14.6014 0.833496 15.4493 0.833496 16.3333V18M19.1668 18V16.3333C19.1663 15.5948 18.9205 14.8773 18.468 14.2936C18.0155 13.7099 17.3819 13.293 16.6668 13.1083M13.3335 3.10833C14.0505 3.29192 14.686 3.70892 15.1399 4.29359C15.5937 4.87827 15.84 5.59736 15.84 6.3375C15.84 7.07764 15.5937 7.79673 15.1399 8.38141C14.686 8.96608 14.0505 9.38308 13.3335 9.56667M10.8335 6.33333C10.8335 8.17428 9.34111 9.66667 7.50016 9.66667C5.65921 9.66667 4.16683 8.17428 4.16683 6.33333C4.16683 4.49238 5.65921 3 7.50016 3C9.34111 3 10.8335 4.49238 10.8335 6.33333Z" stroke="#D9D9D9" stroke-linecap="round" stroke-linejoin="round"/>
</svg>
